<?xml version="1.0" encoding="UTF-8"?><svg xmlns="http://www.w3.org/2000/svg" xmlns:xlink="http://www.w3.org/1999/xlink" height="800.2" preserveAspectRatio="xMidYMid meet" version="1.0" viewBox="0.0 0.0 1871.4 800.2" width="1871.4" zoomAndPan="magnify"><defs><clipPath id="a"><path d="M 1 320 L 1871 320 L 1871 800.230469 L 1 800.230469 Z M 1 320"/></clipPath><clipPath id="b"><path d="M 1030 656 L 1080 656 L 1080 800.230469 L 1030 800.230469 Z M 1030 656"/></clipPath><clipPath id="c"><path d="M 0 0 L 1871.351562 0 L 1871.351562 694 L 0 694 Z M 0 0"/></clipPath><clipPath id="d"><path d="M 1021 641 L 1046 641 L 1046 800.230469 L 1021 800.230469 Z M 1021 641"/></clipPath></defs><g><g clip-path="url(#a)" id="change1_1"><path d="M 1869.960938 572.113281 C 1872.511719 624.394531 1855.253906 680.554688 1831.421875 727.160156 C 1599.289062 776.917969 1361.09375 791.539062 1123.78125 798.464844 C 1041.933594 800.851562 959.726562 802.324219 878.425781 792.550781 C 783.5625 781.148438 690.488281 754.496094 594.992188 751.375 C 543.347656 749.6875 490.601562 754.808594 440.785156 741.085938 C 360.230469 718.902344 301.5 652.175781 239.167969 596.53125 C 190.4375 553.03125 124.523438 507.867188 59.761719 501.453125 C 26.871094 498.199219 1.878906 470.230469 1.375 437.179688 C 0.78125 398.433594 2.488281 358.105469 2.246094 324.003906 C 110.835938 307.488281 217.609375 353.175781 295.503906 430.621094 C 313.929688 448.941406 330.738281 469.621094 353.269531 482.566406 C 378.269531 496.929688 407.859375 500.371094 436.519531 503.519531 C 706.078125 533.125 978.941406 562.707031 1247.550781 525.488281 C 1349.53125 511.359375 1450.433594 487.640625 1553.265625 482.734375 C 1656.105469 477.820312 1784.847656 514.207031 1869.960938 572.113281" fill="#b2e4fb"/></g><g id="change2_1"><path d="M 278.335938 414.941406 C 245.984375 387.4375 208.359375 367.28125 168.132812 354.207031 C 166.574219 365.90625 164.441406 383.207031 162.125 403.636719 C 132.671875 371.6875 73.339844 373.195312 28.257812 364.128906 C 28.246094 352.398438 27.382812 344.25 24.679688 337.109375 C 14.125 337.847656 12.707031 322.414062 2.246094 324.007812 C 2.492188 359.160156 0.671875 400.933594 1.4375 440.765625 C 2.046875 472.714844 26.796875 498.429688 58.609375 501.421875 C 74.675781 502.929688 90.816406 506.839844 106.757812 512.503906 C 96.164062 504.09375 84.40625 497.160156 71.425781 492.832031 C 61.09375 489.386719 51.421875 483.9375 43.246094 476.738281 C 16.105469 452.839844 20.472656 427.847656 24.847656 402.085938 C 72.71875 404.804688 118.597656 433.125 155.882812 463.027344 C 153.6875 485.726562 151.625 509.390625 150.019531 532.136719 C 182.726562 550.097656 213.371094 573.503906 239.167969 596.53125 C 267.300781 621.644531 294.71875 648.988281 323.71875 673.503906 C 326.945312 581.203125 326.210938 482.984375 278.335938 414.941406" fill="#8acfea"/></g><g clip-path="url(#b)" id="change2_9"><path d="M 1047.789062 664.855469 C 1047.460938 666.230469 1031.230469 791.992188 1030.320312 800.167969 C 1046.628906 800.128906 1062.941406 799.917969 1079.25 799.578125 C 1078.621094 797.425781 1051.488281 650.550781 1049.109375 657.210938 C 1048.808594 659.707031 1048.398438 662.246094 1047.789062 664.855469" fill="#8acfea"/></g><g id="change2_2"><path d="M 899.296875 750.976562 C 901.015625 728.972656 896.960938 672.054688 918.054688 657.609375 C 935.398438 645.738281 1011.828125 622.773438 1032.699219 619.175781 C 1036.410156 618.535156 1033.859375 622.609375 1032.699219 619.175781 C 1026.828125 601.921875 965.160156 623.019531 952.507812 622.660156 C 928.0625 621.964844 903.679688 623.273438 879.4375 626.546875 C 870.601562 627.738281 861.714844 629.722656 852.820312 631.550781 C 833.695312 632.023438 814.558594 632.1875 795.386719 631.703125 C 787.796875 631.511719 785.660156 639.742188 789.148438 644.71875 C 786.898438 641.511719 772.328125 650.460938 770.722656 652.027344 C 773.007812 649.792969 814.886719 650.476562 820.527344 649.964844 C 840.882812 648.128906 863.246094 650.738281 874.214844 670.414062 C 887.144531 693.605469 883.425781 725.46875 885.371094 750.976562 C 886.054688 759.933594 898.597656 759.9375 899.296875 750.976562" fill="#8acfea"/></g><g id="change2_3"><path d="M 1134.140625 691.882812 C 1132.519531 727.097656 1126.988281 762.933594 1124.230469 798.449219 C 1134.210938 798.160156 1144.191406 797.832031 1154.171875 797.511719 C 1151.980469 762.3125 1134.558594 682.703125 1134.140625 691.882812" fill="#8acfea"/></g><g id="change2_4"><path d="M 1793.730469 649.550781 C 1795.714844 648.710938 1797.664062 647.679688 1799.613281 646.539062 C 1799.683594 647.398438 1799.753906 648.261719 1799.820312 649.121094 C 1797.972656 648.628906 1795.910156 648.699219 1793.730469 649.550781 Z M 1868.582031 577.117188 C 1836.132812 571.320312 1795.691406 578.171875 1764.011719 576.910156 C 1710.175781 574.757812 1656.359375 572.210938 1602.507812 570.109375 C 1508.183594 566.425781 1414.304688 570.335938 1320.207031 574.863281 C 1318.867188 575.378906 1317.570312 575.988281 1316.183594 576.421875 C 1298.875 581.808594 1281.1875 581.992188 1264.351562 577.535156 C 1152.375 582.808594 1040.363281 580.8125 928.335938 584.289062 C 908.996094 584.886719 889.652344 585.640625 870.308594 586.394531 C 862.507812 590.429688 853.363281 593.1875 842.609375 593.90625 C 816.402344 595.667969 778.0625 599.492188 736.976562 600.410156 C 692.144531 607.160156 646.914062 615.363281 603.835938 612.796875 C 603.710938 648.96875 604.308594 685.097656 606.167969 721.183594 C 606.328125 731.433594 606.484375 741.683594 606.644531 751.929688 C 666.738281 755.066406 725.945312 766.867188 785.304688 777.734375 C 781.46875 774.136719 777.730469 770.421875 774.25 766.410156 C 765.25 756.027344 757.519531 744.585938 750.960938 732.492188 C 752.277344 713.101562 752.570312 693.519531 753.007812 674.441406 C 753.292969 661.871094 807.902344 636.933594 818.226562 634.492188 C 825.390625 632.792969 832.765625 632.222656 840.105469 631.660156 C 929.84375 624.746094 1019.84375 627.410156 1109.972656 627.511719 C 1149.691406 627.558594 1196.117188 621.671875 1235.300781 630.941406 C 1267.183594 638.476562 1282.644531 659.332031 1291.914062 684.617188 C 1292.519531 693.808594 1292.714844 702.765625 1292.578125 711.140625 C 1292.417969 721.722656 1292.199219 732.171875 1292.0625 742.574219 C 1263.9375 773.695312 1219.757812 788.828125 1170.691406 796.980469 C 1288.769531 792.972656 1406.929688 786.558594 1524.367188 774.476562 C 1524.378906 774.484375 1524.378906 774.5 1524.390625 774.507812 C 1524.402344 774.515625 1524.402344 774.519531 1524.414062 774.527344 C 1527.488281 774.210938 1530.539062 773.851562 1533.601562 773.523438 C 1541.238281 772.71875 1548.867188 771.882812 1556.480469 771.027344 C 1558.410156 770.8125 1560.347656 770.617188 1562.273438 770.398438 C 1562.285156 770.386719 1562.296875 770.371094 1562.308594 770.359375 C 1652.632812 760.070312 1742.484375 746.226562 1831.429688 727.160156 C 1851.367188 688.167969 1866.527344 642.507812 1869.511719 598.007812 C 1869.542969 591.058594 1869.085938 584.089844 1868.582031 577.117188" fill="#8acfea"/></g><g id="change2_5"><path d="M 638.9375 660.285156 C 638.976562 648.78125 639.496094 637.292969 640.566406 625.804688 C 639.371094 626.054688 638.183594 626.386719 636.988281 626.625 C 635.589844 624.007812 637.46875 586.03125 633.535156 586.109375 C 601.699219 586.765625 567.402344 593.101562 536.695312 588.472656 C 501.390625 580.5625 451.050781 567.863281 420.960938 550.679688 C 386.117188 530.78125 367.933594 520.613281 335.515625 519.066406 C 336 534.390625 342.128906 558.300781 341.105469 573.507812 C 365.296875 594.242188 400.804688 606.363281 434.113281 614.65625 C 483.4375 626.933594 524.570312 640.609375 575.335938 639.289062 C 574.855469 664.730469 575.761719 714.210938 576.535156 739.632812 C 576.828125 749.148438 591.039062 749.164062 591.328125 739.632812 C 592.109375 714.070312 591.253906 688.417969 590.777344 662.832031 C 606.894531 662.234375 622.925781 661.242188 638.9375 660.285156" fill="#8acfea"/></g><g id="change3_1"><path d="M 253.179688 609.265625 C 277.433594 631.585938 301.457031 654.910156 326.722656 676.003906 C 328.613281 646.78125 330.261719 617.542969 331.367188 588.261719 C 332.804688 550.117188 335.429688 509.980469 335.511719 470.019531 C 321.203125 458.15625 308.757812 443.796875 295.503906 430.621094 C 286.363281 421.53125 276.660156 413.171875 266.546875 405.410156 C 264.390625 408.316406 263.023438 412.066406 263.011719 416.757812 C 262.992188 423.6875 262.902344 430.644531 262.851562 437.589844 C 262.476562 438.992188 262.214844 440.496094 262.074219 442.105469 C 261.082031 453.679688 255.945312 435.582031 255.128906 447.160156 C 247.632812 443.832031 238.339844 444.5 230.496094 442.234375 C 216.570312 436.535156 208.570312 457.460938 194.648438 451.757812 C 177.445312 439.71875 166.121094 423.101562 149.429688 406.601562 C 121.800781 379.292969 84.574219 361.394531 45.40625 365.851562 C 43.363281 366.085938 42.710938 368.933594 44.898438 369.59375 C 72.675781 377.972656 99.664062 385.191406 123.078125 403.074219 C 147.613281 421.8125 144.066406 433.003906 164.308594 456.207031 C 173.421875 466.660156 206.585938 489.953125 217.296875 498.507812 C 222.269531 502.484375 256.859375 517.484375 256.539062 523.523438 C 255.027344 552.085938 253.988281 580.671875 253.179688 609.265625" fill="#78b3d6"/></g><g id="change3_2"><path d="M 1340.148438 613.359375 C 1339.488281 612.996094 1338.820312 612.675781 1338.160156 612.320312 C 1339.410156 603.40625 1331.730469 595.941406 1322.398438 593.90625 C 1314.75 592.238281 1306.039062 592.648438 1297.449219 593.894531 C 1294.71875 592.296875 1291.808594 590.863281 1288.578125 589.746094 C 1284.78125 588.429688 1281.769531 593.527344 1284.199219 596.394531 C 1283.140625 596.632812 1282.078125 596.867188 1281.058594 597.109375 C 1221.46875 583.460938 1164.359375 592.832031 1104.679688 603.652344 C 1081.941406 607.773438 1059.460938 609.820312 1037.070312 610.800781 C 1064.441406 604.152344 1091.28125 594.757812 1117.320312 581.269531 C 1123.558594 578.035156 1118.921875 569.640625 1112.851562 570.664062 C 1048.761719 581.480469 988.261719 600.59375 923.910156 609.0625 C 907.667969 608.308594 891.355469 607.546875 874.871094 607.066406 C 871.621094 606.972656 870.160156 610.777344 871.363281 613.167969 C 815.863281 614.308594 758.445312 607.269531 705.121094 622.824219 C 697.214844 625.128906 700.753906 635.8125 708.421875 634.78125 C 783.691406 624.628906 862.300781 629.59375 939.152344 624.6875 C 983.507812 629.550781 1028.449219 630.667969 1072.378906 625.648438 C 1140.429688 617.863281 1202.609375 606.878906 1270.589844 608.851562 C 1271.570312 612.136719 1274.210938 614.933594 1278.378906 614.976562 C 1285.859375 615.046875 1293.199219 615.878906 1300.460938 617.066406 C 1324 658.140625 1314.441406 716.65625 1322.980469 762.113281 C 1324 767.503906 1331.828125 765.859375 1332.121094 760.878906 C 1334.339844 722.457031 1333.210938 679.011719 1325.820312 641.144531 C 1324.488281 634.277344 1322.550781 627.652344 1320 621.449219 C 1324.921875 622.910156 1329.800781 624.5625 1334.621094 626.464844 C 1342.238281 629.472656 1347.160156 617.214844 1340.148438 613.359375" fill="#78b3d6"/></g><g id="change2_6"><path d="M 1637.234375 270.9375 C 1633.234375 208.828125 1637.113281 146.535156 1627.0625 84.875 C 1626.4375 81.050781 1626.386719 77.429688 1626.628906 73.9375 C 1567.953125 17.363281 1461.234375 73.882812 1418.597656 125.65625 C 1394.007812 155.507812 1369.507812 185.4375 1345.101562 215.441406 C 1338.425781 223.65625 1331.550781 232.300781 1329.363281 242.660156 C 1323.394531 271.054688 1353.5 292.761719 1379.378906 305.882812 C 1461.0625 347.292969 1543.785156 386.671875 1627.425781 423.964844 C 1632.347656 407.925781 1637.992188 386.773438 1643.367188 362.824219 C 1641.703125 332.214844 1639.210938 301.628906 1637.234375 270.9375" fill="#8acfea"/></g><g id="change3_3"><path d="M 1575.976562 325.519531 C 1575.476562 286.988281 1572.6875 246.933594 1580.082031 209.800781 C 1583.953125 190.285156 1588.6875 166.390625 1597.777344 148.585938 C 1606.472656 131.535156 1623.921875 120.984375 1632.445312 103.742188 C 1633.371094 101.882812 1633.421875 99.777344 1632.929688 97.835938 C 1633.589844 95.46875 1634.113281 92.996094 1634.421875 90.304688 C 1635.214844 83.285156 1623.941406 82.011719 1622.246094 88.660156 C 1621.84375 90.207031 1621.363281 91.703125 1620.800781 93.15625 C 1601.828125 100.066406 1583.863281 112.015625 1565.914062 123.664062 C 1565.203125 121.839844 1564.449219 120.039062 1563.578125 118.308594 C 1563.277344 116.242188 1562.964844 114.175781 1562.664062 112.109375 C 1532.828125 128.179688 1502.984375 144.261719 1474.332031 162.449219 C 1479.691406 198.582031 1485.519531 234.613281 1490.535156 270.742188 C 1520.117188 287.160156 1548.019531 306.015625 1575.976562 325.519531" fill="#78b3d6"/></g><g id="change3_4"><path d="M 1653.441406 654.648438 C 1653.613281 652.539062 1653.828125 650.433594 1653.980469 648.324219 C 1654.519531 640.933594 1641.992188 639.082031 1640.886719 646.554688 C 1640.4375 649.566406 1640.082031 652.59375 1639.667969 655.609375 C 1639.261719 656.46875 1638.933594 657.402344 1638.824219 658.496094 C 1638.082031 666.03125 1637.117188 673.523438 1636.210938 681.027344 C 1635.875 683.683594 1635.550781 686.339844 1635.238281 688.996094 C 1629.628906 715.214844 1620.199219 740.4375 1608.386719 764.632812 C 1621.347656 762.96875 1634.300781 761.238281 1647.246094 759.414062 C 1653.503906 726.226562 1655.980469 692.742188 1654.558594 658.496094 C 1654.5 656.949219 1654.050781 655.71875 1653.441406 654.648438" fill="#78b3d6"/></g><g id="change3_5"><path d="M 1418.460938 671.859375 C 1417.960938 686.851562 1417.128906 705.859375 1417.660156 725.621094 C 1416.96875 745.054688 1416.519531 764.480469 1418.03125 783.804688 C 1426.660156 783.148438 1435.289062 782.527344 1443.910156 781.816406 C 1434.210938 746.324219 1432.898438 709.066406 1431.238281 671.859375 C 1430.878906 663.679688 1418.191406 663.609375 1418.460938 671.859375" fill="#78b3d6"/></g><g id="change3_6"><path d="M 1793.722656 649.550781 C 1795.707031 648.710938 1797.65625 647.679688 1799.605469 646.539062 C 1799.671875 647.398438 1799.742188 648.261719 1799.8125 649.125 C 1797.964844 648.628906 1795.890625 648.699219 1793.722656 649.550781 Z M 1294.144531 597.847656 C 1301.367188 598.398438 1308.535156 598.816406 1315.378906 599.644531 C 1316.171875 600.8125 1316.949219 602.011719 1317.730469 603.191406 C 1309.875 601.164062 1302.023438 599.359375 1294.144531 597.847656 Z M 1868.605469 602.09375 C 1868.273438 600.304688 1866.933594 598.460938 1865.292969 597.125 C 1864.882812 594.382812 1864.351562 591.648438 1863.917969 588.90625 C 1826.617188 593.691406 1591.691406 579.539062 1512.230469 583.484375 C 1516.230469 582.5625 1520.277344 581.566406 1524.292969 580.632812 C 1510.933594 579.316406 1282.183594 578.976562 1238.902344 581.738281 C 1237.847656 581.96875 1085.125 594.574219 1033.535156 595.730469 C 994.429688 601.203125 955.3125 606.589844 916.128906 611.46875 C 841.992188 620.710938 774.472656 618.851562 700.742188 609.511719 C 677.394531 606.554688 653.234375 604.550781 631.335938 598.300781 C 629.675781 641.066406 629.285156 683.808594 629.535156 726.664062 C 629.585938 735.339844 629.328125 744.328125 629.054688 753.453125 C 651.46875 755.378906 673.777344 758.371094 696.035156 761.898438 C 696.417969 726.027344 696.988281 690.175781 698.105469 654.347656 C 731.683594 640.539062 765.964844 630.167969 801.441406 623.28125 C 872.796875 621.53125 944.15625 619.789062 1015.515625 618.035156 C 1120.90625 615.445312 1226.414062 612.253906 1331.03125 627.25 C 1331.71875 628.832031 1332.441406 630.371094 1333.039062 632.007812 C 1336.601562 641.683594 1338.863281 651.503906 1340.652344 661.382812 C 1340.226562 670.671875 1339.789062 678.863281 1339.871094 684.707031 C 1340.410156 718.949219 1340.996094 753.1875 1341.671875 787.429688 C 1341.683594 788.03125 1341.773438 788.5625 1341.820312 789.132812 C 1365.164062 787.734375 1388.488281 786.144531 1411.785156 784.40625 C 1412.234375 760.332031 1412.679688 736.25 1413.140625 712.171875 C 1413.621094 685.871094 1408.828125 644.179688 1421.164062 618.214844 C 1462.582031 607.359375 1504.101562 604.859375 1545.6875 605.96875 C 1545.941406 606.066406 1546.144531 606.230469 1546.445312 606.28125 C 1589.351562 613.558594 1632.863281 619.292969 1676.550781 623.5 C 1699.035156 627.960938 1721.75 631.167969 1744.476562 634.394531 C 1744.121094 654.4375 1749.472656 732.566406 1749.636719 734.410156 C 1729.71875 738.65625 1707.886719 741.261719 1691.695312 752.886719 C 1736.347656 745.882812 1780.8125 737.789062 1825.070312 728.429688 C 1828.121094 726.242188 1831.171875 723.929688 1834.164062 721.511719 C 1836.457031 716.835938 1838.453125 711.875 1840.59375 707.046875 C 1840.59375 707.328125 1840.59375 707.609375 1840.59375 707.890625 C 1841.949219 704.867188 1843.074219 701.6875 1844.355469 698.609375 C 1845.617188 695.582031 1846.84375 692.582031 1848.039062 689.503906 C 1850.421875 683.320312 1852.566406 677.058594 1854.617188 670.71875 C 1855.386719 668.40625 1856.339844 666.183594 1857.039062 663.851562 C 1856.96875 663.835938 1856.902344 663.867188 1856.84375 663.851562 C 1862.75 644.308594 1867.128906 624.296875 1868.972656 604.367188 C 1868.835938 603.605469 1868.757812 602.859375 1868.605469 602.09375" fill="#78b3d6"/></g><g clip-path="url(#c)" id="change4_5"><path d="M 1868.894531 571.605469 C 1861.316406 559.507812 1853.96875 547.253906 1846.886719 534.832031 C 1828.148438 504.570312 1810.503906 473.691406 1794.925781 441.613281 C 1774.375 414.007812 1755.332031 385.753906 1739.050781 355.425781 C 1708.695312 341.90625 1675.792969 332.589844 1644.808594 320.230469 C 1606.222656 304.847656 1569.785156 284.101562 1536.871094 258.773438 C 1522.21875 247.507812 1507.90625 234.886719 1499.628906 218.367188 C 1491.339844 201.851562 1490.246094 180.578125 1501.269531 165.742188 C 1508.132812 156.492188 1518.671875 150.816406 1528.867188 145.429688 C 1559.921875 129.023438 1590.988281 112.621094 1622.042969 96.210938 C 1625.980469 94.128906 1630.238281 91.710938 1631.8125 87.542969 C 1633.730469 82.53125 1631.03125 77.003906 1628 72.589844 C 1613.285156 51.1875 1582.835938 38.816406 1556.867188 39.328125 C 1307.191406 44.253906 1058.761719 -5.917969 809.125 0.582031 C 728.445312 2.683594 647.964844 11 568.460938 24.878906 C 567.246094 28.453125 565.765625 31.941406 563.984375 35.273438 C 561.46875 39.96875 558.164062 44.171875 555.578125 48.808594 C 552.800781 54.214844 549.304688 59.207031 544.886719 63.660156 L 542.949219 65.152344 C 543.015625 65.429688 542.972656 65.710938 543.054688 65.984375 C 520.167969 85.324219 490.777344 100.414062 460.726562 111.589844 C 459.589844 112.019531 458.457031 112.449219 457.320312 112.878906 C 454.742188 114.4375 451.910156 115.808594 448.796875 116.929688 C 439.761719 120.191406 430.679688 123.316406 421.59375 126.421875 C 333.359375 159.886719 246.382812 193.636719 161.9375 236.683594 C 116.792969 259.699219 9.976562 304.449219 7.53125 309.644531 C -24.898438 378.523438 54.875 378.339844 104.480469 395.265625 C 127.367188 403.070312 152.113281 413.71875 162.171875 435.707031 C 205.363281 456.078125 253.539062 472.664062 300.96875 478.207031 C 312.03125 503.8125 324.695312 530.050781 341.601562 552.371094 C 339.109375 577.886719 339.355469 603.875 342.039062 629.296875 C 342.019531 632.980469 342.105469 636.632812 342.160156 640.296875 C 341.769531 649.605469 341.757812 658.925781 343.546875 667.867188 C 343.953125 672.492188 344.433594 677.09375 345.027344 681.660156 C 347.511719 683.925781 349.988281 686.203125 352.378906 688.511719 C 354.039062 690.113281 355.71875 691.683594 357.375 693.289062 C 363.964844 657.519531 362.085938 618.867188 360.203125 580.96875 C 360.421875 575.175781 360.527344 569.390625 360.480469 563.617188 C 436.851562 589.210938 509.417969 606.9375 590.308594 615.699219 C 891.855469 648.363281 1195.328125 561.484375 1498.078125 580.046875 C 1543.277344 582.820312 1588.371094 587.941406 1633.660156 588.035156 C 1714.09375 588.207031 1792.445312 611.707031 1871.351562 596.105469 C 1870.664062 588 1869.824219 579.8125 1868.894531 571.605469" fill="#dff3fe"/></g><g id="change5_1"><path d="M 1409.851562 99.257812 C 1383.359375 63.234375 1346.449219 55.753906 1303.628906 52.585938 C 1228.691406 47.039062 1153.25 45.164062 1078.148438 42.878906 C 927.855469 38.308594 777.023438 35.789062 626.785156 43.363281 C 619.621094 43.722656 614.640625 47.257812 611.816406 51.984375 C 599.34375 51.960938 586.859375 59.9375 586.980469 75.9375 C 587.160156 99.28125 587.3125 122.625 587.453125 145.96875 C 527.738281 140.820312 465.664062 172.359375 410.902344 191.132812 C 328.773438 219.285156 242.277344 242.445312 162.382812 276.324219 C 130.894531 289.675781 87.257812 327.578125 121.324219 362.761719 C 141.835938 383.941406 185.929688 395.738281 212.542969 407.390625 C 245.683594 421.898438 279.21875 435.65625 313.582031 447.011719 C 471.617188 499.234375 617.972656 464.976562 775.285156 428.996094 C 858.453125 409.972656 941.625 390.949219 1024.789062 371.921875 C 1066.359375 362.414062 1108.109375 353.4375 1149.550781 343.386719 C 1173.578125 337.558594 1199.671875 331.007812 1218.21875 313.460938 C 1261.351562 272.660156 1241.269531 219.636719 1191.671875 200.113281 C 1186.488281 198.078125 1177.960938 197.089844 1173.558594 193.773438 C 1163.628906 191.425781 1164.03125 190.117188 1174.78125 189.859375 C 1183.160156 188.617188 1191.519531 187.257812 1199.859375 185.773438 C 1219.328125 182.355469 1238.710938 178.410156 1257.96875 174.003906 C 1304.839844 163.28125 1350.730469 149.398438 1396.011719 133.273438 C 1408.671875 128.765625 1419.378906 112.214844 1409.851562 99.257812" fill="#eef7fe"/></g><g id="change2_7"><path d="M 744.667969 503.160156 C 708.234375 508.542969 671.433594 513.945312 634.710938 511.144531 C 619.140625 509.957031 603.539062 507.300781 588.003906 508.847656 C 553.339844 512.296875 524.421875 535.761719 492.328125 549.320312 C 474.300781 556.9375 419.636719 554.695312 399.089844 566.523438 C 394.730469 567.753906 390.425781 569.953125 387.167969 571.566406 C 384.4375 572.917969 383.664062 576.210938 384.171875 578.929688 C 385.371094 585.367188 389.453125 589.554688 395.074219 590.367188 C 410.988281 609.890625 469.886719 608.371094 486.753906 607.273438 C 490.886719 607.003906 495.128906 606.589844 498.824219 604.71875 C 502.726562 602.746094 505.667969 599.339844 508.851562 596.339844 C 540.273438 566.75 590.257812 578.207031 633.28125 574.777344 C 703.15625 569.203125 762.585938 520.222656 831.464844 507.207031 C 854.664062 502.824219 878.425781 502.636719 901.949219 500.59375 C 940.421875 497.257812 978.265625 488.953125 1015.980469 480.671875 C 1056.289062 471.820312 1096.960938 462.847656 1134.429688 445.554688 C 1004.511719 464.753906 874.589844 483.957031 744.667969 503.160156" fill="#8acfea"/></g><g id="change2_8"><path d="M 1665.113281 366.683594 C 1691.71875 367.488281 1718.816406 368.238281 1745.761719 367.269531 C 1743.523438 363.328125 1741.1875 359.441406 1739.046875 355.429688 C 1716.929688 345.582031 1693.484375 337.957031 1670.394531 329.769531 C 1585.300781 337.886719 1497.285156 341.820312 1413.929688 358.882812 C 1382.410156 365.332031 1366.066406 382.125 1339.140625 394.769531 C 1299.253906 413.492188 1243.230469 396.132812 1199.339844 408.027344 C 1193.265625 409.667969 1195.933594 418.207031 1201.886719 417.25 C 1241.707031 410.839844 1279.128906 424.347656 1317.28125 420.242188 C 1350 416.71875 1371.945312 385.8125 1404.140625 376.558594 C 1429.480469 369.28125 1456.800781 366.152344 1484.132812 363.9375 C 1543.179688 369.65625 1605.621094 364.886719 1665.113281 366.683594" fill="#8acfea"/></g><g clip-path="url(#d)" id="change4_4"><path d="M 1043.890625 645.804688 C 1043.398438 641.5625 1036.570312 639.613281 1035.660156 644.691406 C 1030.089844 676.109375 1031.328125 708.324219 1028.699219 740.101562 C 1027.050781 760.019531 1023.558594 780.097656 1021.261719 800.167969 C 1026.460938 800.179688 1031.660156 800.199219 1036.859375 800.167969 C 1038.238281 785.398438 1038.800781 770.488281 1039.800781 755.789062 C 1042.269531 719.359375 1048.070312 682.171875 1043.890625 645.804688" fill="#dff3fe"/></g><g id="change4_1"><path d="M 882.21875 736.109375 C 882.390625 712.816406 886.109375 685.027344 874.792969 663.863281 C 871.460938 657.628906 863.066406 662.214844 864.101562 668.371094 C 870.894531 708.78125 864.875 749.851562 863.933594 790.542969 C 868.765625 791.203125 873.582031 791.96875 878.421875 792.550781 C 879.394531 792.667969 880.367188 792.738281 881.339844 792.855469 C 882.515625 773.886719 882.082031 754.613281 882.21875 736.109375" fill="#dff3fe"/></g><g id="change4_2"><path d="M 386.910156 598.742188 C 386.859375 598.75 386.808594 598.757812 386.757812 598.765625 C 386.777344 592.277344 376.371094 591.09375 375.738281 598.742188 C 372.8125 634.28125 371.722656 672.222656 372.679688 710.03125 C 379.585938 714.40625 386.644531 718.472656 393.851562 722.25 C 392.847656 680.601562 390.441406 638.730469 386.910156 598.742188" fill="#dff3fe"/></g><g id="change4_3"><path d="M 1130.53125 645.84375 C 1130.300781 636.5625 1117.28125 636.929688 1116.371094 645.84375 C 1111.320312 695.316406 1104.878906 747.785156 1102.230469 799.046875 C 1109.269531 798.863281 1116.308594 798.679688 1123.351562 798.472656 C 1130.511719 747.695312 1131.730469 693.761719 1130.53125 645.84375" fill="#dff3fe"/></g></g></svg>