<?xml version="1.0" encoding="UTF-8"?><svg xmlns="http://www.w3.org/2000/svg" xmlns:xlink="http://www.w3.org/1999/xlink" height="1398.7" preserveAspectRatio="xMidYMid meet" version="1.0" viewBox="291.4 332.8 2337.5 1398.7" width="2337.5" zoomAndPan="magnify"><g><g id="change1_1"><path d="M 2100.109375 1421.957031 C 2099.710938 1422.539062 2098.351562 1414.398438 2099.023438 1412.65625 C 2120.519531 1356.507812 2096.902344 1309.066406 2097.757812 1254.21875 C 2097.496094 1270.789062 2089.21875 1288.226562 2077.746094 1303 C 2059.613281 1326.355469 2037.8125 1346.289062 2016.945312 1367.128906 C 1998.339844 1385.707031 1970.0625 1410.339844 1976.601562 1440.019531 C 1977.011719 1441.867188 1976.203125 1453.566406 1974.980469 1448.46875 C 1951.746094 1351.988281 2091.96875 1326.617188 2098.0625 1240.746094 C 2098.75 1231.148438 2101.46875 1243.707031 2101.4375 1246.898438 C 2100.875 1300.417969 2134.417969 1372.476562 2100.109375 1421.957031 Z M 1813.144531 1231.109375 C 1801.199219 1284.25 1766.476562 1346.160156 1713.128906 1366.667969 C 1712.902344 1366.738281 1712.640625 1366.328125 1712.398438 1365.628906 C 1711.679688 1366.207031 1711.023438 1366.859375 1710.273438 1367.417969 C 1709.128906 1368.269531 1708.515625 1359.386719 1709.449219 1357.878906 C 1709.921875 1357.15625 1710.320312 1356.4375 1710.761719 1355.71875 C 1710.546875 1351.558594 1710.960938 1347.570312 1712.640625 1346.546875 C 1714.335938 1345.527344 1715.941406 1344.398438 1717.621094 1343.339844 C 1749.808594 1278.597656 1725.71875 1215.488281 1728.46875 1144.867188 C 1730.652344 1088.316406 1754.757812 1051.65625 1806.40625 1026.746094 C 1807.597656 1026.175781 1808.300781 1037.894531 1807.109375 1039.546875 C 1765.207031 1097.078125 1827.535156 1167.097656 1813.144531 1231.109375 Z M 1227.164062 1479.699219 C 1226.0625 1482.21875 1224.945312 1471.296875 1225.554688 1469.21875 C 1241.03125 1416.738281 1252.382812 1361.238281 1239.171875 1306.886719 C 1231.671875 1276.128906 1218.574219 1250.078125 1204.191406 1222.207031 C 1190.0625 1194.867188 1175.332031 1167.847656 1161.164062 1140.546875 C 1170.234375 1177.808594 1175.09375 1215.867188 1172.832031 1255.898438 C 1169.613281 1312.597656 1147.332031 1373.199219 1121.101562 1423.1875 C 1120.535156 1424.277344 1119.195312 1415.027344 1119.304688 1413.859375 C 1123.304688 1371.457031 1146.382812 1333.878906 1157.394531 1293.21875 C 1179.632812 1211.167969 1152.523438 1134.316406 1122.222656 1058.804688 C 1119.875 1052.90625 1122.582031 1026.226562 1124.992188 1031.90625 C 1185.644531 1174.757812 1296.742188 1318.738281 1227.164062 1479.699219 Z M 792.425781 1368.71875 C 791.960938 1373.878906 790.15625 1370.457031 789.96875 1367.316406 C 787.597656 1331.128906 792.042969 1294.695312 788.402344 1258.578125 C 783.65625 1211.457031 760.875 1181.988281 739 1142.476562 C 729.492188 1125.289062 723.585938 1106.65625 723.628906 1087.886719 C 709.546875 1119.335938 700.082031 1152.925781 709.480469 1188.007812 C 713.632812 1203.476562 718.460938 1218.699219 724.007812 1233.71875 C 735 1263.488281 746.558594 1292.957031 753.550781 1323.976562 C 754.332031 1327.429688 752.59375 1347.667969 750.859375 1342.738281 C 717.296875 1247.289062 668.296875 1150.398438 730.085938 1055.578125 C 730.59375 1054.808594 733.007812 1067.585938 731.84375 1070.558594 C 712.089844 1120.847656 781.433594 1176.015625 789.671875 1225.746094 C 797.464844 1272.65625 796.640625 1321.46875 792.425781 1368.71875 Z M 770.066406 1492.949219 C 769.9375 1492.949219 769.9375 1492.230469 770.042969 1492.230469 C 770.171875 1492.230469 770.171875 1492.949219 770.066406 1492.949219 Z M 643.207031 1465.777344 C 590.222656 1463.929688 537.140625 1458.589844 490.089844 1434.46875 C 498.496094 1451.398438 507.730469 1467.609375 524.625 1478.976562 C 556.980469 1500.75 596.027344 1500.1875 622.21875 1531.359375 C 623.40625 1532.777344 624.402344 1544.9375 622.136719 1544.71875 C 591.621094 1541.6875 547.261719 1534.859375 523.375 1513.839844 C 493.117188 1487.199219 484.542969 1454.6875 466.667969 1419.679688 C 464.722656 1415.886719 465.949219 1392.769531 468.324219 1394.9375 C 515.519531 1438.25 583.660156 1442.859375 643.058594 1458.976562 C 644.308594 1459.316406 644.15625 1465.808594 643.207031 1465.777344 Z M 2403.3125 1515.398438 C 2362.585938 1512.160156 2328.519531 1497.089844 2290.679688 1482.988281 C 2259.441406 1471.378906 2219.785156 1454.917969 2187.703125 1471.910156 C 2187.0625 1472.25 2179.636719 1444.636719 2186.941406 1440.757812 C 2187.351562 1440.539062 2187.765625 1440.367188 2188.191406 1440.15625 C 2188.421875 1439.148438 2188.789062 1438.269531 2189.261719 1437.597656 C 2218.042969 1398.976562 2220.164062 1366.15625 2192.46875 1326.65625 C 2171.894531 1297.308594 2146.242188 1272.445312 2121.863281 1246.339844 C 2098.75 1221.578125 2077.210938 1196.6875 2062.683594 1168.675781 C 2062.957031 1171.675781 2063.15625 1174.625 2063.261719 1177.476562 C 2064.269531 1203.839844 2060.511719 1228.816406 2045.160156 1251.019531 C 1993.632812 1325.578125 1924.828125 1379.867188 1859.476562 1441.289062 C 1857.1875 1443.449219 1850.785156 1411.597656 1856.375 1404.886719 C 1892.6875 1361.457031 1903.914062 1317.136719 1887.984375 1261.457031 C 1879.566406 1232.175781 1868.398438 1203.6875 1860.316406 1174.347656 C 1849.011719 1133.347656 1844.796875 1090.15625 1845.726562 1047.699219 C 1846.875 995.046875 1854.726562 932.664062 1881.152344 883.648438 C 1864.609375 892.453125 1848.476562 902.183594 1832.5 912.285156 C 1799.699219 933.015625 1766.535156 954.285156 1740.136719 983.199219 C 1695.347656 1032.347656 1680.011719 1090.476562 1673.214844 1155.347656 C 1666.628906 1218.027344 1662.351562 1279.085938 1621.152344 1330.257812 C 1587.726562 1371.757812 1544.90625 1404.109375 1507.734375 1442.039062 C 1503.09375 1448.378906 1497.613281 1454.449219 1490.855469 1460.117188 C 1487.914062 1462.609375 1481.882812 1428.890625 1487.664062 1422.320312 C 1491.382812 1418.078125 1495.304688 1413.949219 1499.265625 1409.878906 C 1532.058594 1365.046875 1493.375 1298.507812 1471.015625 1243.476562 C 1472.035156 1287.988281 1465.195312 1334.347656 1438.023438 1367.226562 C 1393.773438 1420.796875 1300.394531 1429.378906 1287.285156 1506.976562 C 1284.292969 1524.75 1279.171875 1491.621094 1279.34375 1487.257812 C 1280.59375 1452.878906 1289.332031 1420.929688 1295.921875 1387.359375 C 1307.375 1328.816406 1291.542969 1268.058594 1270.421875 1213.40625 C 1244.59375 1146.527344 1212.984375 1083.195312 1172.792969 1023.886719 C 1125.042969 953.414062 1068.824219 869.382812 1079.191406 782.738281 C 1039.171875 837.929688 1007.183594 901.359375 1023.484375 971.5 C 1038.054688 1034.214844 1073.144531 1090.238281 1082.691406 1154.355469 C 1098.59375 1261.15625 1057.363281 1346.4375 999.304688 1432.835938 C 997.988281 1434.96875 996.59375 1437.089844 995.046875 1439.207031 C 994.496094 1439.9375 987.402344 1414.226562 992.296875 1406.96875 C 1013.34375 1378.527344 981.414062 1339.796875 968.726562 1312.949219 C 964.367188 1303.667969 960.722656 1294.410156 957.675781 1284.707031 C 957.566406 1285.898438 957.335938 1287.207031 956.785156 1288.71875 C 948.273438 1312.1875 934.804688 1333.230469 921.886719 1354.457031 C 912.507812 1369.859375 881.253906 1409.726562 889.320312 1427.480469 C 891.839844 1433.019531 888.472656 1458.066406 887.351562 1456.539062 C 824.78125 1371.898438 890.378906 1264.066406 856.5625 1172.847656 C 821.667969 1078.71875 744.675781 1010.828125 691.1875 927.820312 C 693.960938 966.800781 687.695312 1005.757812 675.242188 1043.558594 C 654.574219 1106.214844 606.125 1188.726562 630.859375 1254.9375 C 648.480469 1302.039062 671.792969 1348.4375 700.25 1389.917969 C 708.148438 1401.429688 720.003906 1419.707031 734.171875 1434.347656 C 742.578125 1440.238281 750.730469 1446.519531 758.714844 1453.078125 C 768.03125 1457.5 777.8125 1458.9375 787.789062 1455.15625 C 789.671875 1454.4375 795.941406 1484.859375 788.570312 1487.71875 C 767.863281 1495.800781 747.21875 1481.71875 730.234375 1463.539062 C 638.015625 1406.226562 532.226562 1384.777344 429.230469 1351.019531 C 392.050781 1338.828125 351.097656 1322.507812 327.085938 1289.695312 C 316.160156 1274.777344 308.640625 1258.648438 303.285156 1241.757812 C 306.949219 1284.808594 314.230469 1327.609375 332.867188 1366.617188 C 358.742188 1420.777344 400.519531 1467.398438 449.074219 1502.527344 C 554.480469 1578.789062 673.652344 1584.546875 796.574219 1562.308594 C 803.605469 1560.558594 810.722656 1559.078125 818.003906 1558.179688 C 822.132812 1557.679688 824.886719 1588.929688 818.789062 1590.1875 C 811.714844 1591.640625 804.621094 1592.988281 797.550781 1594.257812 C 752.085938 1605.546875 711.917969 1634.246094 683.097656 1671.507812 C 706.855469 1656.800781 732.796875 1646.527344 761.382812 1640.796875 C 803.644531 1632.339844 849.808594 1631.71875 888.539062 1611.1875 C 923.773438 1592.507812 962.648438 1558.25 1004.722656 1559.40625 C 1053.933594 1560.777344 1093.703125 1588.867188 1138.613281 1605.230469 C 1238.644531 1641.648438 1331.394531 1639.140625 1432.164062 1606.867188 C 1519.382812 1578.929688 1605.796875 1536.828125 1698.191406 1528.867188 C 1791.832031 1520.789062 1870.292969 1553.726562 1951.242188 1597.167969 C 2028.171875 1638.4375 2107.03125 1682.039062 2196.914062 1680.289062 C 2324.824219 1677.800781 2424.777344 1601.816406 2490.035156 1500.21875 C 2465.871094 1512.917969 2436.066406 1518 2403.3125 1515.398438" fill="#ed591b"/></g><g id="change2_1"><path d="M 742.597656 1503.519531 C 737.769531 1491.828125 725.679688 1487.210938 714.519531 1493.539062 C 713.886719 1493.890625 713.335938 1494.300781 712.722656 1494.671875 C 713.757812 1492.660156 714.710938 1490.761719 715.792969 1488.671875 C 724.917969 1471.21875 702.664062 1454.640625 688.328125 1465.140625 C 689.003906 1450.351562 670.136719 1439.089844 656.097656 1451.828125 C 654.617188 1453.179688 653.410156 1454.738281 651.992188 1456.121094 C 655.90625 1439.210938 635.242188 1423.460938 620.800781 1439.050781 C 610.171875 1450.53125 600.410156 1462.898438 590.328125 1474.910156 C 595.984375 1464.148438 602.484375 1453.648438 608.476562 1443.050781 C 618.832031 1424.660156 593.441406 1411.078125 579.828125 1423.699219 C 572.140625 1430.820312 565.238281 1438.570312 558.691406 1446.601562 C 559.308594 1445.460938 559.839844 1444.328125 560.472656 1443.171875 C 571.675781 1422.691406 541.015625 1408.730469 528.796875 1427.320312 C 528.308594 1428.058594 527.84375 1428.800781 527.355469 1429.53125 C 523.945312 1425.078125 518.164062 1422.519531 512.046875 1422.691406 C 512.722656 1421.230469 513.378906 1419.828125 514.058594 1418.359375 C 521.933594 1406.210938 502.539062 1393.871094 493.414062 1404.410156 C 483.925781 1415.398438 476.175781 1426.488281 469.90625 1438.011719 C 471.515625 1431.53125 473.191406 1427.359375 474.503906 1425.078125 C 472.726562 1426.371094 469.71875 1427.800781 465.101562 1428.738281 C 468.597656 1423.011719 472.472656 1416.699219 477.953125 1409.910156 C 481.957031 1404.960938 476.261719 1398.898438 470.902344 1401.738281 C 459.871094 1407.601562 451.910156 1415.570312 446.128906 1424.890625 C 447.1875 1420.988281 447.910156 1417.011719 449.113281 1413.160156 C 449.855469 1409.269531 448.691406 1406.761719 446.59375 1404.949219 C 447.757812 1402.421875 448.734375 1400.339844 449.539062 1398.949219 C 452.269531 1394.210938 446.277344 1390.03125 442.128906 1392.339844 C 435.753906 1395.898438 431.03125 1399.671875 427.15625 1403.800781 C 426.226562 1404 425.570312 1403.980469 424.550781 1404.21875 C 431.664062 1394.519531 420.65625 1378.628906 409.75 1387.070312 C 408.417969 1388.101562 407.210938 1389.238281 405.960938 1390.339844 C 406.894531 1382.28125 406.257812 1371.011719 396.367188 1370.839844 C 387.199219 1370.679688 383.21875 1382 380.65625 1389.5 C 380.613281 1387.929688 380.570312 1386.339844 380.550781 1384.78125 C 380.445312 1374.378906 382.964844 1364.449219 375.234375 1356.460938 C 374.113281 1355.320312 372.671875 1354.980469 371.191406 1354.988281 C 370.683594 1350.328125 370.027344 1345.699219 369.390625 1341.308594 C 369.347656 1340.949219 369.15625 1340.710938 369.074219 1340.378906 C 368.945312 1339.839844 368.757812 1339.378906 368.542969 1338.910156 C 368.332031 1338.449219 368.164062 1338 367.867188 1337.621094 C 367.464844 1337.019531 366.976562 1336.53125 366.429688 1336.070312 C 366.214844 1335.898438 366.046875 1335.699219 365.832031 1335.558594 C 362.785156 1333.398438 358.550781 1333.238281 355.839844 1335.589844 C 355.351562 1335.941406 354.929688 1336.320312 354.570312 1336.789062 C 353.804688 1337.78125 353.40625 1339.03125 353.339844 1340.519531 C 351.625 1352.410156 349.59375 1365.28125 351.859375 1377.160156 C 352.304688 1379.488281 353.996094 1381.25 356.050781 1382.449219 C 356.03125 1382.570312 356.011719 1382.710938 356.011719 1382.828125 C 354.527344 1394.769531 353.234375 1406.851562 362.085938 1415.929688 C 365.453125 1419.390625 371.085938 1418.320312 374.15625 1415.179688 C 374.410156 1414.929688 374.472656 1414.601562 374.726562 1414.328125 C 374.664062 1418.570312 375.152344 1422.789062 377.269531 1426.949219 C 379.832031 1431.980469 386.945312 1433.390625 392.046875 1431.171875 C 393.636719 1434.269531 395.710938 1437.351562 398.910156 1440.351562 C 403.039062 1444.21875 406.957031 1445.929688 410.660156 1446.328125 C 412.929688 1452.859375 419.597656 1458.300781 426.417969 1457.398438 C 429.570312 1456.980469 432.175781 1456.308594 434.757812 1455.628906 C 433.339844 1462.828125 432.492188 1470.300781 432.046875 1477.851562 C 431.371094 1488.730469 442.71875 1494.210938 451.972656 1492.351562 C 451.273438 1497.058594 450.746094 1501.878906 450.363281 1506.839844 C 449.6875 1515.730469 455.828125 1520.671875 463.070312 1521.980469 C 464.019531 1527.339844 467.199219 1532.128906 472.363281 1534.738281 C 474.503906 1535.808594 476.664062 1536.890625 478.800781 1537.96875 C 482.738281 1539.949219 487.824219 1540.148438 492.332031 1538.808594 C 495.785156 1551.960938 511.074219 1557.941406 522.78125 1546.910156 C 528.667969 1541.378906 533.960938 1535.421875 539.085938 1529.308594 C 539.128906 1530.441406 538.980469 1531.488281 539.042969 1532.640625 C 539.847656 1546.398438 555.878906 1555.140625 567.589844 1547.191406 C 569.027344 1546.230469 570.171875 1544.988281 571.546875 1543.988281 C 571.292969 1550.96875 575.191406 1557.890625 581.457031 1561 C 583.597656 1562.070312 585.757812 1563.128906 587.894531 1564.199219 C 595.878906 1568.160156 603.605469 1565.550781 609.832031 1559.949219 C 611.972656 1558.011719 613.769531 1555.78125 615.800781 1553.761719 C 620.757812 1562.300781 631.496094 1566.578125 641.742188 1560.328125 C 648.011719 1556.511719 653.769531 1552.21875 659.382812 1547.808594 C 663.339844 1558.140625 675.410156 1563.511719 686.738281 1557.078125 C 698.363281 1550.488281 708.761719 1542.390625 719.582031 1534.820312 C 737.917969 1555.121094 766.570312 1560.609375 795.40625 1551.140625 C 804.40625 1548.191406 804.40625 1536.699219 796.871094 1532.210938 C 782.574219 1523.710938 749.3125 1519.878906 742.597656 1503.519531" fill="#f4711f"/></g><g id="change2_2"><path d="M 474.503906 1425.078125 C 478.039062 1422.550781 477.003906 1420.75 474.503906 1425.078125" fill="#f4711f"/></g><g id="change2_3"><path d="M 635.875 1236.621094 C 630.242188 1251.769531 630.140625 1265.519531 640.109375 1274.328125 C 642.949219 1276.871094 645.46875 1277.511719 647.714844 1276.988281 C 641.871094 1290.261719 639.308594 1303.25 647.269531 1310.300781 C 664.949219 1325.949219 677.613281 1275.839844 682.546875 1266.839844 C 691.777344 1250 703.425781 1234.621094 714.753906 1219.191406 C 720.726562 1211.070312 729.683594 1201.851562 730.953125 1191.449219 C 731.183594 1189.398438 729.890625 1187.820312 727.816406 1187.769531 C 705.585938 1187.261719 683.476562 1222.191406 672.171875 1237.289062 C 669.777344 1240.5 665.796875 1245.890625 661.5 1252.320312 C 663.445312 1245.058594 664.84375 1238.429688 665.925781 1236.160156 C 674.011719 1219.261719 687.035156 1204.75 699.339844 1190.839844 C 708.316406 1180.679688 722.015625 1170.980469 727.5 1158.441406 C 730.019531 1152.738281 725.128906 1148 719.496094 1149.070312 C 703.871094 1152.03125 673.523438 1177.839844 652.964844 1206.128906 C 657.433594 1194.328125 664.292969 1183.75 671.789062 1173.421875 C 688.007812 1151.03125 707.871094 1131.519531 724.027344 1109.03125 C 729.636719 1101.21875 718.863281 1091.140625 712.59375 1098.929688 C 705.480469 1107.800781 681.445312 1129.390625 660.3125 1153.429688 C 663.300781 1147.519531 665.988281 1141.539062 668.996094 1136.769531 C 679.984375 1119.421875 694.003906 1104.230469 705.859375 1087.53125 C 711.449219 1079.699219 702.960938 1067.230469 694.023438 1073.808594 C 677.421875 1086.03125 664.589844 1102.609375 652.519531 1119.179688 C 642.675781 1132.710938 621.582031 1157.28125 633.355469 1174.488281 C 634.710938 1176.449219 637.253906 1177.480469 639.558594 1176.691406 C 640.769531 1176.261719 641.828125 1175.589844 642.929688 1174.980469 C 625.183594 1199.578125 616.207031 1223.578125 635.875 1236.621094" fill="#f4711f"/></g><g id="change2_4"><path d="M 667.511719 1326.539062 C 666.347656 1332.738281 670.285156 1340.539062 677.144531 1341.308594 C 676.152344 1340.230469 675.136719 1339.148438 674.140625 1338.058594 C 677.507812 1342.378906 683.753906 1344.71875 688.664062 1341.121094 C 688.855469 1340.988281 689.027344 1340.828125 689.195312 1340.699219 C 685.34375 1349.738281 682.695312 1357.328125 681.953125 1361.578125 C 680.089844 1372.5 689.660156 1380.539062 700.101562 1377.96875 C 704.335938 1376.921875 708.359375 1375.289062 712.210938 1373.238281 C 710.558594 1377.890625 708.632812 1382.378906 707.40625 1387.238281 C 704.292969 1399.519531 719.136719 1409.109375 729.34375 1402.351562 C 729.195312 1402.738281 729.003906 1403.140625 728.855469 1403.53125 C 724.894531 1414.359375 736.648438 1430.269531 748.125 1420.730469 C 751.449219 1417.96875 755.046875 1415.839844 758.648438 1413.660156 C 757.144531 1419.628906 756.277344 1425.761719 756.488281 1432.359375 C 756.679688 1438.679688 764.40625 1440.710938 768.472656 1436.578125 C 780.542969 1424.359375 779.503906 1412.910156 780.773438 1396.269531 C 781.15625 1391.53125 774.910156 1387.289062 770.613281 1389.210938 C 768.386719 1390.199219 766.039062 1390.929688 763.6875 1391.589844 C 769.660156 1378.660156 774.910156 1365.5 775.121094 1351.371094 C 775.1875 1347.230469 770.167969 1345.300781 766.992188 1347.320312 C 766.949219 1347.261719 766.90625 1347.199219 766.84375 1347.140625 C 766.503906 1347.390625 766.25 1347.738281 765.910156 1347.980469 C 765.867188 1348.03125 765.804688 1348.019531 765.761719 1348.078125 C 765.65625 1348.210938 765.53125 1348.300781 765.425781 1348.441406 C 760.660156 1352.050781 756.363281 1356.289062 752.421875 1360.96875 C 750.21875 1362.699219 747.976562 1364.359375 745.625 1365.769531 C 755.640625 1344.351562 768.472656 1324.359375 770.316406 1299.988281 C 770.570312 1296.460938 766.019531 1295.679688 763.941406 1297.808594 C 763.859375 1297.769531 763.792969 1297.710938 763.730469 1297.671875 C 750.625 1309.511719 739.167969 1322.660156 729.722656 1337.058594 C 726.167969 1339.308594 722.691406 1341.679688 718.671875 1343.421875 C 731.925781 1317.191406 753.207031 1293.308594 756.171875 1265.320312 C 756.277344 1264.28125 755.960938 1262.910156 754.835938 1262.519531 C 738.089844 1256.648438 715.261719 1288.898438 699.59375 1318.800781 C 699.421875 1318.839844 699.253906 1318.871094 699.085938 1318.898438 C 709.90625 1297.308594 719.875 1274.699219 734.359375 1255.621094 C 741.984375 1245.570312 749.734375 1231.808594 752.105469 1219.371094 C 752.464844 1217.53125 751.871094 1215.320312 750.582031 1213.808594 C 750.179688 1212.730469 749.3125 1212.03125 748.125 1211.808594 C 748.082031 1211.710938 748.0625 1211.628906 748.019531 1211.53125 C 736.203125 1209.53125 724.132812 1230.589844 717.90625 1238.488281 C 698.109375 1263.570312 673.566406 1294.609375 667.511719 1326.539062" fill="#f4711f"/></g><g id="change2_5"><path d="M 1321.878906 1497.609375 C 1324.648438 1491.53125 1327 1485.308594 1328.589844 1478.921875 C 1330.839844 1469.851562 1317.941406 1464.46875 1312.878906 1471.160156 C 1306.929688 1476.390625 1301.398438 1482.371094 1296.171875 1488.738281 C 1292.679688 1481.121094 1280.78125 1477.398438 1274.910156 1484.808594 C 1271.039062 1489.671875 1267.609375 1494.800781 1263.96875 1499.828125 C 1260.28125 1495.691406 1252.46875 1494.980469 1248 1499.53125 C 1247.890625 1499.410156 1247.808594 1499.308594 1247.71875 1499.199219 C 1242.539062 1505.371094 1236.898438 1512.449219 1231.359375 1519.980469 C 1231.5 1518.410156 1231.800781 1516.769531 1231.859375 1515.230469 C 1232.199219 1506.230469 1218.648438 1504.558594 1215.519531 1511.859375 C 1206.878906 1523.480469 1200.25 1536.289062 1192.941406 1548.769531 C 1183.351562 1565.171875 1172.300781 1580.910156 1168.53125 1599.769531 C 1165.898438 1612.960938 1182.320312 1620.738281 1191.308594 1611.21875 C 1193.960938 1608.429688 1196.5 1605.710938 1199 1602.988281 C 1199.191406 1605.058594 1199.058594 1607.160156 1199.46875 1609.179688 C 1200.609375 1614.871094 1206.140625 1617.339844 1211.371094 1616.859375 C 1211.390625 1616.96875 1211.390625 1617.070312 1211.390625 1617.179688 C 1214.160156 1632.109375 1236.691406 1628.980469 1239.441406 1615.75 C 1240.378906 1611.351562 1241.578125 1607.058594 1242.851562 1602.78125 C 1244.378906 1607.820312 1247.238281 1612.378906 1252.488281 1615.828125 C 1252.929688 1616.128906 1253.53125 1616.191406 1254.058594 1616.378906 C 1254.121094 1622.570312 1255.75 1628.46875 1260.238281 1633.671875 C 1261.761719 1635.441406 1265.171875 1635.960938 1267.269531 1635.148438 C 1286.238281 1627.890625 1290.308594 1599.78125 1298.800781 1582.921875 C 1311.171875 1558.328125 1326.351562 1535.261719 1330.980469 1507.691406 C 1331.890625 1502.371094 1326.730469 1497.339844 1321.878906 1497.609375" fill="#f4711f"/></g><g id="change2_6"><path d="M 933.574219 1490.460938 C 920.699219 1508.308594 908.503906 1526.710938 896.921875 1545.421875 C 894.824219 1548.800781 891.839844 1553.289062 888.769531 1558.328125 C 893.699219 1543.871094 898.699219 1529.441406 902.765625 1514.699219 C 906.066406 1502.699219 886.882812 1495.910156 882.140625 1507.5 C 874.6875 1525.75 867.296875 1544.019531 860.5 1562.519531 C 855.480469 1576.148438 849.46875 1590.011719 856.648438 1603.441406 C 858.570312 1607.019531 864.015625 1607.878906 867.214844 1605.660156 C 871.59375 1602.589844 874.304688 1598.421875 876.527344 1593.929688 C 876.929688 1597.191406 877.84375 1600.289062 880.023438 1602.871094 C 882.015625 1605.238281 884.449219 1606.429688 887.5625 1605.558594 C 903.867188 1601.03125 911.636719 1570.148438 919.238281 1556.589844 C 929.761719 1537.78125 943.824219 1519.410156 948.925781 1498.179688 C 950.914062 1489.921875 938.890625 1483.089844 933.574219 1490.460938" fill="#f4711f"/></g><g id="change2_7"><path d="M 968.703125 1489.679688 C 958.984375 1505.71875 949.984375 1522.070312 941.390625 1538.75 C 934.441406 1552.238281 919.851562 1573.070312 926.859375 1588.621094 C 928.9375 1593.238281 933.234375 1594.828125 937.765625 1592.511719 C 951.722656 1585.378906 956.589844 1562.800781 962.644531 1549.390625 C 970.714844 1531.558594 979.246094 1514.011719 983.144531 1494.71875 C 984.964844 1485.769531 973.128906 1482.410156 968.703125 1489.679688" fill="#f4711f"/></g><g id="change2_8"><path d="M 1103.480469 1593.378906 C 1105.320312 1592.140625 1105.539062 1590.199219 1104.988281 1588.308594 C 1106.449219 1586.210938 1107.890625 1584.109375 1108.480469 1581.53125 C 1110.261719 1573.769531 1112.988281 1566.519531 1116.101562 1559.179688 C 1122.328125 1544.511719 1129.628906 1530.078125 1133.570312 1514.539062 C 1134.671875 1510.261719 1132.660156 1506.679688 1129.570312 1504.488281 C 1131.050781 1497.351562 1131.160156 1490.570312 1127.28125 1486.988281 C 1123.828125 1483.828125 1118.808594 1488.410156 1121.179688 1492.269531 C 1118.128906 1487.320312 1111.570312 1498.730469 1108.859375 1502.769531 C 1106.339844 1506.570312 1104.328125 1510.839844 1102.230469 1515.03125 C 1102.828125 1505.421875 1104.601562 1496.308594 1107.570312 1487.710938 C 1108.269531 1486 1108.988281 1484.28125 1109.621094 1482.570312 C 1115.53125 1467.871094 1124.359375 1454.328125 1134.859375 1441.25 C 1145.871094 1427.53125 1126.050781 1409.671875 1114.300781 1423.070312 C 1109.851562 1428.128906 1105.320312 1433.730469 1100.878906 1439.558594 C 1106.53125 1428.378906 1116.039062 1415.640625 1117.121094 1403.53125 C 1117.628906 1397.808594 1113.390625 1393.511719 1107.570312 1394.910156 C 1105.148438 1395.480469 1102.949219 1396.601562 1100.828125 1397.929688 C 1110.960938 1381 1121.921875 1364.351562 1129.480469 1346.160156 C 1133.230469 1337.140625 1121.269531 1327.589844 1114.578125 1336.101562 C 1110.429688 1341.390625 1106.300781 1346.71875 1102.171875 1352.070312 C 1103.421875 1348.570312 1104.578125 1345 1106.058594 1341.800781 C 1118.390625 1315.601562 1133.128906 1290.121094 1148.480469 1265.601562 C 1153.691406 1257.269531 1139.820312 1247.839844 1134.140625 1255.921875 C 1128.449219 1263.988281 1122.878906 1272.050781 1117.269531 1280.121094 C 1122.28125 1270.820312 1126.101562 1260.398438 1130.988281 1251.71875 C 1140.75 1234.378906 1151.820312 1218.058594 1157.941406 1198.980469 C 1160.308594 1191.578125 1149.070312 1186.148438 1144.480469 1192.210938 C 1136.601562 1202.609375 1129.25 1213.460938 1122.089844 1224.410156 C 1125.570312 1217.878906 1128.261719 1210.570312 1131.390625 1205.328125 C 1141.238281 1188.78125 1152.121094 1173.210938 1160.121094 1155.648438 C 1163.53125 1148.179688 1153.578125 1140.960938 1148.011719 1147.46875 C 1142.871094 1153.46875 1137.738281 1159.511719 1132.699219 1165.640625 C 1137.851562 1154.429688 1142.058594 1142.601562 1147.230469 1131.449219 C 1152.351562 1120.410156 1158.660156 1106.789062 1156.460938 1094.351562 C 1155.488281 1088.929688 1148.820312 1085.140625 1144.578125 1090.191406 C 1136.050781 1100.371094 1129.78125 1113.210938 1123.238281 1124.738281 C 1115.640625 1138.089844 1106.570312 1152.460938 1106.949219 1168.320312 C 1107.171875 1177.230469 1116.039062 1180.988281 1122.960938 1178.511719 C 1119.929688 1182.558594 1116.738281 1186.480469 1114.011719 1190.738281 C 1106.488281 1202.320312 1089.929688 1222.460938 1099.898438 1236.261719 C 1101.660156 1238.710938 1104.351562 1239.640625 1107.25 1238.890625 C 1111.570312 1237.761719 1114.871094 1234.851562 1117.710938 1231.199219 C 1115.46875 1234.710938 1113.140625 1238.171875 1110.929688 1241.679688 C 1102.25 1255.558594 1088.621094 1275.738281 1096.339844 1292.46875 C 1097.828125 1295.671875 1102 1298.371094 1105.371094 1295.679688 C 1107.121094 1294.269531 1108.421875 1292.359375 1109.921875 1290.648438 C 1101.03125 1303.769531 1092.488281 1317.128906 1084.871094 1331.191406 C 1074.558594 1350.25 1056.558594 1380.460938 1065.46875 1402.441406 C 1065.640625 1402.859375 1065.980469 1403.109375 1066.210938 1403.480469 C 1064.078125 1406.941406 1061.828125 1410.351562 1059.800781 1413.878906 C 1054.519531 1423.070312 1044.261719 1440.660156 1054.988281 1449.859375 C 1056.03125 1450.75 1057.109375 1451.53125 1058.210938 1452.238281 C 1056.488281 1452.601562 1054.78125 1453.320312 1053.269531 1454.921875 C 1039.070312 1470.261719 1028.03125 1488.738281 1018.398438 1507.199219 C 1010.308594 1522.679688 998.582031 1545.679688 1008.429688 1562.03125 C 1010.648438 1565.699219 1016.179688 1566.921875 1019.671875 1564.398438 C 1029.660156 1557.199219 1033.160156 1544.570312 1036.820312 1532.421875 C 1037.199219 1537.800781 1038.898438 1542.738281 1042.859375 1546.640625 C 1045.121094 1548.890625 1048.570312 1548.679688 1051.140625 1547.25 C 1053.191406 1546.109375 1054.949219 1544.519531 1056.539062 1542.699219 C 1051.621094 1557.21875 1049.171875 1572.558594 1058.480469 1582.539062 C 1060.941406 1585.148438 1064.769531 1584.589844 1067.609375 1583.191406 C 1074.640625 1579.71875 1078.941406 1571.660156 1082.050781 1562.398438 C 1077.710938 1576.160156 1076.378906 1590.679688 1088.300781 1598.171875 C 1091.621094 1600.261719 1095.578125 1598.589844 1098.140625 1596.269531 C 1098.609375 1595.828125 1098.839844 1595.261719 1099.269531 1594.800781 C 1100.75 1594.671875 1102.171875 1594.269531 1103.480469 1593.378906" fill="#f4711f"/></g><g id="change2_9"><path d="M 1166.089844 1570.511719 C 1167.851562 1566.660156 1179.628906 1541.769531 1168.828125 1540.21875 C 1163 1539.378906 1157.941406 1542.789062 1153.578125 1547.488281 C 1154.261719 1543.328125 1154.578125 1539.140625 1153.941406 1534.71875 C 1153.261719 1530.160156 1147.5 1528.578125 1145.109375 1532.859375 C 1144.730469 1533.53125 1138.269531 1537.691406 1136.769531 1539.628906 C 1131.769531 1546.039062 1127.699219 1553.230469 1123.46875 1560.140625 C 1115.511719 1573.128906 1107.121094 1587.96875 1103.269531 1602.789062 C 1100.480469 1613.570312 1111.53125 1620.890625 1120.53125 1619.359375 L 1120.53125 1619.390625 C 1122.878906 1630.308594 1141.261719 1632.121094 1145.089844 1621.308594 C 1147.25 1615.210938 1151.511719 1610.671875 1153.898438 1604.800781 C 1154.71875 1602.78125 1154.320312 1600.839844 1153.261719 1599.441406 C 1157.070312 1589.628906 1161.75 1580.089844 1166.089844 1570.511719" fill="#f4711f"/></g><g id="change2_10"><path d="M 1366.199219 1482.261719 C 1348.539062 1493.53125 1340.980469 1523.28125 1334.140625 1541.738281 C 1328.230469 1557.710938 1311.140625 1594.089844 1328.101562 1607.558594 C 1330.710938 1609.640625 1333.421875 1609.570312 1336.300781 1608.171875 C 1351.910156 1600.550781 1354.128906 1565.488281 1359.019531 1550.429688 C 1365.238281 1531.339844 1380.148438 1509.761719 1380.320312 1489.46875 C 1380.378906 1482.359375 1371.769531 1478.699219 1366.199219 1482.261719" fill="#f4711f"/></g><g id="change2_11"><path d="M 1693.34375 1118.722656 C 1694.484375 1122.59375 1699.3125 1124.214844 1702.609375 1122.023438 C 1722.261719 1109.035156 1732.304688 1077.605469 1746.113281 1058.746094 C 1763.117188 1035.554688 1782.425781 1014.195312 1798.734375 990.492188 C 1804.703125 981.796875 1794.109375 971.867188 1786.28125 979.492188 C 1769.085938 996.238281 1752.898438 1013.953125 1737.496094 1032.324219 C 1737.609375 1032.113281 1737.742188 1031.863281 1737.894531 1031.652344 C 1748.371094 1016.152344 1758.546875 1001.375 1767.390625 984.902344 C 1772.007812 976.367188 1781.894531 967.1875 1778.917969 956.566406 C 1777.15625 950.332031 1772.640625 950.046875 1768.234375 951.816406 C 1766.605469 952.460938 1765.023438 953.335938 1763.582031 954.363281 C 1762.109375 955.414062 1761.5 956.90625 1761.335938 958.453125 C 1749.179688 970.585938 1740.621094 983.800781 1729.859375 998.535156 C 1717.757812 1015.175781 1682.945312 1050.753906 1699.84375 1072.394531 C 1700.859375 1073.703125 1702.445312 1074.824219 1704.136719 1075.332031 C 1695.414062 1089.125 1689.101562 1104.304688 1693.34375 1118.722656" fill="#f4711f"/></g><g id="change2_12"><path d="M 1789.105469 1048.265625 C 1769.980469 1079.085938 1745.929688 1104.71875 1721.265625 1131.066406 C 1703.242188 1150.308594 1671.480469 1178.445312 1674.445312 1207.246094 C 1675.011719 1212.789062 1680.1875 1215.269531 1684.960938 1213.308594 C 1682.996094 1215.675781 1680.984375 1218.148438 1679.085938 1220.378906 C 1659.917969 1242.886719 1619.097656 1289.40625 1632.078125 1322.457031 C 1607.359375 1348.566406 1586.503906 1376.96875 1575.832031 1410.058594 C 1573.976562 1415.796875 1576.875 1420.628906 1581.296875 1423.277344 C 1565.472656 1445.398438 1560.585938 1463.757812 1578.777344 1470.859375 C 1583.050781 1472.527344 1588.535156 1470.816406 1589.402344 1465.730469 C 1591.847656 1451.347656 1602.175781 1436.578125 1614.089844 1422.976562 C 1598.976562 1441.96875 1584.472656 1468.488281 1594.257812 1490.007812 C 1596.644531 1495.308594 1603.550781 1499.816406 1609.3125 1496.347656 C 1609.179688 1502.007812 1609.8125 1507.617188 1611.957031 1513.027344 C 1615.179688 1521.148438 1627.160156 1525.769531 1633.324219 1517.527344 C 1636.511719 1513.226562 1639.953125 1509.179688 1643.230469 1505.039062 C 1646.539062 1508.910156 1651.667969 1511.109375 1656.867188 1508.9375 C 1667.015625 1504.726562 1675.222656 1499.128906 1680.375 1489.207031 C 1681.71875 1486.570312 1680.332031 1483.488281 1678.019531 1482 C 1682.851562 1474.757812 1687.859375 1467.648438 1693.757812 1460.9375 C 1694.777344 1459.789062 1696.042969 1458.578125 1697.144531 1457.40625 C 1691.914062 1465.757812 1688.292969 1474.667969 1688.015625 1484.128906 C 1687.648438 1496.1875 1703.640625 1500.046875 1710.925781 1492.167969 C 1714.746094 1488.027344 1718.421875 1483.910156 1721.019531 1479.089844 C 1726.050781 1486.128906 1737.332031 1487.539062 1741.519531 1478.398438 C 1745.507812 1469.769531 1746.738281 1460.949219 1751.925781 1452.617188 C 1755.433594 1446.976562 1751.792969 1441.417969 1746.738281 1439.21875 C 1748.472656 1437.347656 1750.179688 1435.425781 1751.925781 1433.558594 C 1762.652344 1422.046875 1745.039062 1407.226562 1733.902344 1417.628906 C 1730.28125 1421.007812 1726.285156 1424.679688 1722.253906 1428.5 C 1723.863281 1425.769531 1725.515625 1423.046875 1726.40625 1420.128906 C 1730.246094 1415.539062 1724.507812 1408.007812 1718.253906 1409.246094 C 1710.179688 1410.847656 1702.230469 1416.078125 1694.789062 1422.339844 C 1702.5625 1415.167969 1709.449219 1407.566406 1712.390625 1399.089844 C 1712.324219 1399.058594 1712.269531 1399.019531 1712.191406 1398.976562 C 1713.789062 1395.6875 1711.96875 1391.257812 1707.261719 1391.21875 C 1682.761719 1390.96875 1654.011719 1420.929688 1638.507812 1437.457031 C 1638.066406 1437.929688 1637.621094 1438.488281 1637.175781 1438.96875 C 1642.664062 1431.777344 1648.78125 1425.019531 1654.757812 1418.488281 C 1673.890625 1397.578125 1696.523438 1379.757812 1717.664062 1360.957031 C 1725.683594 1353.816406 1714.210938 1341.789062 1705.695312 1347.109375 C 1682.175781 1361.816406 1659.875 1377.839844 1639.542969 1396.46875 C 1642.03125 1393.96875 1644.394531 1391.566406 1646.539062 1389.339844 C 1671.480469 1363.058594 1699.410156 1339.019531 1720.664062 1309.6875 C 1723.761719 1305.417969 1719.375 1300.078125 1714.632812 1302.699219 C 1705.507812 1307.738281 1672.578125 1332.269531 1640.164062 1361.246094 C 1649.546875 1348.65625 1659.429688 1336.335938 1670.3125 1324.386719 C 1701.296875 1290.335938 1732.503906 1257.398438 1761.554688 1221.648438 C 1767.804688 1213.957031 1756.753906 1204.078125 1749.992188 1211.449219 C 1725.960938 1237.628906 1695.746094 1262.417969 1666.882812 1288.648438 C 1667.660156 1287 1668.382812 1285.25 1669.214844 1283.679688 C 1680.886719 1261.90625 1697.445312 1242.40625 1713.300781 1223.597656 C 1735.445312 1197.289062 1775.878906 1168.457031 1785.761719 1134.496094 C 1787.25 1129.378906 1781.085938 1123.257812 1775.976562 1125.667969 C 1762.785156 1131.847656 1750.148438 1141.71875 1738.097656 1153.128906 C 1741.351562 1149.449219 1744.574219 1145.726562 1747.839844 1142.078125 C 1770.835938 1116.328125 1794.378906 1089.796875 1806.0625 1056.757812 C 1810.113281 1045.335938 1795.679688 1037.695312 1789.105469 1048.265625" fill="#f4711f"/></g><g id="change2_13"><path d="M 2025.339844 1455.191406 C 2025.214844 1455.113281 2025.066406 1455.042969 2024.941406 1454.980469 C 2027.996094 1447.820312 2020.832031 1438.601562 2012.929688 1444.113281 C 1981.613281 1465.914062 1950.929688 1497.152344 1928.820312 1532.070312 C 1928.15625 1532.460938 1927.46875 1532.691406 1926.816406 1533.050781 C 1951.078125 1491.5625 1986.023438 1458.839844 2018.351562 1422.273438 C 2018.277344 1422.191406 2018.164062 1422.113281 2018.089844 1422.023438 C 2024.238281 1414.152344 2015.773438 1401.8125 2005.988281 1407.960938 C 1996.269531 1414.0625 1986.125 1421.273438 1976.003906 1429.011719 C 1979.398438 1424.640625 1982.78125 1420.261719 1985.972656 1415.660156 C 1992.148438 1406.8125 1981.425781 1395.820312 1973.886719 1401.832031 C 1966.285156 1406.960938 1958.554688 1412.800781 1950.804688 1418.921875 C 1981.992188 1389.582031 2016.722656 1363.140625 2031.804688 1323.332031 C 2033.46875 1318.921875 2031.464844 1314.460938 2028.222656 1312.171875 C 2031.902344 1307.261719 2035.335938 1302.25 2038.078125 1297.011719 C 2038.34375 1296.613281 2038.554688 1296.203125 2038.792969 1295.742188 C 2038.917969 1295.460938 2039.117188 1295.191406 2039.257812 1294.910156 C 2039.195312 1294.910156 2039.15625 1294.910156 2039.082031 1294.921875 C 2041.625 1288.042969 2036.6875 1277.441406 2027.519531 1281.183594 C 2000.589844 1292.191406 1979.660156 1319.683594 1959.746094 1340.132812 C 1937.839844 1362.59375 1905.988281 1387.011719 1895.542969 1417.164062 C 1893.988281 1421.632812 1897.019531 1425.613281 1900.964844 1427.53125 C 1891.769531 1439.851562 1883.929688 1453 1878.921875 1467.832031 C 1876.503906 1474.929688 1881.925781 1481.441406 1888.488281 1483.519531 C 1876.980469 1499.960938 1867.671875 1517.34375 1862.675781 1535.339844 C 1859.128906 1548.03125 1873.984375 1554.691406 1883.640625 1549.679688 C 1884.59375 1549.171875 1885.445312 1548.511719 1886.398438 1547.980469 C 1885.882812 1550.179688 1884.996094 1552.300781 1884.621094 1554.511719 C 1882.964844 1564.410156 1892.472656 1575.332031 1902.992188 1571.109375 C 1905.574219 1570.070312 1907.765625 1568.652344 1910.195312 1567.472656 C 1906.589844 1575.980469 1903.417969 1584.550781 1901.140625 1593.203125 C 1898.121094 1604.621094 1912.6875 1614.832031 1922.308594 1607.679688 C 1927.792969 1603.589844 1929.949219 1601.28125 1934.371094 1595.621094 C 1936.296875 1593.140625 1936.535156 1589.710938 1935.710938 1586.722656 C 1961.261719 1539.242188 1995.105469 1500.011719 2025.339844 1455.191406" fill="#f4711f"/></g><g id="change2_14"><path d="M 2021.734375 1603.429688 C 2024.734375 1593.820312 2028.410156 1584.480469 2033.488281 1575 C 2041.914062 1559.230469 2052.425781 1545 2058.976562 1528.28125 C 2061.773438 1521.199219 2054.023438 1516.957031 2049.398438 1519.757812 C 2045.21875 1522.75 2040.960938 1526.128906 2036.742188 1529.828125 C 2044.128906 1519.078125 2052.335938 1508.820312 2056.949219 1496.710938 C 2056.847656 1496.660156 2056.734375 1496.601562 2056.605469 1496.527344 C 2059.378906 1491.097656 2054.679688 1484.769531 2048.539062 1485.578125 C 2050.816406 1483.179688 2053.074219 1480.730469 2055.429688 1478.429688 C 2064.800781 1469.191406 2050.386719 1452.230469 2040.152344 1460.757812 C 2019.65625 1477.898438 1999.628906 1495.828125 1985.136719 1518.578125 C 1972.546875 1538.347656 1956.722656 1566.621094 1966.390625 1590.449219 C 1968.695312 1596.160156 1975.457031 1600.390625 1981.539062 1599.671875 C 1983.046875 1602.800781 1985.617188 1605.007812 1988.785156 1606.21875 C 1987.570312 1612.730469 1986.898438 1619.25 1987.492188 1625.6875 C 1988.253906 1634.160156 1997.058594 1641.988281 2005.847656 1638.4375 C 2019.945312 1632.71875 2026.457031 1625.050781 2030.144531 1610.1875 C 2031.285156 1605.488281 2025.964844 1601.480469 2021.734375 1603.429688" fill="#f4711f"/></g><g id="change2_15"><path d="M 2277.625 1621.339844 C 2278.085938 1613.023438 2267.542969 1610.75 2262.316406 1615.230469 C 2262.355469 1609.882812 2256.511719 1607.410156 2252.066406 1609.890625 C 2251.96875 1609.761719 2251.898438 1609.632812 2251.800781 1609.492188 C 2237.71875 1618.292969 2229.398438 1628.210938 2222.03125 1641.199219 C 2220.128906 1643.140625 2218.15625 1645 2216.171875 1646.832031 C 2222.183594 1636.542969 2229.023438 1626.613281 2235.148438 1616.371094 C 2240.207031 1607.910156 2228.699219 1599.410156 2221.554688 1604.269531 C 2221.527344 1604.25 2221.527344 1604.230469 2221.5 1604.210938 C 2214.0625 1608.960938 2207.363281 1614.613281 2201.167969 1620.75 C 2201.855469 1619.5 2202.609375 1618.179688 2203.253906 1616.96875 C 2204.804688 1613.902344 2204.609375 1610.03125 2202.75 1607.121094 C 2203.617188 1604.300781 2200.777344 1601.691406 2197.96875 1602.441406 C 2197.378906 1602.601562 2197.128906 1602.710938 2196.988281 1602.792969 C 2196.917969 1602.710938 2196.738281 1602.601562 2196.246094 1602.460938 C 2194.808594 1602.042969 2193.367188 1602.332031 2191.941406 1602.691406 C 2194.988281 1597.449219 2196.121094 1592.222656 2192.359375 1588.019531 C 2188.109375 1583.292969 2181.859375 1584.109375 2175.386719 1587.203125 C 2181.257812 1577.8125 2185.914062 1567.410156 2178.8125 1565.292969 C 2164.171875 1560.890625 2146.609375 1584.410156 2137.785156 1593.242188 C 2131.285156 1599.75 2123.621094 1608.011719 2116.628906 1617.019531 C 2118.53125 1613.800781 2120.335938 1610.570312 2122.40625 1607.382812 C 2127.578125 1599.472656 2143.449219 1583.691406 2142.078125 1572.042969 C 2143.070312 1567.570312 2140.121094 1562.152344 2134.738281 1564.359375 C 2134.792969 1564.390625 2134.835938 1564.402344 2134.90625 1564.441406 C 2134.21875 1564.300781 2133.5625 1563.960938 2132.851562 1564 C 2129.019531 1564.628906 2126.390625 1565.511719 2123.089844 1567.601562 C 2119.886719 1569.621094 2117.035156 1572.292969 2114.195312 1574.933594 C 2114.992188 1569.378906 2109.539062 1563.511719 2103.835938 1567.652344 C 2098.550781 1571.511719 2093.292969 1575.5625 2088.121094 1579.710938 C 2085.140625 1577.742188 2080.777344 1577.351562 2077.3125 1579.191406 C 2082.5 1570.773438 2087.980469 1562.410156 2090.355469 1552.800781 C 2092.230469 1545.242188 2084.988281 1541.851562 2079.367188 1543.140625 C 2079.367188 1543.042969 2079.367188 1542.949219 2079.367188 1542.851562 C 2078.847656 1543.082031 2078.304688 1543.5 2077.800781 1543.75 C 2077.03125 1544.082031 2076.289062 1544.441406 2075.675781 1544.980469 C 2052.855469 1557.761719 2025.8125 1593.628906 2033.964844 1619.382812 C 2036.1875 1626.378906 2043.710938 1629.980469 2050.605469 1627.96875 C 2050.757812 1627.921875 2050.8125 1627.832031 2050.96875 1627.792969 C 2050.8125 1630.871094 2051.386719 1633.832031 2053.371094 1636.332031 C 2057.023438 1640.890625 2060 1643.710938 2066.082031 1644.011719 C 2066.867188 1644.050781 2067.480469 1643.839844 2068.136719 1643.710938 C 2067.886719 1645.019531 2067.523438 1646.363281 2067.371094 1647.660156 C 2066.738281 1654.050781 2068.683594 1661.300781 2075.296875 1664.0625 C 2077.660156 1665.050781 2080.039062 1665.941406 2082.46875 1666.769531 C 2086.929688 1668.28125 2091.980469 1665.679688 2094.984375 1662.628906 C 2095.738281 1661.902344 2096.410156 1661.089844 2097.082031 1660.3125 C 2097.726562 1670.652344 2107.527344 1676.992188 2116.488281 1673.152344 C 2119.550781 1679.929688 2126.601562 1684.421875 2134.945312 1681.691406 C 2140.359375 1679.921875 2144.679688 1677.421875 2148.582031 1674.539062 C 2152.371094 1680.652344 2160.296875 1684.570312 2167.175781 1681.878906 C 2167.75 1681.660156 2168.140625 1681.300781 2168.6875 1681.050781 C 2167.007812 1694.921875 2182.136719 1703.101562 2193.855469 1696.660156 C 2204.804688 1690.628906 2212.019531 1680.859375 2218.410156 1670.421875 C 2224.210938 1676.953125 2234.769531 1679.269531 2241.773438 1670.871094 C 2242.695312 1669.75 2243.4375 1668.5 2244.292969 1667.332031 C 2250.960938 1669.730469 2258.792969 1667.820312 2262.328125 1660.128906 C 2264.539062 1659.5 2266.71875 1658.421875 2268.746094 1656.269531 C 2274.632812 1650.050781 2279.164062 1643.210938 2278.144531 1634.332031 C 2278.015625 1633.25 2277.316406 1632.449219 2276.800781 1631.570312 C 2277.148438 1628.203125 2277.429688 1624.800781 2277.625 1621.339844" fill="#f4711f"/></g><g id="change2_16"><path d="M 2316.308594 1595.941406 C 2306.566406 1600 2304.6875 1608.589844 2295.519531 1612.519531 C 2288.074219 1615.703125 2291.371094 1626.78125 2299.363281 1624.621094 C 2304.140625 1623.339844 2307.3125 1621.871094 2311.902344 1622.839844 C 2318.917969 1624.3125 2324.441406 1620.210938 2329.335938 1615.929688 C 2338.542969 1607.902344 2327.210938 1591.390625 2316.308594 1595.941406" fill="#f4711f"/></g><g id="change2_17"><path d="M 1049.71875 998.21875 C 1051.070312 998.769531 1052.339844 998.949219 1053.511719 998.878906 C 1048.980469 1010.230469 1046.578125 1023.199219 1055.289062 1031.238281 C 1057.359375 1033.148438 1060.140625 1032.96875 1062.460938 1031.761719 C 1065.03125 1030.421875 1066.96875 1028.429688 1068.628906 1026.171875 C 1064.621094 1034.609375 1061.128906 1043.191406 1059.121094 1051.878906 C 1058.058594 1056.410156 1060.5 1062.570312 1065.109375 1064.289062 C 1066 1064.628906 1066.890625 1065 1067.820312 1065.25 C 1072.351562 1066.421875 1078.488281 1063.761719 1080.230469 1059.25 C 1088.488281 1037.800781 1100.238281 1015.460938 1104.710938 992.871094 C 1105.980469 986.378906 1096.921875 980.839844 1092.550781 986.761719 C 1085.839844 995.859375 1079.171875 1005.898438 1073.410156 1016.421875 C 1075.320312 1010.75 1076.648438 1004.710938 1078.578125 999.828125 C 1084.609375 984.578125 1094.859375 971.75 1104.160156 958.429688 C 1109.238281 951.191406 1101.488281 939.578125 1093.191406 945.71875 C 1084 952.519531 1076.570312 960.78125 1070.050781 969.839844 C 1071.269531 966.410156 1072.589844 963.011719 1073.859375 959.570312 C 1075.019531 956.441406 1076.398438 953.398438 1077.859375 950.398438 C 1078.390625 949.289062 1082.898438 941.53125 1079.320312 946.359375 C 1086.820312 936.269531 1074.03125 925.179688 1064.859375 933.558594 C 1056.371094 941.308594 1051.199219 951.839844 1047.238281 962.960938 C 1044.109375 971.859375 1036.550781 992.910156 1049.71875 998.21875" fill="#f4711f"/></g><g id="change2_18"><path d="M 1065.300781 1115.789062 C 1067.25 1120.128906 1071.660156 1122.089844 1075.980469 1119.589844 C 1089.421875 1111.808594 1092.640625 1091.359375 1099.078125 1077.929688 C 1107.230469 1060.859375 1114.46875 1043.390625 1122.789062 1026.421875 C 1126.480469 1018.921875 1115.761719 1013.960938 1111.441406 1020.730469 C 1101.171875 1036.839844 1089.148438 1051.621094 1079.359375 1068.070312 C 1071.679688 1081.011719 1058.511719 1100.660156 1065.300781 1115.789062" fill="#f4711f"/></g><g id="change3_1"><path d="M 811.226562 1206.789062 C 808.941406 1208.71875 806.609375 1210.789062 804.300781 1212.800781 C 809.109375 1205.011719 812.285156 1197.28125 811.414062 1190.519531 C 810.949219 1187 808.472656 1184.539062 804.832031 1184.550781 C 801.84375 1184.570312 798.796875 1185.429688 795.769531 1186.761719 C 800.191406 1181.300781 804.617188 1175.859375 808.347656 1169.898438 C 814 1160.851562 801.167969 1149.820312 792.847656 1156.078125 C 788.269531 1159.511719 783.847656 1163.28125 779.441406 1167.039062 C 783.085938 1162.351562 786.898438 1157.78125 789.988281 1152.691406 C 794.476562 1145.289062 784.671875 1138.238281 778.148438 1142.128906 C 774.488281 1144.308594 771.035156 1147.070312 767.476562 1149.589844 C 772.582031 1142.53125 776.519531 1135.199219 777.875 1127.519531 C 778.488281 1123.988281 775.121094 1120.359375 771.457031 1121.730469 C 761.042969 1125.628906 750.878906 1132.960938 741.199219 1141.601562 C 748.59375 1133.28125 755.347656 1124.539062 759.175781 1114.910156 C 763.984375 1110.179688 757.082031 1101.078125 749.882812 1104.589844 C 745.054688 1106.949219 740.394531 1110.078125 735.886719 1113.648438 C 743.105469 1104.410156 749.925781 1094.929688 754.160156 1084.921875 C 756.425781 1079.519531 751.535156 1071.050781 744.90625 1074.128906 C 741.199219 1075.851562 737.75 1078.238281 734.425781 1080.871094 C 735.992188 1077.398438 737.367188 1073.839844 738.386719 1070.121094 C 740.332031 1062.941406 730.296875 1058.210938 725.65625 1063.71875 C 715.132812 1076.191406 706.050781 1090.179688 696.351562 1103.308594 C 687.289062 1115.589844 675.8125 1129.921875 678.460938 1146.011719 C 678.652344 1147.238281 679.285156 1148.191406 680.070312 1148.929688 C 671.769531 1160.71875 664.929688 1173.460938 666.433594 1184.71875 C 666.769531 1187.300781 668.464844 1189.480469 670.667969 1190.550781 C 667.320312 1198.160156 665.882812 1205.808594 668.507812 1212.660156 C 669.183594 1214.410156 670.242188 1215.609375 671.449219 1216.53125 C 659.867188 1232.019531 651.082031 1249.269531 655.71875 1264.101562 C 657.328125 1269.210938 663.699219 1271.519531 668.167969 1268.519531 C 675.644531 1263.539062 679.222656 1256.730469 682.992188 1249.320312 C 678.480469 1261.609375 677.761719 1273.449219 687.480469 1280.210938 C 690.019531 1281.988281 692.433594 1282.410156 694.722656 1282.019531 C 694.257812 1286.46875 694.148438 1290.929688 694.933594 1295.359375 C 695.992188 1301.230469 698.703125 1304.808594 703.847656 1306.988281 C 701.371094 1313.339844 699.359375 1319.769531 698.300781 1326.261719 C 696.628906 1336.648438 705.734375 1344.589844 715.050781 1342.480469 C 714.667969 1344.539062 713.96875 1346.539062 713.671875 1348.621094 C 712.742188 1355.558594 716.363281 1361.441406 721.464844 1364.308594 C 720.363281 1366.488281 718.964844 1368.5 717.929688 1370.730469 C 712.824219 1381.910156 724.8125 1396.710938 736.121094 1391.511719 C 736.4375 1400.75 748.210938 1406.488281 756.550781 1402.691406 C 750.539062 1414.410156 745.710938 1426.53125 743.570312 1439.550781 C 741.984375 1449.199219 754.648438 1457.039062 761.425781 1448.519531 C 783.78125 1420.460938 800.003906 1385.300781 807.878906 1350.339844 C 809.300781 1344.058594 803.667969 1339.050781 798.140625 1339.121094 C 802.144531 1330.449219 805.65625 1321.609375 807.945312 1312.441406 C 810.019531 1304.179688 804.386719 1298.941406 797.84375 1297.929688 C 800.660156 1292.980469 803.621094 1288.109375 806.1875 1282.988281 C 811.523438 1272.378906 800.277344 1263.828125 791.511719 1266.640625 C 803.621094 1250.871094 815.96875 1235.078125 826.492188 1217.578125 C 832.210938 1208.050781 817.640625 1199.628906 811.226562 1206.789062" fill="#f9ac1a"/></g><g id="change3_2"><path d="M 503.046875 1424.460938 C 504.996094 1415.210938 495.148438 1410.03125 487.675781 1413.941406 C 476.855469 1419.589844 471.179688 1431.5 466.011719 1442.039062 C 460.359375 1453.578125 454.089844 1467.871094 454.9375 1480.890625 C 455.425781 1488.371094 463.621094 1495.429688 471.265625 1492.199219 C 477.105469 1489.738281 480.304688 1486.351562 481.851562 1480.800781 C 485.449219 1473.75 487.273438 1465.960938 490.003906 1458.300781 C 494.003906 1447.039062 500.59375 1436.140625 503.046875 1424.460938" fill="#f9ac1a"/></g><g id="change3_3"><path d="M 718.566406 1509.191406 C 722.1875 1499.511719 725.765625 1489.828125 728.898438 1479.960938 C 733.472656 1465.429688 713.609375 1458.648438 704.523438 1467.71875 C 703.847656 1468.398438 703.171875 1469.078125 702.492188 1469.761719 C 702.089844 1459.828125 688.09375 1454.328125 679.644531 1462.03125 C 677.464844 1464.011719 675.429688 1466.128906 673.316406 1468.160156 C 677.167969 1461.378906 680.957031 1454.5 684.347656 1447.210938 C 690.445312 1434.058594 673.96875 1423.910156 664.019531 1433.488281 C 655.675781 1441.53125 648.136719 1450.398438 640.8125 1459.488281 C 642.125 1456.300781 643.5625 1453.179688 644.75 1449.929688 C 649.703125 1436.601562 631.726562 1426.820312 624.632812 1439.859375 C 621.074219 1445.761719 617.371094 1451.609375 613.664062 1457.46875 C 616.503906 1451.710938 619.128906 1446.019531 622.070312 1440.199219 C 628.0625 1428.308594 612.226562 1419.699219 604.15625 1428.160156 C 604.070312 1428.089844 603.988281 1428 603.882812 1427.921875 C 595.222656 1439.558594 585.523438 1451.828125 576.84375 1464.738281 C 580.589844 1454.410156 584.148438 1444.019531 587.003906 1433.511719 C 589.039062 1426.089844 579.296875 1422.609375 574.769531 1427.429688 C 574.746094 1427.390625 574.703125 1427.339844 574.660156 1427.289062 C 563.691406 1439.191406 553.992188 1452.78125 546.265625 1467.371094 C 552.488281 1454.320312 559.394531 1441.238281 561.636719 1427.140625 C 562.929688 1419.070312 552.996094 1415.699219 548.679688 1420.640625 C 548.660156 1420.628906 548.660156 1420.621094 548.660156 1420.621094 C 548.550781 1420.699219 548.488281 1420.808594 548.402344 1420.898438 C 548.339844 1420.96875 548.257812 1421.03125 548.191406 1421.109375 C 543.703125 1425.128906 539.890625 1429.929688 536.375 1435 C 541.015625 1425.761719 545.078125 1416.28125 545.757812 1405.929688 C 546.179688 1399.289062 538.808594 1397.5 534.175781 1400.289062 C 534.152344 1400.191406 534.109375 1400.078125 534.089844 1399.980469 C 519.457031 1410.179688 510.164062 1428.820312 501.671875 1444.109375 C 492.546875 1460.558594 484.5 1478.050781 483.417969 1496.988281 C 482.804688 1508.078125 495.273438 1511.371094 503.195312 1506.800781 C 501.710938 1513.121094 500.609375 1519.488281 500.570312 1525.878906 C 500.484375 1534.230469 512.132812 1541.160156 518.992188 1535.289062 C 520.921875 1533.640625 522.167969 1532.128906 523.144531 1530.640625 C 525.660156 1526.769531 526.085938 1523.019531 529.199219 1517.578125 C 530.023438 1516.171875 529.726562 1514.851562 529.050781 1513.75 C 530.128906 1510.46875 531.1875 1507.171875 532.269531 1503.890625 C 531.019531 1509.058594 529.960938 1514.269531 529.324219 1519.539062 C 528.183594 1529.121094 538.855469 1539.738281 548.171875 1532.441406 C 549.589844 1531.339844 550.816406 1530.03125 552.152344 1528.859375 C 552.023438 1532.140625 551.75 1535.390625 552.046875 1538.75 C 552.894531 1548.46875 566.125 1554.808594 572.863281 1546.050781 C 575.148438 1543.089844 577.265625 1539.878906 579.464844 1536.820312 C 581.5 1547.191406 595.558594 1554.269531 603.203125 1544.070312 C 605.386719 1541.148438 607.546875 1538.070312 609.726562 1535.078125 C 610.019531 1546.039062 623.914062 1556.089844 633.484375 1547.898438 C 637.613281 1544.378906 641.382812 1540.53125 645.214844 1536.75 C 649.511719 1542.78125 657.921875 1545.890625 665.351562 1541 C 670.453125 1537.628906 675.238281 1533.988281 679.921875 1530.261719 C 679.347656 1531.898438 678.605469 1533.460938 678.078125 1535.109375 C 672.996094 1550.738281 694.109375 1556.910156 703.699219 1547.980469 C 715.347656 1537.121094 728.941406 1535.351562 742.683594 1531.109375 C 746.472656 1529.941406 748.082031 1525.261719 745.921875 1521.960938 C 738.640625 1510.800781 728.835938 1507.851562 718.566406 1509.191406" fill="#f9ac1a"/></g><g id="change3_4"><path d="M 1128.871094 1083.230469 C 1130.578125 1074.628906 1133.25 1067.191406 1137.871094 1059.691406 C 1143.839844 1049.941406 1128.171875 1042.398438 1122.089844 1051.800781 C 1116.078125 1061.128906 1112.140625 1070.71875 1111.871094 1081.890625 C 1111.628906 1091.808594 1126.980469 1092.640625 1128.871094 1083.230469" fill="#f9ac1a"/></g><g id="change3_5"><path d="M 1242.621094 1282.570312 C 1246.640625 1276.03125 1250.578125 1269.441406 1254.011719 1262.488281 C 1258.898438 1252.589844 1244.800781 1244.820312 1238.871094 1252.289062 C 1238.871094 1252.289062 1238.851562 1252.261719 1238.851562 1252.238281 C 1230.871094 1259.460938 1222.589844 1267.101562 1214.210938 1274.960938 C 1229.660156 1256.789062 1244.5 1238.109375 1253.761719 1217.328125 C 1253.648438 1217.289062 1253.53125 1217.25 1253.421875 1217.21875 C 1256.75 1209.890625 1248.949219 1200.160156 1240.890625 1205.839844 C 1221.261719 1219.648438 1203.699219 1238.351562 1187.441406 1258.070312 C 1205.058594 1234.878906 1226.53125 1209.578125 1230.609375 1182.71875 C 1231.570312 1176.519531 1224.808594 1170.910156 1219.140625 1174.859375 C 1191.210938 1194.261719 1169.589844 1230.371094 1150.128906 1259.628906 C 1150.679688 1258.390625 1151.210938 1257.179688 1151.800781 1255.921875 C 1159.550781 1239.070312 1170.328125 1223.921875 1181.339844 1209.078125 C 1199 1185.308594 1221.808594 1161.101562 1228.460938 1131.488281 C 1230.53125 1122.300781 1218.589844 1118.398438 1213.589844 1124.019531 C 1213.570312 1124.039062 1213.53125 1124.058594 1213.511719 1124.089844 C 1213.320312 1124.300781 1213.101562 1124.46875 1212.960938 1124.699219 C 1190.71875 1148.238281 1169.609375 1175.199219 1150.378906 1201.699219 C 1153.769531 1193.699219 1157.941406 1186.109375 1162.640625 1178.78125 C 1174.230469 1160.699219 1189.640625 1143.820312 1194.46875 1122.371094 C 1195.039062 1119.761719 1194.148438 1116.128906 1191.859375 1114.511719 C 1190.949219 1113.871094 1189.898438 1112.859375 1188.75 1112.710938 C 1180.300781 1111.589844 1176.46875 1119.941406 1171.789062 1125.679688 C 1164 1135.238281 1156.230469 1144.828125 1148.558594 1154.511719 C 1152.519531 1144.070312 1156.210938 1133.558594 1161.480469 1123.410156 C 1168.589844 1109.730469 1179.519531 1095.261719 1181.550781 1079.628906 C 1182.378906 1073.199219 1174.710938 1068.578125 1169.988281 1073.820312 C 1161.710938 1083.03125 1154.789062 1093.910156 1147.988281 1104.609375 C 1151.039062 1094.828125 1153.941406 1084.96875 1157.238281 1075.539062 C 1161.179688 1064.378906 1168.550781 1049.179688 1161.421875 1038.039062 C 1160.589844 1036.78125 1158.558594 1036.171875 1157.308594 1037.179688 C 1146.550781 1045.800781 1141.070312 1064.238281 1135.160156 1076.410156 C 1128.191406 1090.761719 1117.558594 1109.128906 1120.210938 1125.578125 C 1120.988281 1130.488281 1125.269531 1134.140625 1129.691406 1134.878906 C 1124.949219 1144.539062 1121.609375 1154.859375 1122.960938 1164.621094 C 1123.75 1170.21875 1128.738281 1174.089844 1133.699219 1174.421875 C 1123.171875 1190.730469 1112.078125 1214.808594 1130.5 1225.148438 C 1131.539062 1225.730469 1132.75 1225.800781 1133.929688 1225.640625 C 1122.941406 1243.78125 1114.621094 1265.140625 1124.871094 1284.199219 C 1126.328125 1286.898438 1129.359375 1287.351562 1131.941406 1286.449219 C 1117.101562 1309 1102.609375 1336.050781 1109.199219 1360.578125 C 1109.539062 1361.828125 1110.261719 1362.660156 1110.980469 1363.46875 C 1102.53125 1379.910156 1096.941406 1397.019531 1098.890625 1413.308594 C 1099.199219 1415.949219 1100.480469 1418.300781 1102.191406 1420.21875 C 1100.179688 1425.289062 1097.890625 1430.300781 1096.339844 1435.441406 C 1093.910156 1443.480469 1099.988281 1450.488281 1107.25 1452.460938 C 1106.589844 1455.320312 1105.871094 1458.140625 1105.429688 1461.050781 C 1104.179688 1469.039062 1110.171875 1478.488281 1118.261719 1479.628906 C 1116.949219 1484.089844 1115.339844 1488.390625 1114.488281 1493.089844 C 1111.929688 1507.410156 1126.601562 1516.070312 1138.628906 1509.609375 C 1139.25 1509.28125 1139.75 1508.871094 1140.351562 1508.53125 C 1144.011719 1513.800781 1150.378906 1517.039062 1157.179688 1514.269531 C 1163.621094 1511.648438 1169.398438 1508.339844 1174.929688 1504.738281 C 1175.75 1509.488281 1177.910156 1513.621094 1182.148438 1516.609375 C 1187.078125 1520.078125 1192.371094 1520.96875 1197.75 1517.75 C 1198.769531 1517.148438 1199.761719 1516.53125 1200.78125 1515.929688 C 1205.800781 1512.921875 1206.921875 1508.109375 1205.671875 1503.75 C 1205.929688 1503.308594 1206.21875 1503.230469 1206.46875 1502.679688 C 1210.289062 1494.328125 1214.480469 1486.300781 1218.878906 1478.238281 C 1226.039062 1465.121094 1234.171875 1452.601562 1240.25 1438.929688 C 1243.890625 1430.710938 1239.300781 1422.269531 1232.671875 1418.390625 C 1238.550781 1411.160156 1244.421875 1403.921875 1250.078125 1396.488281 C 1260.238281 1386.179688 1248.871094 1372.121094 1237.429688 1373.179688 C 1242.789062 1365.929688 1248.109375 1358.679688 1253.359375 1351.53125 C 1263.648438 1337.511719 1245.710938 1320.019531 1233.578125 1330.941406 C 1242.691406 1319.621094 1251.28125 1307.949219 1258.308594 1295.191406 C 1258.25 1295.148438 1258.179688 1295.121094 1258.121094 1295.089844 C 1262.800781 1285.820312 1251.199219 1276 1242.621094 1282.570312" fill="#f9ac1a"/></g><g id="change3_6"><path d="M 1825.226562 1172.171875 C 1818.035156 1176.820312 1810.492188 1182.28125 1802.84375 1188.300781 C 1810.636719 1178.5 1817.945312 1168.371094 1823.257812 1157.28125 C 1824.117188 1155.449219 1824.289062 1153.371094 1824.015625 1151.351562 C 1826.121094 1146.082031 1819.925781 1141.449219 1814.875 1142.941406 C 1812.6875 1142.789062 1810.511719 1143.082031 1808.710938 1144.3125 C 1785.039062 1160.628906 1765.238281 1186.480469 1747.464844 1208.789062 C 1742.003906 1215.640625 1736.023438 1222.941406 1729.917969 1230.460938 C 1738.46875 1216.171875 1748.617188 1202.761719 1758.757812 1189.628906 C 1779.949219 1162.179688 1804.578125 1136.28125 1817.957031 1103.832031 C 1821.238281 1095.859375 1811.25 1091.171875 1806.71875 1096.3125 C 1806.695312 1096.28125 1806.683594 1096.242188 1806.660156 1096.210938 C 1781.480469 1120.960938 1757.660156 1147.648438 1735.015625 1174.910156 C 1735.660156 1173.839844 1736.171875 1172.710938 1736.816406 1171.648438 C 1763.515625 1125.148438 1810.910156 1089.628906 1831.445312 1039.832031 C 1834.878906 1031.550781 1824.320312 1025.410156 1819.089844 1031.53125 C 1819.042969 1031.492188 1819.019531 1031.460938 1818.976562 1031.421875 C 1813.582031 1036.230469 1808.371094 1041.371094 1803.183594 1046.542969 C 1806.402344 1035.691406 1806.515625 1024.921875 1799.75 1015.640625 C 1795.117188 1009.289062 1782.554688 1011.660156 1783.871094 1020.792969 C 1786.667969 1039.910156 1753.320312 1076.71875 1742.945312 1091.511719 C 1731.253906 1108.160156 1697.136719 1142.160156 1705.234375 1164.902344 C 1699.515625 1175.402344 1694.984375 1186.339844 1692.671875 1197.71875 C 1691.335938 1204.179688 1695.671875 1212.832031 1702.933594 1213.480469 C 1703.582031 1213.53125 1704.226562 1213.589844 1704.871094 1213.648438 C 1693.882812 1230.691406 1685.660156 1250.0625 1691.96875 1267.101562 C 1693.035156 1269.949219 1695.742188 1271.882812 1698.640625 1272.230469 C 1684.492188 1293.660156 1673.234375 1316.359375 1670.855469 1339.378906 C 1669.550781 1352.128906 1683.101562 1359.230469 1692.59375 1350.308594 C 1693.523438 1349.429688 1694.054688 1348.460938 1694.871094 1347.5625 C 1694.824219 1347.921875 1694.746094 1348.28125 1694.722656 1348.640625 C 1693.917969 1357.851562 1701.996094 1367.988281 1711.136719 1366.269531 C 1709.585938 1371.039062 1707.964844 1375.8125 1706.84375 1380.640625 C 1704.035156 1392.511719 1719.652344 1405.519531 1730.085938 1396.558594 C 1733.03125 1394.039062 1735.683594 1391.359375 1738.425781 1388.730469 C 1743.601562 1395.410156 1755.257812 1397.398438 1761.65625 1390.261719 C 1764.523438 1387.050781 1767.082031 1383.652344 1769.699219 1380.289062 C 1768.984375 1385.75 1768.714844 1391.28125 1769.484375 1396.992188 C 1770.253906 1402.628906 1777.449219 1406.351562 1781.628906 1401.261719 C 1799.648438 1379.332031 1810.832031 1348.832031 1818.285156 1321.5 C 1820.039062 1315.101562 1813.242188 1308.609375 1807.082031 1309.519531 C 1813.242188 1298.492188 1819.109375 1287.320312 1823.925781 1275.679688 L 1823.640625 1275.53125 C 1827.933594 1265.929688 1815.894531 1255.960938 1807.566406 1264.628906 C 1807.535156 1264.640625 1807.523438 1264.660156 1807.523438 1264.660156 C 1811.464844 1257.980469 1815.191406 1251.140625 1818.410156 1243.96875 C 1823.765625 1232.039062 1808.292969 1223.300781 1800.554688 1231.960938 L 1800.363281 1231.78125 C 1796.003906 1236.402344 1791.597656 1241.199219 1787.199219 1246.082031 C 1803.140625 1226.230469 1820.605469 1207.230469 1839.160156 1188.289062 C 1839.105469 1188.242188 1839.023438 1188.179688 1838.96875 1188.121094 C 1846.398438 1179.710938 1835.976562 1165.210938 1825.226562 1172.171875" fill="#f9ac1a"/></g><g id="change3_7"><path d="M 2072.054688 1412.261719 C 2068.53125 1410.921875 2064.378906 1411.460938 2061.082031 1415.3125 C 2052.195312 1424.101562 2043.269531 1433.601562 2034.570312 1443.511719 C 2046.011719 1427.140625 2057.742188 1410.703125 2069.195312 1393.371094 C 2070.710938 1396.5625 2073.09375 1399.230469 2077.015625 1400.933594 C 2077.269531 1401.050781 2077.496094 1401.03125 2077.761719 1401.113281 C 2075.699219 1404.792969 2073.851562 1408.523438 2072.054688 1412.261719 Z M 2067.480469 1482.691406 C 2064.792969 1487.460938 2062.210938 1492.492188 2059.644531 1497.609375 C 2057.355469 1502.0625 2055.121094 1506.53125 2053.019531 1511.042969 C 2045.691406 1525.953125 2037.949219 1541 2028.144531 1553.949219 C 2040.289062 1527.980469 2053.257812 1502.960938 2068.570312 1477.511719 C 2069.382812 1478.230469 2070.273438 1478.761719 2071.203125 1479.261719 C 2069.765625 1480.011719 2068.410156 1481.042969 2067.480469 1482.691406 Z M 2153.820312 1311.542969 C 2139.242188 1324.320312 2124.570312 1338.832031 2111.109375 1354.472656 C 2122.09375 1337.820312 2135.128906 1322.761719 2147.527344 1306.953125 C 2153.285156 1299.632812 2146.78125 1286.230469 2136.726562 1290.414062 C 2128.613281 1293.773438 2111.507812 1309.871094 2096.304688 1328.863281 C 2093.667969 1323.640625 2086.328125 1320.582031 2081.699219 1326.402344 C 2079.808594 1328.050781 2077.855469 1329.730469 2075.9375 1331.390625 C 2088.695312 1313.972656 2099.640625 1295.28125 2103.019531 1275.492188 C 2103.871094 1270.542969 2097.726562 1267.183594 2094.226562 1271.070312 C 2074.660156 1293.023438 2057.410156 1317.34375 2039.066406 1340.722656 C 2042.367188 1335.660156 2045.585938 1330.640625 2048.804688 1325.832031 C 2071.867188 1291.242188 2094.375 1256.261719 2115.578125 1220.492188 C 2120.710938 1211.792969 2107.488281 1203.203125 2101.078125 1210.710938 C 2076.75 1239.28125 2055.878906 1270.351562 2034.742188 1301.3125 C 2015.988281 1328.800781 1988.839844 1356.453125 1980.328125 1389.140625 C 1979.078125 1394.023438 1984.609375 1396.523438 1988.363281 1394.621094 C 1991.699219 1392.933594 1994.878906 1390.980469 1997.925781 1388.832031 C 1982.480469 1406.542969 1968.128906 1425.910156 1961.984375 1447.480469 C 1947.101562 1468.992188 1935.433594 1491.941406 1929.25 1516.511719 C 1926.550781 1527.25 1942.125 1535.75 1949.027344 1526.441406 C 1950.851562 1523.992188 1952.804688 1521.453125 1954.683594 1518.960938 C 1952.527344 1526.53125 1950.972656 1534.179688 1950.199219 1541.910156 C 1949.054688 1553.339844 1960.65625 1561.53125 1969.953125 1555.421875 C 1968.382812 1561.570312 1966.945312 1567.75 1966.121094 1574.03125 C 1964.550781 1585.8125 1977.800781 1594.601562 1987.058594 1587.082031 C 1987.125 1589.171875 1986.804688 1591.300781 1987.03125 1593.390625 C 1988.320312 1604.761719 2002.726562 1607.972656 2008.445312 1597.898438 C 2016.761719 1583.28125 2025.992188 1568.972656 2035.570312 1554.871094 C 2033.160156 1562.363281 2030.914062 1569.921875 2028.972656 1577.621094 C 2025.820312 1590.070312 2045.53125 1597.25 2050.371094 1585.089844 C 2062.332031 1555.101562 2074.195312 1524.949219 2082.777344 1493.820312 C 2085.078125 1495.113281 2087.722656 1495.621094 2090.4375 1495.191406 C 2089.199219 1499.082031 2087.871094 1502.910156 2086.6875 1506.820312 C 2084.597656 1513.789062 2089.199219 1518.421875 2094.90625 1519.800781 C 2095.320312 1520.761719 2095.746094 1521.722656 2096.171875 1522.671875 C 2096.664062 1523.730469 2098.019531 1524.5625 2099.097656 1523.710938 C 2101.648438 1521.722656 2104.242188 1519.722656 2106.8125 1517.722656 C 2110.125 1515.132812 2111.46875 1511.140625 2110.933594 1507.441406 C 2116.027344 1493.941406 2120.085938 1480.179688 2124.648438 1466.410156 C 2126.363281 1461.269531 2122.707031 1456.320312 2118.011719 1454.292969 C 2124.128906 1443.070312 2130.128906 1431.792969 2135.488281 1420.210938 C 2137.882812 1415.0625 2135.371094 1410.191406 2131.417969 1407.890625 C 2140.890625 1395.609375 2150.480469 1383.421875 2159.9375 1370.863281 C 2167.53125 1360.742188 2154.722656 1350.101562 2145.519531 1358.121094 C 2143.855469 1359.550781 2142.300781 1361.113281 2140.703125 1362.621094 C 2150.757812 1349.121094 2159.804688 1335.132812 2165.496094 1319.441406 C 2168.144531 1312.152344 2159.617188 1305.222656 2153.820312 1311.542969" fill="#f9ac1a"/></g><g id="change3_8"><path d="M 855.863281 956.269531 C 865.6875 978.921875 872.335938 1001.421875 874.007812 1025.121094 C 886.839844 996.28125 916.929688 964.109375 902.871094 931.921875 C 892.429688 908.039062 877.183594 887 864.671875 864.269531 C 853.300781 843.660156 848.15625 821.710938 847.5 799.078125 C 821.070312 826.5 809.976562 856.390625 826.8125 894.859375 C 835.871094 915.621094 846.84375 935.488281 855.863281 956.269531" fill="#f9ac1a"/></g><g id="change4_1"><path d="M 1325.441406 1034.398438 C 1336.640625 1052.878906 1349.941406 1070.730469 1358.851562 1090.480469 C 1366.089844 1106.53125 1370.519531 1122.851562 1371.660156 1139.398438 C 1385.359375 1105.808594 1406.28125 1068.03125 1392.449219 1035.429688 C 1382.609375 1012.269531 1367 993.238281 1351.78125 973.480469 C 1330.859375 946.320312 1316.800781 919.730469 1311.96875 887.898438 C 1295.46875 917.691406 1285.75 946.699219 1299.859375 982.429688 C 1306.96875 1000.460938 1315.378906 1017.789062 1325.441406 1034.398438" fill="#ee252c"/></g><g id="change5_1"><path d="M 2195.625 846.273438 C 2157.101562 889.300781 2123.683594 931.195312 2121.6875 991.597656 C 2143.066406 954.265625 2182.25 934.847656 2189.632812 887.828125 C 2191.746094 874.222656 2193.011719 860.015625 2195.625 846.273438" fill="#f8de1a"/></g><g id="change5_2"><path d="M 1792.832031 1046.296875 C 1719.71875 1085.277344 1736.296875 1164.136719 1741.953125 1238.015625 C 1744.089844 1265.988281 1746.203125 1301.246094 1736.25 1330.148438 C 1757.75 1313.078125 1775.496094 1292.277344 1788.902344 1267.457031 C 1804.3125 1238.925781 1814.777344 1212.386719 1807.082031 1178.695312 C 1803.421875 1162.65625 1798.789062 1146.898438 1794.902344 1130.917969 C 1788.601562 1104.847656 1781.976562 1072.035156 1792.832031 1046.296875" fill="#f8de1a"/></g><g id="change3_9"><path d="M 1431.179688 453.664062 C 1427.351562 438.839844 1423.6875 424.117188 1421.171875 409.003906 C 1419.316406 397.914062 1418.882812 386.816406 1419.554688 375.800781 C 1400.558594 406.996094 1390.929688 437.542969 1397.898438 476.894531 C 1401.285156 495.996094 1404.523438 514.949219 1406.925781 534.113281 C 1431.304688 512.226562 1440.4375 489.535156 1431.179688 453.664062" fill="#f9ac1a"/></g><g id="change4_2"><path d="M 1686.664062 517.402344 C 1655.304688 575.171875 1598.171875 604.785156 1547.453125 643.375 C 1503.074219 677.148438 1468.097656 719.964844 1449.609375 771.917969 C 1492.105469 726.21875 1560.566406 739.3125 1613.523438 710.921875 C 1686.042969 672.03125 1688.207031 590.085938 1686.664062 517.402344" fill="#ee252c"/></g><g id="change6_1"><path d="M 2043.902344 1115.007812 C 2044.453125 1115.640625 2045.132812 1116.648438 2045.910156 1118.078125 C 2045.734375 1116.941406 2045.546875 1115.820312 2045.394531 1114.671875 C 2044.804688 1114.890625 2044.316406 1114.980469 2043.902344 1115.007812" fill="#f9af19"/></g><g id="change4_3"><path d="M 2487.128906 1196.679688 C 2431.277344 1225.988281 2359.527344 1253.78125 2321.332031 1306.847656 C 2321.378906 1308.988281 2321.234375 1310.910156 2320.820312 1311.648438 C 2315.777344 1320.648438 2310.558594 1329.738281 2305.867188 1339.070312 C 2341.726562 1324.027344 2379.25 1310.738281 2416.980469 1302.070312 C 2464.316406 1291.199219 2509.558594 1277.210938 2545.320312 1242.308594 C 2588.191406 1200.507812 2600.101562 1147.320312 2609.351562 1092.371094 C 2583.789062 1139.199219 2537.746094 1170.109375 2487.128906 1196.679688" fill="#ee252c"/></g><g id="change7_1"><path d="M 1311.96875 887.898438 C 1316.800781 919.730469 1330.859375 946.320312 1351.78125 973.480469 C 1367 993.238281 1382.609375 1012.269531 1392.449219 1035.429688 C 1406.28125 1068.03125 1385.359375 1105.808594 1371.660156 1139.398438 C 1370.519531 1122.851562 1366.089844 1106.53125 1358.851562 1090.480469 C 1349.941406 1070.730469 1336.640625 1052.878906 1325.441406 1034.398438 C 1315.378906 1017.789062 1306.96875 1000.460938 1299.859375 982.429688 C 1285.75 946.699219 1295.46875 917.691406 1311.96875 887.898438 Z M 1312.960938 1047.828125 C 1331.410156 1079.269531 1366.621094 1117.410156 1365.328125 1156.640625 C 1364.570312 1159.089844 1363.890625 1161.53125 1363.320312 1163.910156 C 1362.660156 1166.648438 1363.800781 1178.769531 1365.328125 1182.238281 C 1365.769531 1183.621094 1366.199219 1184.179688 1366.558594 1183.089844 C 1366.578125 1183.011719 1366.601562 1182.910156 1366.621094 1182.820312 C 1366.898438 1182.441406 1367.148438 1181.769531 1367.398438 1180.640625 C 1375.371094 1145.578125 1397.050781 1116.148438 1402.789062 1080.550781 C 1406.300781 1058.890625 1404.039062 1036.359375 1398.851562 1015.199219 C 1385.109375 959.21875 1318.410156 923.480469 1317.980469 863.949219 C 1317.980469 862.75 1314.851562 842.28125 1312.5 846.378906 C 1287.28125 890.269531 1279.488281 935.488281 1288.679688 985.230469 C 1292.71875 1007.160156 1301.71875 1028.660156 1312.960938 1047.828125" fill="#851b1c"/></g><g id="change7_2"><path d="M 1547.453125 643.378906 C 1598.175781 604.789062 1655.300781 575.175781 1686.667969 517.40625 C 1688.203125 590.085938 1686.039062 672.039062 1613.527344 710.921875 C 1560.558594 739.324219 1492.105469 726.21875 1449.597656 771.921875 C 1468.089844 719.964844 1503.066406 677.144531 1547.453125 643.378906 Z M 1442.046875 810.921875 C 1492.25 741.652344 1592.808594 761.929688 1652.523438 702.300781 C 1701.933594 652.933594 1694.027344 564.578125 1691.105469 501.355469 C 1691.0625 500.21875 1689.621094 486.488281 1687.25 491.9375 C 1656.574219 562.636719 1585.0625 587.664062 1528.480469 633.4375 C 1481.714844 671.277344 1455.578125 723.597656 1442.246094 780.816406 C 1441.410156 781.933594 1440.585938 783.019531 1439.78125 784.199219 C 1435.648438 790.257812 1441.640625 811.464844 1442.046875 810.921875" fill="#851b1c"/></g><g id="change7_3"><path d="M 1397.898438 476.890625 C 1390.925781 437.546875 1400.554688 406.996094 1419.554688 375.804688 C 1418.875 386.8125 1419.320312 397.917969 1421.167969 409.011719 C 1423.683594 424.117188 1427.347656 438.84375 1431.179688 453.664062 C 1440.4375 489.535156 1431.308594 512.234375 1406.910156 534.113281 C 1404.511719 514.949219 1401.273438 496 1397.898438 476.890625 Z M 1405.722656 562.449219 C 1428.070312 540.269531 1439.949219 519.644531 1441.785156 488.398438 C 1444.417969 443.949219 1415.171875 403.992188 1430.542969 358.585938 C 1431.914062 354.496094 1429.109375 332.820312 1427.75 334.675781 C 1378.3125 402.28125 1387.132812 463.621094 1402.824219 537.976562 C 1399.011719 543.859375 1404.683594 563.46875 1405.722656 562.449219" fill="#851b1c"/></g><g id="change7_4"><path d="M 847.5 799.078125 C 848.15625 821.710938 853.300781 843.660156 864.671875 864.269531 C 877.183594 887 892.429688 908.039062 902.871094 931.921875 C 916.929688 964.109375 886.839844 996.28125 874.007812 1025.121094 C 872.335938 1001.421875 865.6875 978.921875 855.863281 956.269531 C 846.84375 935.488281 835.871094 915.621094 826.8125 894.859375 C 809.976562 856.390625 821.070312 826.5 847.5 799.078125 Z M 870.980469 1033.28125 C 870.558594 1036.121094 870.9375 1041.289062 871.617188 1045.660156 C 871.617188 1046.109375 871.65625 1046.558594 871.65625 1047.011719 C 871.617188 1048.761719 872.804688 1054.648438 873.5 1052.871094 C 873.816406 1053.289062 874.113281 1053.28125 874.347656 1052.570312 C 889.042969 1010.910156 922.796875 986.589844 913.710938 938.140625 C 904.015625 886.328125 848.324219 840.121094 854.636719 786.859375 C 854.867188 784.808594 853.914062 761.890625 850.421875 765.121094 C 816.414062 796.570312 802.609375 835.570312 811.777344 881.261719 C 822.300781 933.699219 865.328125 979.96875 870.980469 1033.28125" fill="#851b1c"/></g><g id="change7_5"><path d="M 2195.617188 846.277344 C 2193 860.019531 2191.734375 874.226562 2189.621094 887.835938 C 2182.242188 934.851562 2143.046875 954.269531 2121.683594 991.601562 C 2123.675781 931.199219 2157.089844 889.304688 2195.617188 846.277344 Z M 2118.140625 998.441406 C 2117.757812 999.210938 2117.347656 999.925781 2116.980469 1000.703125 C 2115.890625 1003.152344 2118.070312 1012.464844 2118.332031 1012.074219 C 2118.644531 1011.550781 2119 1011.0625 2119.339844 1010.542969 C 2119.503906 1012.03125 2119.640625 1013.503906 2119.832031 1015.003906 C 2120.714844 1021.691406 2122.148438 1012.851562 2121.984375 1010.582031 C 2121.890625 1009.28125 2121.929688 1008.050781 2121.847656 1006.773438 C 2140.988281 980.058594 2171.324219 965.261719 2185.761719 934.003906 C 2202.761719 897.222656 2191.417969 853.996094 2218.480469 820.847656 C 2222.246094 816.210938 2217.296875 797.640625 2216.574219 798.457031 C 2187.4375 832.101562 2150.367188 864.289062 2132.140625 905.800781 C 2118.875 936.066406 2115.671875 966.5625 2118.140625 998.441406" fill="#851b1c"/></g><g id="change7_6"><path d="M 770.0625 1492.949219 C 770.167969 1492.949219 770.167969 1492.230469 770.039062 1492.230469 C 769.933594 1492.230469 769.933594 1492.949219 770.0625 1492.949219" fill="#851b1c"/></g><g id="change7_7"><path d="M 2196.914062 1680.289062 C 2107.023438 1682.039062 2028.167969 1638.4375 1951.25 1597.167969 C 1870.292969 1553.730469 1791.828125 1520.789062 1698.183594 1528.867188 C 1605.796875 1536.828125 1519.382812 1578.929688 1432.164062 1606.871094 C 1331.390625 1639.140625 1238.644531 1641.648438 1138.609375 1605.230469 C 1093.703125 1588.871094 1053.933594 1560.78125 1004.722656 1559.410156 C 962.648438 1558.25 923.773438 1592.507812 888.539062 1611.1875 C 849.808594 1631.71875 803.648438 1632.339844 761.382812 1640.800781 C 732.792969 1646.527344 706.855469 1656.800781 683.097656 1671.511719 C 711.917969 1634.25 752.085938 1605.550781 797.546875 1594.261719 C 804.621094 1592.988281 811.714844 1591.640625 818.785156 1590.191406 C 824.882812 1588.929688 822.132812 1557.679688 818.003906 1558.179688 C 810.71875 1559.078125 803.605469 1560.558594 796.574219 1562.308594 C 673.65625 1584.546875 554.480469 1578.789062 449.074219 1502.527344 C 400.519531 1467.398438 358.742188 1420.78125 332.863281 1366.617188 C 314.230469 1327.609375 306.945312 1284.808594 303.28125 1241.757812 C 308.640625 1258.648438 316.15625 1274.78125 327.085938 1289.699219 C 351.097656 1322.507812 392.046875 1338.828125 429.230469 1351.019531 C 532.226562 1384.777344 638.015625 1406.230469 730.234375 1463.539062 C 747.214844 1481.71875 767.859375 1495.796875 788.570312 1487.71875 C 795.9375 1484.859375 789.671875 1454.4375 787.789062 1455.160156 C 777.8125 1458.941406 768.03125 1457.5 758.714844 1453.078125 C 750.730469 1446.519531 742.578125 1440.238281 734.171875 1434.347656 C 720.003906 1419.710938 708.148438 1401.429688 700.25 1389.917969 C 671.789062 1348.441406 648.476562 1302.039062 630.859375 1254.9375 C 606.125 1188.726562 654.574219 1106.21875 675.242188 1043.558594 C 687.691406 1005.757812 693.960938 966.800781 691.1875 927.820312 C 744.675781 1010.828125 821.667969 1078.71875 856.5625 1172.847656 C 890.378906 1264.070312 824.777344 1371.898438 887.351562 1456.539062 C 888.472656 1458.070312 891.839844 1433.019531 889.320312 1427.480469 C 881.25 1409.730469 912.507812 1369.859375 921.886719 1354.460938 C 934.800781 1333.230469 948.269531 1312.1875 956.78125 1288.71875 C 957.332031 1287.207031 957.566406 1285.898438 957.671875 1284.707031 C 960.722656 1294.410156 964.363281 1303.667969 968.726562 1312.949219 C 981.410156 1339.796875 1013.34375 1378.53125 992.292969 1406.96875 C 987.402344 1414.230469 994.496094 1439.9375 995.046875 1439.207031 C 996.59375 1437.089844 997.988281 1434.96875 999.304688 1432.839844 C 1057.363281 1346.4375 1098.59375 1261.160156 1082.691406 1154.359375 C 1073.140625 1090.238281 1038.050781 1034.21875 1023.480469 971.5 C 1007.179688 901.359375 1039.171875 837.929688 1079.191406 782.738281 C 1068.820312 869.386719 1125.042969 953.417969 1172.792969 1023.890625 C 1212.980469 1083.199219 1244.59375 1146.527344 1270.421875 1213.410156 C 1291.542969 1268.058594 1307.371094 1328.816406 1295.921875 1387.359375 C 1289.332031 1420.929688 1280.59375 1452.878906 1279.34375 1487.257812 C 1279.171875 1491.617188 1284.292969 1524.75 1287.28125 1506.980469 C 1300.390625 1429.378906 1393.773438 1420.800781 1438.023438 1367.230469 C 1465.191406 1334.347656 1472.03125 1287.988281 1471.011719 1243.480469 C 1493.371094 1298.507812 1532.0625 1365.046875 1499.261719 1409.878906 C 1495.300781 1413.949219 1491.382812 1418.078125 1487.664062 1422.320312 C 1481.882812 1428.890625 1487.914062 1462.609375 1490.851562 1460.121094 C 1497.613281 1454.449219 1503.089844 1448.378906 1507.734375 1442.039062 C 1544.914062 1404.109375 1587.726562 1371.757812 1621.140625 1330.257812 C 1662.347656 1279.089844 1666.632812 1218.027344 1673.21875 1155.347656 C 1680.007812 1090.476562 1695.335938 1032.347656 1740.140625 983.199219 C 1766.53125 954.285156 1799.695312 933.015625 1832.5 912.289062 C 1848.488281 902.183594 1864.613281 892.453125 1881.148438 883.648438 C 1854.726562 932.667969 1846.875 995.046875 1845.71875 1047.699219 C 1844.792969 1090.160156 1849.019531 1133.347656 1860.3125 1174.347656 C 1868.402344 1203.6875 1879.570312 1232.179688 1887.96875 1261.460938 C 1903.910156 1317.136719 1892.695312 1361.460938 1856.371094 1404.890625 C 1850.785156 1411.597656 1857.183594 1443.449219 1859.46875 1441.289062 C 1924.828125 1379.867188 1993.625 1325.578125 2045.15625 1251.019531 C 2060.5 1228.820312 2064.273438 1203.839844 2063.253906 1177.480469 C 2063.144531 1174.628906 2062.957031 1171.679688 2062.675781 1168.679688 C 2077.207031 1196.6875 2098.75 1221.578125 2121.871094 1246.339844 C 2146.242188 1272.449219 2171.882812 1297.308594 2192.46875 1326.660156 C 2220.160156 1366.160156 2218.046875 1398.980469 2189.261719 1437.597656 C 2188.777344 1438.269531 2188.417969 1439.148438 2188.183594 1440.160156 C 2187.761719 1440.371094 2187.339844 1440.539062 2186.933594 1440.757812 C 2179.625 1444.636719 2187.058594 1472.25 2187.699219 1471.910156 C 2219.78125 1454.917969 2259.4375 1471.378906 2290.679688 1482.988281 C 2328.519531 1497.089844 2362.589844 1512.160156 2403.3125 1515.398438 C 2436.070312 1518 2465.871094 1512.917969 2490.039062 1500.21875 C 2424.773438 1601.820312 2324.828125 1677.796875 2196.914062 1680.289062 Z M 2043.902344 1115.007812 C 2044.328125 1114.980469 2044.8125 1114.886719 2045.40625 1114.667969 C 2045.546875 1115.820312 2045.75 1116.9375 2045.90625 1118.078125 C 2045.140625 1116.648438 2044.453125 1115.640625 2043.902344 1115.007812 Z M 2545.148438 1387.328125 C 2537.40625 1409.148438 2528.238281 1430.609375 2517.789062 1451.417969 C 2484.484375 1484.570312 2426.261719 1489.179688 2376.71875 1481.699219 C 2326.15625 1474.078125 2262.957031 1424.378906 2208.847656 1433.378906 C 2229.167969 1387.378906 2222.207031 1336.417969 2193.722656 1291.566406 C 2173.023438 1259.007812 2144.523438 1231.308594 2118.164062 1203.417969 C 2093.867188 1177.75 2050.929688 1137.25 2052.367188 1098.578125 C 2052.445312 1096.648438 2051.179688 1071.667969 2046.78125 1075.65625 C 2033.515625 1087.65625 2031.625 1104.988281 2034.441406 1122.269531 C 2036.160156 1132.839844 2038.898438 1141.589844 2043.417969 1151.4375 C 2055.292969 1177.359375 2052.539062 1201.726562 2036.285156 1225.039062 C 1997.898438 1280.070312 1948.011719 1323.328125 1898.328125 1367.179688 C 1916.644531 1293.949219 1885.46875 1217.019531 1864.035156 1139.21875 C 1838.351562 1046.058594 1855.730469 898.277344 1955.128906 854.03125 C 1963.058594 850.496094 1958.101562 812.59375 1954.140625 813.613281 C 1880.367188 832.542969 1805.8125 881.304688 1749.917969 932.582031 C 1709.152344 969.945312 1686.640625 1017.738281 1675.09375 1071.027344 C 1659.8125 1141.636719 1668.695312 1215.730469 1628.257812 1278.976562 C 1601.960938 1320.128906 1562.433594 1351.148438 1525.941406 1384.257812 C 1527.082031 1316.238281 1476.753906 1235.277344 1464.851562 1179.007812 C 1461.101562 1161.386719 1457.742188 1198.589844 1458.5 1203.757812 C 1464.871094 1248.066406 1460.742188 1290.566406 1434.703125 1327.960938 C 1417.953125 1351.988281 1389.113281 1365.539062 1364.210938 1379.316406 C 1337.929688 1393.871094 1314.832031 1409.488281 1299.222656 1431.386719 C 1302.503906 1416.917969 1305.621094 1402.390625 1307.183594 1387.546875 C 1310.023438 1360.457031 1309.664062 1333.808594 1305.832031 1306.789062 C 1296.300781 1239.417969 1273.113281 1177.089844 1244.132812 1115.820312 C 1219.273438 1063.230469 1189.542969 1016.078125 1157.050781 967.976562 C 1116.3125 907.691406 1063.230469 830.953125 1098.480469 756.703125 C 1100.984375 751.441406 1096.730469 726.03125 1095.140625 728.023438 C 1029.480469 809.480469 997.652344 893.269531 1018.460938 997.484375 C 1032.972656 1070.097656 1080.132812 1132.699219 1079.363281 1208.789062 C 1078.75 1271.007812 1044.132812 1329.378906 1009.660156 1381.160156 C 1003.5625 1338.21875 968.195312 1295.6875 960.277344 1254.636719 C 959.367188 1250 956.296875 1242.269531 954.621094 1251.488281 C 944.925781 1304.859375 885.828125 1355.207031 879.539062 1411.25 C 853.789062 1361.128906 871.679688 1298.949219 874.160156 1244.4375 C 875.855469 1206.636719 868.757812 1170.417969 855.671875 1135.089844 C 819.90625 1038.539062 734.722656 969.011719 682.96875 881.75 C 681.847656 879.847656 679.117188 904.28125 680.21875 908.71875 C 701.011719 992.65625 641.617188 1079.6875 623.234375 1159.871094 C 613.285156 1203.339844 614.339844 1247.6875 629.820312 1289.378906 C 644.941406 1330.148438 665.3125 1369.578125 688.667969 1406.417969 C 623.046875 1371.019531 549.484375 1349.777344 477.785156 1330.386719 C 388.109375 1306.121094 308.007812 1275.628906 299.132812 1170.621094 C 297.101562 1146.566406 291.445312 1167.96875 292.101562 1179.96875 C 295.300781 1239.429688 298.6875 1299.289062 315.714844 1356.699219 C 333.226562 1415.710938 369.730469 1464.160156 414.242188 1505.707031 C 500.867188 1586.578125 606.167969 1610.648438 715.898438 1604.1875 C 685.554688 1629.621094 661.5625 1663.148438 647.078125 1699.527344 C 645.449219 1703.628906 647.101562 1731.5 650.46875 1728.46875 C 686.1875 1696.269531 725.679688 1679.449219 772.246094 1669.878906 C 816.097656 1660.878906 858.214844 1658.347656 898.402344 1636.839844 C 937.425781 1615.941406 970.378906 1586.878906 1017 1587.648438 C 1063.171875 1588.410156 1108.921875 1620.507812 1151.59375 1635.339844 C 1251.320312 1670 1345.703125 1657.597656 1443.78125 1624.910156 C 1535.890625 1594.210938 1623.628906 1554.300781 1722.339844 1552.558594 C 1907.570312 1549.300781 2038.710938 1728.140625 2227.730469 1708.050781 C 2362.355469 1693.75 2462.316406 1593.128906 2520.542969 1476.699219 C 2536.390625 1459.027344 2546.746094 1435.378906 2549.625 1405.648438 C 2549.875 1403.089844 2547.480469 1380.800781 2545.148438 1387.328125" fill="#851b1c"/></g><g id="change7_8"><path d="M 2545.320312 1242.3125 C 2509.546875 1277.210938 2464.308594 1291.203125 2416.972656 1302.070312 C 2379.230469 1310.742188 2341.714844 1324.03125 2305.863281 1339.070312 C 2310.539062 1329.742188 2315.765625 1320.652344 2320.8125 1311.652344 C 2321.21875 1310.910156 2321.363281 1308.992188 2321.332031 1306.851562 C 2359.523438 1253.78125 2431.261719 1225.992188 2487.128906 1196.679688 C 2537.738281 1170.113281 2583.785156 1139.203125 2609.347656 1092.375 C 2600.089844 1147.324219 2588.171875 1200.511719 2545.320312 1242.3125 Z M 2623.011719 1017.0625 C 2620.542969 1027.652344 2618.476562 1038.332031 2616.589844 1049.03125 C 2575.625 1183.441406 2370.199219 1183.902344 2308.925781 1309.710938 C 2299.765625 1320.703125 2294.734375 1332.671875 2291.023438 1348.191406 C 2290.476562 1350.472656 2290.476562 1370.472656 2294.058594 1368.132812 C 2338.425781 1339.171875 2389.632812 1335.363281 2439.792969 1322.140625 C 2484.226562 1310.421875 2521.820312 1290.351562 2554.738281 1258.222656 C 2609.511719 1204.78125 2610.945312 1123.730469 2624.769531 1052.613281 C 2625.671875 1048.980469 2626.414062 1045.242188 2627.105469 1041.453125 C 2627.378906 1040.101562 2627.65625 1038.722656 2627.945312 1037.382812 C 2627.929688 1037.304688 2627.914062 1037.222656 2627.898438 1037.152344 C 2628.027344 1036.234375 2628.25 1035.382812 2628.378906 1034.453125 C 2628.914062 1030.714844 2625.945312 1004.414062 2623.011719 1017.0625" fill="#851b1c"/></g><g id="change7_9"><path d="M 1794.898438 1130.921875 C 1798.777344 1146.902344 1803.40625 1162.664062 1807.074219 1178.703125 C 1814.765625 1212.394531 1804.292969 1238.933594 1788.886719 1267.464844 C 1775.476562 1292.28125 1757.730469 1313.082031 1736.25 1330.152344 C 1746.191406 1301.253906 1744.074219 1265.992188 1741.945312 1238.023438 C 1736.28125 1164.144531 1719.699219 1085.285156 1792.824219 1046.304688 C 1781.957031 1072.042969 1788.585938 1104.851562 1794.898438 1130.921875 Z M 1807.09375 1039.554688 C 1808.285156 1037.902344 1807.589844 1026.183594 1806.390625 1026.753906 C 1754.757812 1051.664062 1730.632812 1088.324219 1728.457031 1144.875 C 1725.710938 1215.492188 1749.792969 1278.601562 1717.613281 1343.34375 C 1715.933594 1344.402344 1714.328125 1345.53125 1712.636719 1346.550781 C 1710.941406 1347.574219 1710.539062 1351.5625 1710.742188 1355.722656 C 1710.304688 1356.441406 1709.902344 1357.164062 1709.429688 1357.882812 C 1708.5 1359.390625 1709.117188 1368.273438 1710.257812 1367.421875 C 1711 1366.863281 1711.660156 1366.210938 1712.390625 1365.632812 C 1712.636719 1366.332031 1712.882812 1366.742188 1713.117188 1366.671875 C 1766.464844 1346.164062 1801.1875 1284.253906 1813.136719 1231.113281 C 1827.523438 1167.101562 1765.195312 1097.082031 1807.09375 1039.554688" fill="#851b1c"/></g><g id="change5_3"><path d="M 1138.949219 1025.019531 C 1134.609375 1018.128906 1100.980469 1048.21875 1107.101562 1059.730469 C 1145.960938 1132.730469 1160 1206.050781 1149.199219 1288.089844 C 1141.070312 1349.78125 1109.710938 1409.660156 1120.289062 1472.460938 C 1120 1473.871094 1119.660156 1475.238281 1119.359375 1476.640625 C 1118.660156 1480.089844 1119.789062 1481.039062 1121.859375 1480.519531 C 1122.011719 1481.101562 1122.070312 1481.671875 1122.199219 1482.25 C 1123.148438 1486.210938 1132.808594 1476.160156 1134.269531 1471.898438 C 1140.238281 1466.53125 1145.941406 1460.328125 1146.949219 1458.398438 C 1153.070312 1450.210938 1159.210938 1442.039062 1165.328125 1433.859375 C 1176.089844 1466.21875 1177.890625 1498.070312 1170.351562 1532.679688 C 1167.128906 1547.359375 1192.480469 1524.011719 1194.410156 1521.601562 C 1309.28125 1377.910156 1225.070312 1161.808594 1138.949219 1025.019531" fill="#f8de1a"/></g><g id="change5_4"><path d="M 798.222656 1268.359375 C 779.019531 1228.558594 760.640625 1194.460938 754.433594 1156.828125 C 756.953125 1123.570312 767.351562 1089.96875 772.496094 1056.46875 C 773.894531 1047.289062 761.761719 1056.210938 759.410156 1058.550781 C 664.484375 1152.371094 692.667969 1272.511719 764.089844 1369.550781 C 770.929688 1387.988281 779.484375 1405.789062 786.050781 1424.480469 C 790.347656 1436.699219 814.636719 1404.371094 816.4375 1399.230469 C 832.824219 1352.429688 818.976562 1311.371094 798.222656 1268.359375" fill="#f8de1a"/></g><g id="change5_5"><path d="M 744.078125 1519.699219 L 743.359375 1518.101562 C 727.078125 1511.230469 709.988281 1510.140625 694.109375 1500.949219 C 692.878906 1500.238281 691.585938 1499.359375 690.316406 1498.558594 C 688.199219 1496.46875 685.617188 1494.828125 682.777344 1493.429688 C 681.296875 1492.351562 679.816406 1491.320312 678.332031 1490.148438 C 684.089844 1484.660156 688.941406 1477.011719 688.179688 1472.898438 C 683.351562 1446.679688 633.632812 1443.789062 613.050781 1440.558594 C 596.980469 1438.03125 580.78125 1436.75 564.921875 1432.96875 C 533.390625 1425.460938 513.527344 1402.078125 484.753906 1390.859375 C 484.308594 1390.679688 483.734375 1390.898438 483.183594 1391.121094 C 482.464844 1389.339844 475.941406 1395.300781 476.15625 1397.648438 C 485.871094 1500.859375 606.019531 1551.230469 700.589844 1546.199219 C 711.195312 1547.890625 721.953125 1546.621094 731.3125 1540.589844 C 736.203125 1537.421875 744.734375 1530.398438 744.335938 1523.71875 C 744.25 1522.378906 744.164062 1521.039062 744.078125 1519.699219" fill="#f8de1a"/></g><g id="change5_6"><path d="M 2104.84375 1239.667969 C 2100.53125 1227.359375 2071.402344 1261.1875 2071.179688 1270.386719 C 2069.929688 1318.039062 1998 1356.976562 1972.609375 1396.359375 C 1951.519531 1429.070312 1943.070312 1478.449219 1962.082031 1513.347656 C 1964.832031 1534.679688 1972.910156 1556.640625 1986.777344 1580.859375 C 1990.25 1586.949219 2017.773438 1561.308594 2014.921875 1552.757812 C 1990.832031 1481.1875 2034.890625 1426.207031 2069.929688 1368.359375 C 2076.941406 1356.777344 2085.859375 1341.058594 2089.558594 1325.617188 C 2094.703125 1342.257812 2099.636719 1358.96875 2104.148438 1375.738281 C 2114.054688 1412.707031 2095.976562 1444.757812 2085.136719 1478.738281 C 2082.28125 1487.769531 2099.675781 1473.25 2100.976562 1471.460938 C 2121.632812 1442.675781 2136.84375 1413.007812 2140.300781 1377.21875 C 2144.527344 1333.277344 2119.121094 1280.457031 2104.84375 1239.667969" fill="#f8de1a"/></g><g id="change7_10"><path d="M 731.839844 1070.558594 C 733.007812 1067.589844 730.59375 1054.808594 730.082031 1055.578125 C 668.296875 1150.398438 717.292969 1247.289062 750.855469 1342.738281 C 752.59375 1347.671875 754.328125 1327.429688 753.546875 1323.980469 C 746.558594 1292.960938 734.996094 1263.488281 724.007812 1233.71875 C 718.457031 1218.699219 713.628906 1203.480469 709.480469 1188.011719 C 700.078125 1152.929688 709.542969 1119.339844 723.625 1087.890625 C 723.582031 1106.660156 729.492188 1125.289062 739 1142.480469 C 760.871094 1181.988281 783.65625 1211.460938 788.398438 1258.578125 C 792.042969 1294.699219 787.59375 1331.128906 789.96875 1367.320312 C 790.15625 1370.460938 791.957031 1373.878906 792.421875 1368.71875 C 796.636719 1321.46875 797.464844 1272.660156 789.671875 1225.75 C 781.433594 1176.019531 712.085938 1120.851562 731.839844 1070.558594" fill="#851b1c"/></g><g id="change7_11"><path d="M 1122.21875 1058.808594 C 1152.519531 1134.320312 1179.628906 1211.171875 1157.390625 1293.21875 C 1146.378906 1333.878906 1123.300781 1371.460938 1119.300781 1413.859375 C 1119.191406 1415.03125 1120.53125 1424.28125 1121.101562 1423.191406 C 1147.328125 1373.199219 1169.609375 1312.601562 1172.828125 1255.898438 C 1175.089844 1215.871094 1170.230469 1177.808594 1161.160156 1140.550781 C 1175.328125 1167.851562 1190.058594 1194.871094 1204.191406 1222.210938 C 1218.570312 1250.078125 1231.671875 1276.128906 1239.171875 1306.890625 C 1252.378906 1361.238281 1241.03125 1416.738281 1225.550781 1469.21875 C 1224.941406 1471.300781 1226.058594 1482.21875 1227.160156 1479.699219 C 1296.738281 1318.738281 1185.640625 1174.761719 1124.988281 1031.910156 C 1122.578125 1026.230469 1119.871094 1052.910156 1122.21875 1058.808594" fill="#851b1c"/></g><g id="change7_12"><path d="M 2098.054688 1240.75 C 2091.953125 1326.621094 1951.738281 1351.988281 1974.96875 1448.46875 C 1976.199219 1453.570312 1977.007812 1441.871094 1976.605469 1440.019531 C 1970.054688 1410.339844 1998.328125 1385.710938 2016.933594 1367.128906 C 2037.792969 1346.289062 2059.609375 1326.359375 2077.746094 1303 C 2089.203125 1288.230469 2097.492188 1270.789062 2097.753906 1254.21875 C 2096.902344 1309.070312 2120.511719 1356.511719 2099.023438 1412.660156 C 2098.34375 1414.398438 2099.707031 1422.539062 2100.097656 1421.960938 C 2134.417969 1372.480469 2100.859375 1300.417969 2101.433594 1246.898438 C 2101.472656 1243.710938 2098.738281 1231.148438 2098.054688 1240.75" fill="#851b1c"/></g><g id="change7_13"><path d="M 468.320312 1394.941406 C 465.949219 1392.769531 464.722656 1415.890625 466.667969 1419.679688 C 484.539062 1454.691406 493.113281 1487.199219 523.375 1513.839844 C 547.261719 1534.859375 591.621094 1541.691406 622.132812 1544.71875 C 624.398438 1544.941406 623.40625 1532.78125 622.21875 1531.359375 C 596.023438 1500.191406 556.980469 1500.75 524.625 1478.980469 C 507.726562 1467.609375 498.496094 1451.398438 490.089844 1434.46875 C 537.136719 1458.589844 590.222656 1463.929688 643.203125 1465.78125 C 644.15625 1465.808594 644.304688 1459.320312 643.054688 1458.980469 C 583.660156 1442.859375 515.519531 1438.25 468.320312 1394.941406" fill="#851b1c"/></g></g></svg>