<?xml version="1.0" encoding="UTF-8"?><svg xmlns="http://www.w3.org/2000/svg" xmlns:xlink="http://www.w3.org/1999/xlink" height="304.6" preserveAspectRatio="xMidYMid meet" version="1.0" viewBox="422.8 171.8 444.2 304.6" width="444.2" zoomAndPan="magnify"><g><g fill="#d9f0f4"><g id="change1_16"><path d="M550.4543,453.8346L550.4557,453.86636Q551.3129,459.70825,553.62146,465.65558Q555.0848,469.4382,557.77783,471.91165Q559.55255,473.3994,561.10693,473.3994Q561.77625,473.3994,562.40466,473.1236Q564.487,472.38824,567.0801,468.41962L567.0744,468.41962Q564.4811,470.62628,563.999,470.93558Q563.02563,471.62045,562.40283,471.8463Q561.7258,472.07382,561.3051,472.07382Q561.16064,472.07382,561.0464,472.047Q560.2219,471.91824,559.3284,471.14728Q557.7001,469.80847,555.3387,465.13272Q554.38135,463.19556,553.64453,461.37466Q551.32776,455.45688,551.05524,454.8796Q550.78906,454.27975,550.63403,454.00546Q550.582,453.89105,550.4598,453.8346 Z"/></g><g><g id="change1_25"><path d="M863.94867,212.06949L427.8282,212.50862Q436.75583,228.08415,440.1034,244.55365Q439.61536,245.4715,453.24103,249.25166Q456.70837,251.04395,459.27234,254.20326Q463.583,257.8078,468.26917,278.44785Q469.80585,284.93768,469.4662,301.57855Q458.60916,364.261,459.51434,378.53403Q459.2417,398.64435,464.87692,406.39996Q471.79404,408.15375,474.93332,392.27692Q475.19397,356.39868,475.81778,350.54794Q484.4339,304.13214,487.72748,270.62524Q489.56674,268.21017,495.14465,275.22632Q502.43463,286.34216,503.72287,292.56177Q504.88458,297.24292,504.67358,303.99304Q500.55975,324.90247,500.47757,332.02115Q501.3169,339.0863,506.69754,340.35364Q517.77875,341.51898,520.8876,331.1126L517.64386,294.6993Q519.12964,280.71152,520.849,278.16296Q528.652,262.21835,539.25256,283.82297Q547.66736,300.89996,552.2216,352.66177Q552.723,366.0783,546.4615,435.1183L546.95447,453.52472Q550.48157,473.77725,561.3933,476.4681Q572.4031,472.34714,572.9229,453.16428Q573.70715,437.23483,567.7477,357.617L569.1801,340.96722L572.4768,333.7491Q582.1757,326.7665,583.2603,324.25568Q584.52344,322.73636,585.84424,292.38092Q587.1469,285.98843,588.70605,284.9032L590.75665,283.83594Q595.3366,283.96753,600.2061,282.5833L604.9222,271.13037Q608.7108,270.1185,611.0337,273.79053Q616.3877,282.3933,616.40234,289.78632L614.1089,329.5266Q616.23926,336.97028,620.59607,336.25665Q634.39453,330.28812,635.8212,321.86978Q640.0826,310.4323,632.4607,270.6309L639.51196,268.20776Q641.02136,268.60422,642.64795,270.43054Q651.5346,287.45837,656.4954,319.43402Q658.169,330.57584,655.2667,366.22162Q656.61194,372.34546,660.0891,371.7276Q666.1606,370.8935,667.71765,363.28802L662.6339,327.412Q663.5121,314.5369,667.8862,307.76648Q671.2069,302.80804,675.4183,301.3814L687.94666,301.14926Q690.78674,300.72266,691.76196,299.97137Q694.2867,299.16907,700.1633,286.34772L702.41235,284.35526L704.8285,286.66272L712.2126,299.0742Q713.097,300.31952,715.2334,299.91174L717.64844,296.4854Q723.9785,276.06216,725.13055,273.79288Q729.4678,267.4887,731.9646,269.58533Q735.06134,271.36945,738.739,280.83594Q745.375,300.04303,748.84155,316.50574Q752.32666,336.6978,752.6099,345.59113L751.22986,405.8932Q753.6336,418.86502,760.4004,417.43866Q767.1415,415.69846,768.5586,403.6023Q768.36255,390.95966,761.3541,352.32806L759.91614,324.81528Q760.2009,310.0231,768.5731,289.02136Q772.48944,283.2813,776.0815,283.0679Q776.89825,282.61407,789.7909,286.91223Q791.16077,287.07516,794.79016,285.64Q795.98395,285.77148,809.24316,264.35025Q812.26227,260.9428,814.92737,261.321Q818.82947,263.756,818.7203,267.0193L817.8,294.50342Q820.5039,301.3349,826.6781,297.1904Q828.3922,295.65845,828.5936,292.0052Q821.3678,264.95798,825.34937,259.79755Q829.478,252.34308,831.70447,252.33699L835.0314,252.475L842.15796,254.89713L845.96655,255.37872Q848.6156,255.82977,853.06824,251.08069Q856.32025,248.04413,864.4768,226.61179Q865.4656,219.58093,863.94867,212.06949 Z"/></g><g id="change1_28"><path d="M714.9585,322.12643C712.2367,333.32446,709.51495,344.5225,711.3916,349.77878C712.2561,352.20023,714.0966,353.3607,715.96344,353.3607C718.149,353.3607,720.3706,351.7702,721.1046,348.75052C722.4656,343.1515,718.71204,332.63898,714.9585,322.12643 Z"/></g><g id="change1_29"><path d="M846.48505,317.939C843.7632,329.13705,841.0414,340.33508,842.91815,345.59134C843.7827,348.0128,845.6232,349.17322,847.49005,349.17322C849.6756,349.17322,851.8972,347.58273,852.63116,344.56308C853.99207,338.96408,850.2385,328.45154,846.48505,317.939 Z"/></g><g id="change1_4"><path d="M664.0864,424.71872L663.37134,427.80283Q661.09076,437.237,660.02374,445.0329Q659.7128,447.57083,659.67163,449.74466L659.7146,451.80472Q659.83344,453.76233,660.3229,455.21936Q661.6266,459.13544,665.56006,459.13544Q665.6411,459.13544,665.72327,459.1338Q669.6569,458.21982,670.5714,454.08517Q670.9243,452.53503,670.8646,450.5707L670.7209,448.52185Q670.48315,446.3788,669.94617,443.93484Q668.67773,437.8999,664.0864,424.71872 Z"/></g><g id="change1_10"><path d="M826.26685,350.37146C823.42456,363.29904,820.5822,376.22656,822.8702,382.21487C823.9055,384.92474,825.9915,386.2136,828.0969,386.2136C830.6441,386.2136,833.21967,384.32718,833.99774,380.78845C835.41895,374.3247,830.8429,362.34808,826.26685,350.37146 Z"/></g><g id="change1_24"><path d="M511.73657,407.27216L510.74152,410.9218Q507.58923,422.08173,505.94,431.34216Q505.44592,434.35858,505.28583,436.95282L505.23016,439.41516Q505.26837,441.75885,505.76587,443.52185Q507.1164,448.3578,511.88025,448.45068Q516.5277,447.54395,517.80994,442.64893Q518.30237,440.81427,518.33374,438.4654L518.27094,436.01166Q518.10333,433.4411,517.6009,430.49707Q516.4279,423.22986,511.73657,407.27216 Z"/></g><g id="change1_26"><path d="M516.126,287.0358C516.0835,287.11865,515.97345,287.40063,515.8968,287.60605C515.81573,287.82324,515.76984,287.95447,515.6675,288.26086C515.5652,288.56723,515.5213,288.69974,515.45337,288.92053C515.38544,289.1413,515.29443,289.45047,515.2551,289.58514C515.2158,289.71982,515.1298,290.03055,515.0685,290.25427C515.0072,290.47797,514.97394,290.61554,514.8976,290.92892C514.82117,291.2423,514.78546,291.38083,514.7356,291.60852C514.68567,291.83618,514.6162,292.15176,514.5879,292.29376C514.55963,292.43576,514.4953,292.7535,514.4514,292.9847C514.4076,293.2159,514.3847,293.36127,514.33344,293.68243C514.28217,294.00357,514.2592,294.15067,514.22845,294.3869C514.1977,294.62317,514.1552,294.94736,514.1384,295.09827C514.12164,295.24915,514.089,295.57672,514.066,295.81738C514.04297,296.05804,514.03577,296.21307,514.01715,296.5445C513.99854,296.87595,513.9892,297.03302,513.98486,297.28C513.9806,297.52698,513.97363,297.8625,513.97546,298.02332C513.97723,298.18414,513.98627,298.52386,514.01495,298.77246C514.04364,299.02106,514.06604,299.1818,514.11096,299.52313C514.15594,299.86444,514.1784,300.0229,514.22156,300.27466C514.2648,300.52643,514.3231,300.87042,514.3528,301.02832C514.3825,301.18622,514.44904,301.533,514.5005,301.78436C514.5519,302.03577,514.58765,302.19315,514.66785,302.54147C514.748,302.8898,514.78595,303.04517,514.8491,303.2985C514.91235,303.55182,515.00323,303.9014,515.0453,304.0564C515.08734,304.2114,515.1836,304.56284,515.256,304.81506C515.3283,305.06726,515.37476,305.2216,515.4816,305.57324C515.5885,305.9249,515.63727,306.07755,515.71967,306.33002C515.80206,306.58252,515.91736,306.93427,515.97107,307.08585C516.0248,307.23743,516.1511,307.58792,516.2422,307.83844C516.3333,308.08896,516.3912,308.2394,516.53284,308.58698C516.67444,308.93454,516.7373,309.08316,516.84515,309.3301C516.953,309.57706,517.08765,309.92694,517.1179,310.0428L517.1191,310.0428C517.1048,309.97635,517.075,309.8212,517.0431,309.55356C516.9985,309.18018,516.9811,309.01987,516.9513,308.75327C516.92145,308.48666,516.8757,308.11435,516.8538,307.95642C516.832,307.79852,516.77686,307.43002,516.7377,307.16754C516.6984,306.9051,516.6764,306.74927,516.6164,306.3841C516.5564,306.01892,516.53217,305.8646,516.49176,305.60638C516.45135,305.3482,516.3921,304.9855,516.36865,304.83414C516.3452,304.68277,516.2914,304.3221,516.2512,304.06738C516.21106,303.81265,516.19037,303.66446,516.1376,303.3073C516.0847,302.95013,516.0649,302.8031,516.03424,302.55295C516.0036,302.3028,515.95825,301.94833,515.942,301.8053C515.92584,301.66223,515.88934,301.31088,515.8617,301.0652C515.8341,300.81952,515.8241,300.68054,515.79517,300.33282C515.76624,299.9851,515.7563,299.84827,515.7433,299.60876C515.7302,299.36926,515.7106,299.02548,515.70667,298.8935C515.7028,298.7615,515.70465,298.42114,515.6826,298.18747C515.6605,297.9538,515.6532,297.82654,515.6327,297.49158C515.6121,297.1566,515.6027,297.02783,515.5969,296.79834C515.59106,296.56882,515.58105,296.23694,515.57983,296.1084C515.5787,295.97986,515.57874,295.65082,515.5785,295.4212C515.5782,295.1916,515.5817,295.0629,515.592,294.7361C515.60223,294.40933,515.6058,294.27872,515.6191,294.05164C515.6324,293.82452,515.6518,293.49994,515.6608,293.369C515.66986,293.23804,515.69476,292.91495,515.71045,292.687C515.7262,292.4591,515.73987,292.3276,515.7717,292.0062C515.8035,291.68478,515.8129,291.55093,515.83606,291.32397C515.85913,291.09702,515.8936,290.7763,515.9081,290.64227C515.9226,290.50824,515.9566,290.1876,515.98035,289.95947C516.00415,289.73138,516.01746,289.59586,516.0519,289.27527C516.08624,288.9547,516.09796,288.81778,516.12085,288.58905C516.1438,288.3603,516.1679,288.03754,516.178,287.89948C516.18805,287.76144,516.2065,287.43744,516.2028,287.2727C516.2127,287.05652,516.1308,287.08527,516.13116,287.0358 Z"/></g><g id="change1_12"><path d="M503.3578,324.37427C503.32413,324.48627,503.25214,324.8781,503.20685,325.162C503.15945,325.45923,503.13312,325.63675,503.0828,326.05C503.03247,326.4632,503.01447,326.64188,502.98602,326.93378C502.95755,327.22568,502.92093,327.63327,502.90735,327.80914C502.8938,327.98502,502.87006,328.38382,502.85126,328.6712C502.83243,328.95862,502.8271,329.12973,502.81528,329.51672C502.80347,329.90372,502.7971,330.0771,502.7952,330.34686C502.7933,330.61664,502.79425,330.98862,502.798,331.15533C502.80176,331.32208,502.8148,331.67624,502.82483,331.93674C502.83487,332.19724,502.8484,332.35596,502.8755,332.68936C502.90262,333.02277,502.91724,333.1862,502.95068,333.41815C502.9841,333.6501,503.0305,333.95908,503.06024,334.11453C503.08997,334.27,503.18707,334.54315,503.25476,334.75696C503.32242,334.97076,503.38043,335.1114,503.4843,335.35602C503.58817,335.60068,503.65036,335.74582,503.75003,335.91666C503.8497,336.0875,503.97452,336.2967,504.0456,336.40576C504.1167,336.51486,504.21176,336.63458,504.29108,336.73508C504.37036,336.83557,504.4406,336.909,504.54553,337.0116C504.65048,337.1142,504.71964,337.18573,504.81287,337.2624C504.90607,337.33902,505.01962,337.42566,505.0974,337.48138C505.17517,337.5371,505.2949,337.6113,505.39423,337.67236C505.49356,337.73343,505.57605,337.7746,505.70355,337.83466C505.83105,337.89468,505.9106,337.93362,506.01935,337.97305C506.12805,338.01248,506.26254,338.05887,506.34412,338.08472C506.4257,338.11053,506.56616,338.1455,506.67627,338.1734C506.78638,338.2013,506.8683,338.21677,507.01422,338.24127C507.1602,338.26575,507.23914,338.27982,507.35498,338.29193C507.47083,338.30402,507.62222,338.3165,507.70105,338.32178C507.77985,338.32706,507.93555,338.3309,508.0518,338.33502C508.11615,338.3373,508.16895,338.33838,508.23032,338.33838C508.2798,338.33838,508.3348,338.33768,508.40598,338.33633C508.5654,338.3333,508.64166,338.33194,508.76193,338.3226C508.8822,338.31326,509.04504,338.30005,509.10156,338.2954C509.15808,338.29074,509.23853,338.28217,509.2973,338.276C509.3561,338.26987,509.39316,338.26556,509.47427,338.25568C509.5554,338.24582,509.5921,338.24152,509.6513,338.23364C509.71054,338.22574,509.79233,338.21436,509.82898,338.20874C509.86566,338.20316,509.9477,338.18976,510.00693,338.18002C510.06616,338.1703,510.10263,338.1635,510.18518,338.14783C510.2677,338.13214,510.30396,338.12537,510.36365,338.11353C510.4233,338.10168,510.50604,338.08514,510.54224,338.07788C510.57843,338.0706,510.6615,338.05246,510.721,338.03912C510.78055,338.02582,510.81668,338.01755,510.89996,337.99835C510.98322,337.97916,511.01917,337.97092,511.07892,337.95685C511.13864,337.9428,511.22202,337.92203,511.2579,337.9129C511.2938,337.90378,511.3773,337.8824,511.43695,337.86707C511.49664,337.85178,511.53247,337.84247,511.61606,337.8208C511.69174,337.8012,511.72867,337.7964,511.78,337.79153L511.77487,337.79153C511.7497,337.79333,511.72818,337.79425,511.70438,337.79425C511.69498,337.79425,511.6852,337.79413,511.6747,337.79382C511.61346,337.7921,511.52734,337.78577,511.49054,337.78302C511.4537,337.78027,511.36777,337.77374,511.30643,337.76904C511.2451,337.76437,511.20853,337.76144,511.1229,337.75543C511.03726,337.74945,511.00085,337.7471,510.94012,337.74292C510.87936,337.73877,510.7941,337.73294,510.7581,337.7303C510.72208,337.72766,510.63727,337.72134,510.57706,337.71735C510.51685,337.71332,510.48132,337.71088,510.3971,337.70538C510.3129,337.6999,510.27783,337.69745,510.21848,337.69296C510.15912,337.68848,510.0754,337.6822,510.04083,337.67944C510.00626,337.67673,509.92334,337.67108,509.8648,337.66702C509.80627,337.66296,509.77267,337.6601,509.69043,337.65466C509.6082,337.64926,509.5747,337.64697,509.51752,337.64252C509.46033,337.63806,509.3788,337.63184,509.34647,337.6289C509.31412,337.62595,509.23352,337.6186,509.17883,337.61334C509.1241,337.6081,509.05743,337.59998,508.89514,337.581C508.73285,337.56204,508.67114,337.5541,508.5623,337.53827C508.45343,337.52246,508.29538,337.50177,508.23895,337.49268C508.18256,337.48355,508.02954,337.455,507.92685,337.43484C507.82416,337.4147,507.7742,337.4008,507.6268,337.36487C507.4794,337.32895,507.4322,337.31705,507.33936,337.28778C507.2465,337.25854,507.10504,337.21512,507.0653,337.19983C507.0256,337.1845,506.89087,337.13135,506.80606,337.09732C506.72125,337.0633,506.68924,337.0449,506.562,336.9812C506.4348,336.91748,506.4055,336.90262,506.3321,336.85675C506.2587,336.8109,506.13934,336.7359,506.11725,336.7177C506.09518,336.6995,505.98367,336.61337,505.9181,336.56238C505.85254,336.5114,505.83597,336.4903,505.7336,336.39066C505.63126,336.29102,505.6141,336.27484,505.56018,336.20728C505.50626,336.13968,505.41492,336.02466,505.40143,336.00226C505.3879,335.97986,505.30515,335.85132,505.26126,335.78275C505.21738,335.71417,505.19028,335.65033,505.08673,335.4299C504.98322,335.20947,504.95987,335.158,504.909,334.99792C504.85812,334.83786,504.7746,334.5855,504.75528,334.5056C504.73596,334.42572,504.67303,334.14325,504.63184,333.95636C504.59067,333.76944,504.5649,333.66696,504.4936,333.36273C504.4223,333.0585,504.3946,332.95016,504.3533,332.72543C504.312,332.5007,504.25214,332.17163,504.2307,332.04132C504.2093,331.911,504.16135,331.55984,504.12753,331.3147C504.09372,331.06958,504.07825,330.92178,504.03912,330.55182C504.0,330.18182,503.9816,330.0312,503.95862,329.75934C503.9356,329.4875,503.90265,329.1017,503.88812,328.93884C503.87357,328.77597,503.8437,328.37753,503.82245,328.09448C503.8012,327.81146,503.78806,327.63962,503.7555,327.2315C503.7229,326.8234,503.70898,326.65012,503.6844,326.35474C503.65982,326.05933,503.623,325.64468,503.60275,325.46667C503.58252,325.28867,503.5321,324.8704,503.48755,324.6609C503.44736,324.37946,503.37015,324.44077,503.36282,324.37427 Z"/></g><g id="change1_6"><path d="M462.49545,394.11612C462.4838,394.19162,462.48447,394.5349,462.48944,394.77954C462.49445,395.02417,462.5,395.1696,462.51825,395.5072C462.53647,395.84482,462.54453,395.99063,462.56427,396.2273C462.584,396.464,462.61142,396.79465,462.62537,396.93643C462.63928,397.07822,462.67322,397.39954,462.69922,397.63055C462.72525,397.86154,462.74432,397.99756,462.78632,398.30643C462.82828,398.6153,462.8456,398.75348,462.88184,398.96594C462.91803,399.1784,462.96713,399.4721,462.99176,399.60217C463.01642,399.73224,463.069,400.0089,463.1098,400.21164C463.15057,400.41437,463.18103,400.5355,463.24408,400.79053C463.3071,401.0456,463.3389,401.17023,463.40613,401.33878C463.47333,401.50732,463.565,401.7313,463.613,401.8416C463.661,401.9519,463.7616,402.14728,463.83698,402.29968C463.91232,402.4521,463.97116,402.54907,464.0752,402.7154C464.17923,402.88168,464.2415,402.98257,464.3321,403.09338C464.42267,403.20416,464.53403,403.3365,464.58606,403.39667C464.63812,403.45688,464.67825,403.49472,464.71277,403.5278C464.74725,403.56088,464.77747,403.58765,464.81824,403.62122C464.859,403.6548,464.88977,403.6812,464.9262,403.708C464.96262,403.73477,465.00406,403.76425,465.03668,403.78717C465.0693,403.81006,465.1114,403.83554,465.14908,403.85886C465.18677,403.88217,465.22113,403.9014,465.2638,403.923C465.30646,403.9446,465.34094,403.96304,465.3801,403.9801C465.41925,403.99716,465.46262,404.01514,465.49817,404.0293C465.5337,404.04346,465.57776,404.05704,465.61743,404.06985C465.6571,404.08267,465.69308,404.09274,465.73785,404.1029C465.78262,404.1131,465.81778,404.1222,465.85822,404.12915C465.89862,404.13614,465.94412,404.14304,465.979,404.14832C466.01385,404.15363,466.05948,404.15726,466.09943,404.1609C466.13937,404.16455,466.17374,404.1664,466.21985,404.16766C466.25677,404.16864,466.2853,404.16986,466.3158,404.16986C466.32343,404.16986,466.33115,404.1698,466.33917,404.16962C466.3793,404.16876,466.42587,404.16708,466.4724,404.16425C466.51895,404.16138,466.60803,404.14917,466.6813,404.1397C466.75458,404.13028,466.81207,404.1187,466.9023,404.09595C466.99255,404.07315,467.04633,404.0607,467.11887,404.03674C467.1914,404.0128,467.28284,403.98138,467.3335,403.96326C467.38416,403.9451,467.47656,403.90616,467.54684,403.87695C467.61713,403.84772,467.66528,403.82523,467.75864,403.77957C467.852,403.73392,467.89832,403.71188,467.96826,403.67297C468.0382,403.6341,468.1316,403.58087,468.1759,403.55493C468.2202,403.52896,468.31354,403.46902,468.38153,403.42554C468.44955,403.38205,468.49246,403.35318,468.58618,403.2889C468.6799,403.22464,468.72134,403.19556,468.7887,403.14566C468.85605,403.09576,468.94922,403.02652,468.99005,402.99585C469.03085,402.96515,469.12424,402.8933,469.19046,402.8408C469.25668,402.78827,469.29666,402.75586,469.38922,402.68063C469.48178,402.6054,469.52145,402.57318,469.59216,402.5266C469.61444,402.51193,469.63986,402.496,469.66528,402.4805L469.66058,402.4805C469.55908,402.53815,469.51114,402.5562,469.43176,402.58566C469.3519,402.6153,469.24008,402.6568,469.19263,402.67407C469.14514,402.6913,469.03403,402.73132,468.9557,402.7608C468.87738,402.79025,468.83142,402.8066,468.7221,402.8458C468.61282,402.88498,468.56766,402.90094,468.49176,402.927C468.41586,402.9531,468.3087,402.99075,468.26587,403.0047C468.22302,403.01865,468.11737,403.05234,468.04413,403.07562C467.97086,403.09888,467.9309,403.1101,467.82782,403.14072C467.72476,403.17133,467.68695,403.1826,467.6183,403.2003C467.54962,403.218,467.4491,403.24448,467.4148,403.25165C467.38052,403.2588,467.28235,403.27884,467.21765,403.29156C467.15298,403.30432,467.12347,403.3069,467.0277,403.3197C466.93198,403.33255,466.9054,403.33493,466.8465,403.33707C466.79343,403.339,466.71277,403.34335,466.68262,403.34335C466.67932,403.34335,466.6766,403.34332,466.67462,403.3432C466.6545,403.34204,466.5645,403.33948,466.50635,403.3377C466.4482,403.33594,466.45114,403.33408,466.4047,403.3296C466.35825,403.32513,466.35193,403.32382,466.326,403.3191C466.30005,403.3144,466.2546,403.30698,466.24985,403.30475C466.2451,403.3025,466.20065,403.2914,466.17645,403.28488C466.15222,403.27835,466.14908,403.27567,466.10568,403.26154C466.0623,403.24738,466.05984,403.24548,466.03748,403.2354C466.01508,403.22534,465.9728,403.20804,465.97137,403.2058C465.96994,403.20355,465.92853,403.18283,465.90735,403.1716C465.88614,403.16037,465.88547,403.15802,465.84488,403.13455C465.8043,403.11108,465.80353,403.10965,465.78333,403.09485C465.76315,403.08005,465.72357,403.05295,465.7226,403.05066C465.7216,403.0484,465.6833,403.01767,465.6635,403.00122C465.64374,402.9848,465.64218,402.9813,465.60498,402.94666C465.56778,402.912,465.56573,402.90887,465.54684,402.8875C465.52795,402.86618,465.49207,402.82764,465.48926,402.82266C465.48648,402.8177,465.45175,402.77505,465.44226,402.76257C465.43274,402.75006,465.40176,402.69928,465.3088,402.55347C465.21585,402.40762,465.19815,402.37753,465.14584,402.2663C465.09354,402.15506,465.00986,401.97754,464.988,401.92026C464.96616,401.86298,464.88873,401.65753,464.83957,401.52032C464.7904,401.38315,464.76605,401.30362,464.69916,401.07083C464.63226,400.83804,464.5983,400.7586,464.5379,400.58936C464.47748,400.42014,464.38953,400.17252,464.3559,400.07336C464.32224,399.97418,464.23526,399.70642,464.1733,399.51947C464.11136,399.33255,464.07864,399.21765,463.99573,398.9317C463.91284,398.64578,463.87802,398.529,463.81744,398.31754C463.7569,398.10608,463.67395,397.80566,463.63956,397.67804C463.60516,397.55038,463.51965,397.2389,463.45834,397.01758C463.39703,396.79623,463.36026,396.66122,463.2724,396.34137C463.18454,396.0215,463.14578,395.8857,463.08002,395.6541C463.01422,395.42255,462.9159,395.0986,462.873,394.9596C462.83005,394.82056,462.72342,394.495,462.65613,394.33453C462.57687,394.1025,462.50742,394.18768,462.49545,394.11612 Z"/></g><g id="change1_20"><path d="M487.64792,267.176C487.6388,267.176,487.62967,267.1761,487.62024,267.17624C487.5911,267.17673,487.55917,267.17685,487.5318,267.1786C487.50443,267.18036,487.47345,267.18207,487.44354,267.18433C487.41364,267.1866,487.38638,267.19037,487.35553,267.19376C487.32468,267.19714,487.29626,267.2015,487.2671,267.20682C487.23795,267.21213,487.2079,267.21713,487.17938,267.22385C487.15085,267.23056,487.12103,267.2374,487.0919,267.24475C487.06274,267.25208,487.03378,267.26147,487.00464,267.27008C486.97546,267.27866,486.94745,267.28827,486.91895,267.29904C486.89044,267.3098,486.86227,267.3202,486.83337,267.33325C486.8045,267.34634,486.77716,267.3588,486.74927,267.3722C486.72137,267.3856,486.69424,267.4008,486.6673,267.41522C486.64038,267.42966,486.6127,267.4459,486.58606,267.46283C486.55945,267.4798,486.5331,267.49622,486.50732,267.51428C486.4815,267.53235,486.45523,267.5505,486.40875,267.58847C486.3623,267.62643,486.30634,267.6809,486.20392,267.7803C486.1015,267.8797,486.01645,267.97266,485.93494,268.0911C485.85342,268.20953,485.7632,268.34238,485.70746,268.44705C485.6517,268.55173,485.56308,268.7109,485.5122,268.84875C485.46133,268.9866,485.43008,269.10028,485.38016,269.29663C485.33023,269.49298,485.30228,269.6,485.27393,269.7678C485.24554,269.93558,485.21027,270.15588,485.1933,270.2697C485.1763,270.38354,485.14838,270.62344,485.12823,270.80048C485.1081,270.97754,485.0977,271.09802,485.08307,271.3559C485.06848,271.61377,485.06042,271.73154,485.0532,271.92926C485.04596,272.12695,485.03882,272.39914,485.03748,272.523C485.03613,272.64688,485.03693,272.93073,485.0394,273.135C485.04187,273.3393,485.04456,273.4673,485.05396,273.75992C485.06335,274.05255,485.06964,274.1795,485.0811,274.39337C485.09253,274.60724,485.11542,274.90616,485.1264,275.03528C485.13742,275.1644,485.16898,275.46643,485.19678,275.61804C485.2209,275.82986,485.3039,275.77594,485.3039,275.83456L485.30508,275.83456C485.3304,275.76477,485.39346,275.47403,485.4361,275.26544C485.4795,275.05325,485.50323,274.9274,485.55554,274.63263C485.60788,274.33786,485.628,274.2127,485.66388,274.00714C485.69977,273.80157,485.7442,273.5124,485.76425,273.3932C485.7843,273.27396,485.83197,272.99402,485.86444,272.7962C485.89688,272.5984,485.91772,272.48837,485.96423,272.22018C486.0107,271.952,486.02936,271.8439,486.06525,271.66675C486.10117,271.48962,486.15506,271.23688,486.17462,271.1427C486.1942,271.0485,486.25018,270.81345,486.2871,270.6526C486.32407,270.4917,486.3479,270.4159,486.4118,270.2022C486.47574,269.9885,486.49686,269.9177,486.5429,269.7931C486.58896,269.66846,486.65805,269.47803,486.67847,269.43317C486.69888,269.3883,486.77774,269.225,486.80902,269.12094C486.84027,269.01688,486.85043,268.99924,486.92523,268.85696C487.0,268.7147,487.0001,268.70203,487.04462,268.64877C487.0871,268.59802,487.17075,268.49487,487.17014,268.48798L487.16794,268.48798C487.16287,268.48798,487.18387,268.4689,487.1924,268.4602C487.20157,268.4509,487.19742,268.45312,487.2218,268.43433C487.24622,268.41553,487.24106,268.41794,487.25116,268.4108C487.2599,268.40463,487.28003,268.39108,487.28217,268.38882L487.2812,268.38882C487.27994,268.38882,487.30365,268.375,487.31354,268.3686C487.32407,268.36176,487.3185,268.36383,487.34564,268.3499C487.37274,268.33597,487.36792,268.33685,487.38,268.33102C487.39148,268.32547,487.41678,268.3142,487.41565,268.31357L487.415,268.31357C487.41235,268.31357,487.4399,268.30325,487.45215,268.29803C487.46466,268.2927,487.46155,268.29276,487.49106,268.2837C487.52057,268.27466,487.51788,268.2742,487.53177,268.27036C487.54565,268.2665,487.57584,268.2591,487.57446,268.25842C487.57306,268.25772,487.60388,268.2519,487.61945,268.2484C487.63504,268.2449,487.63443,268.24423,487.66626,268.23987C487.6981,268.2355,487.69864,268.2344,487.7157,268.23254C487.73273,268.2307,487.76486,268.2278,487.77133,268.2267C487.7778,268.22562,487.88925,268.2261,487.95337,268.22485C487.96402,268.22464,487.9735,268.22452,487.98248,268.22452C488.0275,268.22452,488.05936,268.22772,488.15817,268.23993C488.27667,268.2546,488.30447,268.25595,488.38345,268.2718C488.46243,268.28766,488.58804,268.3133,488.6272,268.32147C488.66635,268.32962,488.79788,268.36676,488.88547,268.39215C488.97305,268.4175,489.02036,268.4341,489.15698,268.4821C489.29358,268.53006,489.34406,268.54657,489.44196,268.58337C489.5399,268.62015,489.68246,268.67435,489.73898,268.69635C489.7955,268.71835,489.94226,268.78024,490.04526,268.82343C490.14825,268.86658,490.20905,268.89374,490.36,268.9607C490.5109,269.02768,490.5736,269.05457,490.68365,269.1031C490.7937,269.15158,490.9496,269.22018,491.0157,269.24963C491.08176,269.2791,491.241,269.34946,491.35474,269.39926C491.46848,269.44907,491.53705,269.4798,491.69922,269.5504C491.86142,269.62106,491.93103,269.65103,492.0465,269.70374C492.16196,269.75647,492.30957,269.85205,492.35703,269.8828L492.35754,269.8828C492.33118,269.8649,492.27,269.82233,492.16864,269.74615C492.0277,269.64023,491.97113,269.58878,491.8772,269.5041C491.78323,269.4194,491.65088,269.3022,491.59354,269.25275C491.5362,269.20328,491.4039,269.09,491.3083,269.00946C491.2127,268.9289,491.15466,268.88248,491.02197,268.77582C490.88925,268.66913,490.8299,268.6225,490.73413,268.55136C490.63834,268.48022,490.50452,268.38367,490.44397,268.34186C490.3834,268.30002,490.25165,268.2106,490.15485,268.1453C490.058,268.08,489.99704,268.0424,489.86783,267.9613C489.73862,267.8802,489.67535,267.8416,489.58038,267.79022C489.4854,267.73886,489.35764,267.67062,489.2921,267.6396C489.22662,267.60858,489.10245,267.55176,489.00653,267.5075C488.9106,267.46323,488.8428,267.43842,488.7232,267.39258C488.6036,267.34677,488.53098,267.3223,488.437,267.2983C488.34302,267.27432,488.2276,267.2442,488.14944,267.23065C488.0713,267.21707,487.96097,267.202,487.8767,267.19092C487.79242,267.1798,487.7407,267.17868,487.7082,267.1773C487.68622,267.1764,487.66705,267.176,487.64792,267.176 Z"/></g><g id="change1_5"><path d="M440.19257,240.48285Q440.1806,240.48285,440.16772,240.48465L440.16907,240.4976Q440.35797,241.79768,440.88696,243.1622Q441.31375,244.22061,441.81784,244.60587Q442.44702,245.18735,443.5256,245.31065Q443.70233,245.33305,443.91275,245.33305Q444.6461,245.33305,445.7885,245.06096Q443.45917,244.90608,442.73248,244.24593Q442.6253,244.16953,442.43924,243.95924L442.33826,243.80519Q442.19968,243.66405,441.99326,243.41489Q441.829,243.21231,441.695,243.0077Q441.42657,242.61058,441.24524,242.27156L440.32193,240.58372Q440.28235,240.48285,440.19257,240.48285 Z"/></g><g id="change1_11"><path d="M458.28665,250.06479C458.24957,250.06479,458.23138,250.0845,458.2141,250.0845C458.21115,250.0845,458.20822,250.08392,458.20523,250.08257L458.20065,250.08257C458.23376,250.13452,458.3738,250.3062,458.47522,250.4294C458.58035,250.55707,458.64365,250.63301,458.794,250.80847C458.9444,250.98395,459.00818,251.05818,459.11722,251.18106C459.22626,251.30392,459.3786,251.47751,459.4423,251.55042C459.50598,251.62334,459.65918,251.79642,459.76797,251.91817C459.87677,252.03992,459.93835,252.11356,460.09042,252.28879C460.2425,252.46404,460.30417,252.53539,460.4088,252.66179C460.51346,252.7882,460.66522,252.96501,460.7248,253.03711C460.78433,253.10922,460.93216,253.29166,461.0339,253.4198C461.13565,253.54793,461.19016,253.62366,461.33508,253.81122C461.48004,253.9988,461.53494,254.0719,461.63202,254.20694C461.72913,254.34196,461.8672,254.53848,461.91772,254.61502C461.9683,254.69154,462.1032,254.89445,462.19586,255.03354C462.28848,255.17262,462.33606,255.25241,462.4651,255.46443C462.5941,255.67645,462.64084,255.75446,462.724,255.90701C462.80713,256.05957,462.92914,256.282,462.97165,256.36572C463.01416,256.4494,463.12872,256.68292,463.20685,256.8429C463.285,257.00287,463.32416,257.0939,463.46463,257.3213C463.6051,257.5487,463.6557,257.63687,463.74292,257.80432C463.83014,257.9718,463.9558,258.21393,464.00494,258.31024C464.0541,258.40656,464.17758,258.65665,464.2619,258.83252C464.34622,259.0084,464.39487,259.11145,464.51355,259.36993C464.63223,259.62842,464.6799,259.73355,464.76147,259.92004C464.84308,260.1065,464.96024,260.37115,465.00818,260.48145C465.05615,260.5917,465.17023,260.86246,465.25226,261.05383C465.33426,261.24524,465.3829,261.35956,465.49683,261.63458C465.61072,261.90964,465.65973,262.02496,465.7433,262.222C465.8268,262.419,465.94556,262.69592,465.99573,262.814C466.0459,262.93207,466.1641,263.21182,466.2528,263.40997C466.34152,263.60815,466.3953,263.72723,466.5243,264.00555C466.65326,264.28384,466.70923,264.40274,466.8054,264.6009C466.90155,264.79907,467.01328,265.0834,467.04123,265.1772L467.0421,265.1772C467.02838,265.1234,466.999,264.99774,466.96283,264.78082C466.91238,264.4782,466.89514,264.34708,466.86346,264.13004C466.8318,263.913,466.78403,263.61023,466.7625,263.48047C466.74097,263.3507,466.68686,263.05124,466.64417,262.83795C466.6015,262.62463,466.57446,262.49695,466.51227,262.2021C466.4501,261.90726,466.4209,261.77936,466.36877,261.57202C466.31662,261.36472,466.24692,261.0752,466.21527,260.9488C466.18365,260.82242,466.10645,260.5389,466.05032,260.33423C465.9942,260.12958,465.95773,260.00604,465.8763,259.7283C465.7949,259.45056,465.7559,259.32632,465.6922,259.13004C465.62848,258.93375,465.53842,258.66406,465.4973,258.54205C465.4562,258.42,465.35812,258.15915,465.28973,257.96677C465.2213,257.77438,465.17377,257.65643,465.07257,257.40298C464.97137,257.14954,464.92285,257.02994,464.84326,256.85004C464.76367,256.67014,464.67493,256.41684,464.6103,256.30615C464.5457,256.19547,464.40863,255.97443,464.30676,255.80957C464.2049,255.64471,464.135,255.54088,463.99164,255.33157C463.84827,255.12225,463.77884,255.01984,463.6679,254.87177C463.55698,254.72371,463.40765,254.52545,463.3346,254.43149C463.26154,254.33754,463.1068,254.14934,462.99176,254.01085C462.87674,253.87236,462.7995,253.78714,462.63788,253.60962C462.4763,253.4321,462.4014,253.34744,462.27927,253.22284C462.15714,253.09824,461.993,252.9273,461.9138,252.8514C461.83456,252.77548,461.66324,252.61484,461.53912,252.49706C461.41498,252.37927,461.33588,252.30788,461.16083,252.15388C460.98578,251.9999,460.9066,251.93086,460.77692,251.82367C460.64722,251.71648,460.46753,251.56964,460.38666,251.50601C460.30582,251.4424,460.12463,251.29922,459.99304,251.19757C459.86142,251.09592,459.77954,251.03644,459.59338,250.90009C459.4072,250.76375,459.3252,250.70601,459.1883,250.6129C459.0514,250.51979,458.8594,250.39095,458.77606,250.33652C458.69272,250.28207,458.49615,250.15894,458.39252,250.10342C458.34503,250.07368,458.31158,250.06479,458.28665,250.06479 Z"/></g><g id="change1_27"><path d="M530.57477,268.7937Q530.55365,268.7937,530.53253,268.79385L530.48517,268.79446Q529.4069,268.79767,528.07306,269.30902Q527.3724,269.5809,526.5573,270.04526Q526.0969,270.3089,525.6482,270.61777Q525.56586,270.6576,525.5746,270.76514Q528.20636,270.04828,528.34644,270.04828Q528.34875,270.04828,528.35034,270.04846Q529.1662,269.88074,529.889,269.87747Q531.5045,269.88025,532.7807,270.88336Q533.66907,271.6403,534.1855,272.30948L536.2419,275.0129Q537.0264,276.12592,537.68616,277.1334L540.21387,281.05588L541.7891,283.33167Q539.65656,277.24783,536.2977,272.25702Q534.6197,270.28177,533.5366,269.67767Q532.10815,268.7937,530.57477,268.7937 Z"/></g><g id="change1_30"><path d="M583.2128,311.81644L582.6563,313.89148Q581.9213,317.093,581.3025,319.50638L580.2803,322.8438Q579.9802,323.6748,579.83276,323.97177Q579.08374,325.4248,578.31244,326.1963Q577.63916,326.91858,575.0903,328.69427L575.08057,328.75406L576.0624,328.47528L577.13745,328.0527Q577.76556,327.8021,578.993,326.905Q579.6503,326.38025,580.21216,325.69656Q581.1623,324.44547,581.46686,323.73898Q582.14777,322.25104,582.2454,321.76212Q582.4278,321.19318,582.8286,318.6081Q583.0405,316.98392,583.1662,315.35236Q583.29724,312.56046,583.2128,311.81644 Z"/></g><g id="change1_13"><path d="M601.76416,273.22968C601.7444,273.28787,601.7128,273.37527,601.66516,273.49518C601.56696,273.74197,601.5193,273.84604,601.4417,274.01892C601.36414,274.19183,601.25635,274.4343,601.2119,274.53693C601.16754,274.63953,601.0626,274.8792,600.9905,275.05008C600.91833,275.22095,600.87665,275.32004,600.7777,275.5564C600.6787,275.7928,600.6375,275.89035,600.56537,276.05176C600.4932,276.2132,600.3951,276.4432,600.3557,276.53436C600.31635,276.6255,600.21606,276.8466,600.1448,277.00006C600.07355,277.15356,600.0318,277.2349,599.92896,277.44556C599.8261,277.65625,599.7868,277.73526,599.7119,277.87054C599.63696,278.00586,599.52844,278.20325,599.48804,278.26993C599.4476,278.3366,599.33496,278.5204,599.25903,278.6419C599.18317,278.7634,599.1425,278.81528,599.0224,278.98206C598.9023,279.14883,598.8652,279.1971,598.78375,279.29254C598.70233,279.38797,598.56537,279.52957,598.53827,279.56726C598.51117,279.60492,598.38794,279.74606,598.3104,279.83636C598.233,279.9267,598.2184,279.94104,598.11505,280.03595C598.0117,280.1309,597.991,280.15414,597.9253,280.20615C597.8596,280.25815,597.75073,280.34305,597.7257,280.3629C597.70074,280.3828,597.5846,280.45526,597.51227,280.50113C597.43994,280.547,597.4098,280.56403,597.28815,280.62726C597.1665,280.6905,597.1337,280.70868,597.05273,280.74304C596.9718,280.77744,596.8456,280.83395,596.80756,280.85077C596.76953,280.86755,596.6376,280.91345,596.5508,280.94427C596.4639,280.97513,596.41986,280.98822,596.2834,281.02637C596.1469,281.0645,596.1007,281.07846,596.0065,281.1009C595.9123,281.12332,595.772,281.15686,595.7207,281.1687C595.66943,281.1805,595.52545,281.20807,595.4265,281.22736C595.3275,281.24664,595.272,281.2556,595.1249,281.28015C594.9778,281.30472,594.92035,281.31393,594.81604,281.32666C594.71173,281.33936,594.562,281.35968,594.5013,281.36765C594.44055,281.3756,594.28845,281.39478,594.1802,281.40762C594.0719,281.42047,594.0553,281.4223,594.01025,281.42664C593.9652,281.43097,593.94653,281.43283,593.91455,281.43616C593.8825,281.43945,593.8373,281.44507,593.8185,281.44745C593.7996,281.4498,593.7543,281.4552,593.72205,281.45905C593.6899,281.46292,593.6708,281.46518,593.6253,281.4704C593.57983,281.47562,593.56067,281.47787,593.5283,281.4815C593.4959,281.48514,593.45026,281.4902,593.431,281.49237C593.41174,281.4945,593.3661,281.49942,593.3335,281.50336C593.3009,281.5073,593.2815,281.50967,593.2357,281.51526C593.19,281.52084,593.17065,281.52322,593.13794,281.52713C593.1052,281.53104,593.0593,281.53668,593.0397,281.5393C593.0201,281.54196,592.9741,281.54816,592.9414,281.55255C592.9086,281.55692,592.889,281.5595,592.84296,281.5656C592.79694,281.5717,592.7773,281.57428,592.74445,281.5786C592.7116,281.58292,592.6656,281.58896,592.6459,281.59155C592.6262,281.59415,592.58014,281.60016,592.5571,281.6048C592.5243,281.6091,592.53125,281.69162,592.5215,281.69162L592.5214,281.69162C592.5312,281.6952,592.5767,281.70428,592.60925,281.7108C592.6418,281.7173,592.6613,281.72116,592.7068,281.7302C592.75226,281.73923,592.7718,281.7431,592.8043,281.74957C592.83685,281.756,592.8824,281.765,592.902,281.76886C592.9215,281.77274,592.96704,281.78168,592.9995,281.78806C593.03204,281.79443,593.05164,281.79828,593.09717,281.80652C593.1427,281.81473,593.16235,281.8182,593.19495,281.8239C593.22754,281.8296,593.27295,281.83755,593.2926,281.84094C593.3122,281.84436,593.35754,281.85196,593.39026,281.85706C593.4229,281.86212,593.44257,281.86508,593.488,281.872C593.5334,281.87897,593.5531,281.88193,593.58563,281.88678C593.61816,281.8916,593.66345,281.89835,593.68335,281.9012C593.7032,281.90408,593.7484,281.91064,593.781,281.91534C593.8136,281.92,593.8335,281.92273,593.87866,281.92865C593.9239,281.9346,593.9437,281.93668,593.9763,281.93994C594.00885,281.94324,594.05383,281.9478,594.0979,281.95166C594.142,281.95554,594.29456,281.97083,594.4054,281.9818C594.5163,281.99277,594.58496,281.9967,594.7358,282.005C594.8866,282.01334,594.9567,282.01608,595.0659,282.01855C595.1648,282.0208,595.29626,282.02472,595.37286,282.02472C595.3809,282.02472,595.38837,282.0247,595.3951,282.0246C595.46594,282.02365,595.6125,282.02008,595.7219,282.01697C595.8313,282.01385,595.9027,282.00812,596.04663,281.998C596.1905,281.98788,596.26416,281.9805,596.37054,281.9651C596.4769,281.9497,596.61725,281.9298,596.6913,281.91602C596.7653,281.9022,596.9021,281.87402,597.0084,281.85168C597.1148,281.82935,597.18933,281.80856,597.32263,281.77206C597.4559,281.73557,597.5323,281.71124,597.63354,281.6724C597.73486,281.63354,597.8635,281.5863,597.9393,281.55264C598.015,281.51898,598.13794,281.45892,598.23785,281.4099C598.33777,281.3609,598.4115,281.3163,598.5306,281.24646C598.64966,281.17664,598.7248,281.12943,598.8169,281.0606C598.90894,280.9918,599.0211,280.9076,599.0999,280.83844C599.1787,280.7693,599.3154,280.64096,599.42535,280.53586C599.5353,280.43076,599.612,280.33994,599.7207,280.1767C599.82947,280.01343,599.8942,279.92087,599.97327,279.78113C600.05237,279.64142,600.1545,279.46298,600.20605,279.36353C600.2577,279.26407,600.34937,279.06897,600.4186,278.92212C600.4878,278.77527,600.5299,278.67065,600.6116,278.46057C600.6932,278.25052,600.73334,278.14896,600.7888,277.98447C600.84424,277.81998,600.9185,277.59763,600.9509,277.4912C600.9833,277.38477,601.0476,277.15054,601.09625,276.98077C601.1449,276.81097,601.1733,276.70145,601.2302,276.4578C601.28723,276.21414,601.3121,276.10556,601.3489,275.9243C601.3856,275.743,601.43634,275.4918,601.4573,275.3806C601.4782,275.26947,601.5204,275.01154,601.54846,274.82626C601.5766,274.641,601.59265,274.52768,601.62537,274.26437C601.658,274.00107,601.6708,273.88766,601.6903,273.6975C601.7061,273.543,601.74445,273.3431,601.7702,273.22968 Z"/></g><g id="change1_18"><path d="M617.551,315.8373Q617.5437,315.8373,617.5362,315.84354L617.52,315.89285Q617.0463,317.62833,616.5947,321.6851Q616.2696,324.57047,616.2709,327.37457Q616.24524,328.9987,616.5877,330.80493Q617.01483,332.39294,617.68964,333.2427Q618.76685,334.56448,620.5404,334.56448Q621.4122,334.56448,622.4521,334.24518Q624.3496,333.60956,626.2034,332.21848Q628.15106,330.76547,628.4959,329.68402Q628.59326,329.38217,628.604,329.10968L628.5977,329.10968Q628.43317,329.8027,626.88135,330.77856Q624.3606,332.29102,622.52844,332.78845Q621.6117,333.02972,620.9174,333.02972Q619.6851,333.02972,619.1535,332.26965Q618.6943,331.5586,618.52844,330.7292Q618.0843,328.64783,618.0028,327.37244Q617.88104,325.94244,617.8401,324.15674Q617.78357,317.53177,617.7512,317.436Q617.66864,315.8373,617.551,315.8373 Z"/></g><g id="change1_15"><path d="M641.1142,265.97134C641.04724,265.9833,640.90137,266.006,640.6571,266.0279C640.303,266.0596,640.15045,266.07123,639.8988,266.0923C639.6472,266.11334,639.29614,266.1471,639.1463,266.16394C638.99646,266.18082,638.6534,266.22675,638.4074,266.26062C638.16144,266.2945,638.01605,266.31653,637.6831,266.37195C637.3502,266.4274,637.20416,266.45352,636.97266,266.49646C636.7412,266.5394,636.4209,266.6035,636.28107,266.6338C636.14124,266.6641,635.83545,266.73337,635.61304,266.78406C635.3906,266.83475,635.25867,266.87057,634.97095,266.9479C634.6833,267.02524,634.5491,267.0631,634.3518,267.12488C634.1546,267.1866,633.8884,267.27417,633.7623,267.31735C633.63617,267.36053,633.3923,267.45328,633.2051,267.5185C633.0178,267.58368,632.9063,267.64716,632.6994,267.76874C632.4925,267.89035,632.378,267.9567,632.2374,268.05624C632.0969,268.1558,631.91956,268.2833,631.8188,268.36273C631.718,268.44214,631.57306,268.57614,631.45245,268.68756C631.33185,268.799,631.2502,268.89755,631.1419,269.0404C631.0336,269.1833,630.9564,269.28333,630.8861,269.4111C630.81573,269.53888,630.73926,269.6871,630.6917,269.79694C630.64417,269.90674,630.5961,270.0603,630.5559,270.19125C630.5157,270.3222,630.4984,270.43396,630.4801,270.59326C630.4618,270.75253,630.448,270.857,630.44977,270.99176C630.45154,271.1265,630.4559,271.28986,630.4628,271.38892C630.4698,271.488,630.4971,271.65506,630.5182,271.78485C630.53925,271.9146,630.56195,272.00745,630.6078,272.17743C630.65356,272.3474,630.6767,272.4343,630.7235,272.56384C630.7704,272.69342,630.831,272.86578,630.8628,272.94897C630.89465,273.03214,630.9702,273.20557,631.0271,273.33145C631.084,273.45734,631.1222,273.5372,631.20935,273.711C631.2966,273.88483,631.3363,273.96136,631.40576,274.08643C631.47516,274.2115,631.57446,274.3837,631.61865,274.45807C631.6628,274.5324,631.7683,274.7036,631.8276,274.78656C631.87225,274.85898,631.91156,274.8637,631.9396,274.8637C631.94385,274.8637,631.94775,274.8636,631.9515,274.8636C631.9646,274.8636,631.97424,274.86496,631.9794,274.8775C631.97626,274.83286,631.9313,274.63684,631.89923,274.49725C631.8672,274.35764,631.84814,274.27542,631.8013,274.0824C631.75446,273.8894,631.73474,273.80945,631.7046,273.675C631.6745,273.54056,631.626,273.35257,631.6095,273.2776C631.593,273.2026,631.5559,273.01672,631.5287,272.88907C631.5014,272.7614,631.49054,272.69342,631.46027,272.51306C631.43,272.3327,631.4211,272.26895,631.4105,272.15082C631.3999,272.03265,631.3826,271.85754,631.3816,271.8041C631.38055,271.75067,631.3804,271.5815,631.3801,271.47443C631.3799,271.3673,631.387,271.32648,631.4042,271.1638C631.42126,271.0011,631.4259,270.96747,631.4518,270.87476C631.4777,270.782,631.5199,270.62726,631.53186,270.6055C631.5438,270.58374,631.6075,270.43616,631.6436,270.3543C631.67975,270.27246,631.69727,270.2565,631.79016,270.11798C631.8831,269.97943,631.89343,269.96478,631.9681,269.89322C632.0427,269.82166,632.16876,269.69437,632.1948,269.67593C632.2209,269.6575,632.37836,269.53848,632.4745,269.46625C632.5707,269.39398,632.621,269.36832,632.81006,269.25894C632.99915,269.14957,633.05255,269.1196,633.1953,269.05487C633.3381,268.99014,633.55597,268.88965,633.6282,268.8479C633.7004,268.80612,633.9339,268.6898,634.09204,268.60962C634.2502,268.52945,634.34424,268.48584,634.6014,268.37427C634.8585,268.2627,634.9563,268.21814,635.14856,268.14178C635.3409,268.06543,635.61816,267.9567,635.7322,267.91248C635.8462,267.8683,636.14014,267.75943,636.34717,267.68256C636.55426,267.60568,636.681,267.56174,636.98914,267.45276C637.2972,267.3438,637.42523,267.2971,637.65204,267.2217C637.87885,267.14633,638.1973,267.03375,638.3334,266.9854C638.46936,266.93704,638.7963,266.82367,639.02893,266.74106C639.2616,266.65845,639.40234,266.60663,639.73224,266.48102C640.06213,266.35544,640.20294,266.30005,640.4394,266.20526C640.6751,266.11075,641.0091,265.9969,641.1206,265.97134 Z"/></g><g id="change1_7"><path d="M658.0886,356.76956L658.07666,356.79733Q657.54456,358.3495,657.165,359.949Q656.9752,360.74872,656.8234,361.5603Q656.72375,361.95874,656.4539,364.0217Q656.32904,365.534,656.3825,366.13965Q656.64813,367.54987,656.9249,368.04608Q657.4925,369.1166,658.1545,369.5644Q658.5034,369.8211,658.9119,369.98764L659.3353,370.13168Q659.7542,370.25238,660.31024,370.2865Q660.321,370.28653,660.33167,370.28653Q661.3254,370.28653,662.0644,369.90247Q663.0855,369.3344,663.2933,369.1048Q663.7016,368.76917,664.1128,368.3385L664.10614,368.3385Q662.1114,369.4059,660.9517,369.4059Q660.8268,369.4059,660.71155,369.39352Q659.12,369.29218,658.3361,367.86542Q658.1577,367.53293,657.9929,366.72223Q657.8187,365.12238,657.81195,364.41214Q657.79626,364.1066,657.86536,362.34702Q658.1661,358.17786,658.1765,357.7145Q658.18774,357.08298,658.1706,356.92426Q658.1553,356.8211,658.0886,356.76956 Z"/></g><g id="change1_22"><path d="M676.3651,298.16507Q674.7221,298.16507,672.925,298.71753Q672.2629,298.94702,671.62195,299.29672Q671.12244,299.60413,670.5222,300.1671Q669.3386,301.21805,668.064,303.45166Q666.4695,306.4991,666.37244,307.54974L666.92535,306.82837Q668.731,304.236,668.8858,304.04788Q669.67,303.007,670.22156,302.425Q671.32227,301.1943,672.9336,300.31122Q674.0723,299.65427,676.0836,299.30276Q676.67053,299.12872,681.7637,298.7749L681.4634,298.74933Q680.4237,298.5185,679.89,298.43585Q679.57574,298.37997,678.85986,298.29562Q677.6291,298.16592,676.7517,298.16592Q676.6798,298.16592,676.6102,298.1668L676.5575,298.16696Q676.4616,298.16507,676.3651,298.16507 Z"/></g><g id="change1_32"><path d="M710.3565,292.2429L710.3565,292.2439Q710.8079,294.10175,711.88934,296.37363Q712.38916,297.37332,713.25134,298.03455Q713.7749,298.4269,714.2983,298.4269Q715.4662,298.4269,716.63306,296.47305L716.62585,296.47305Q715.4867,297.4154,714.9323,297.61224Q714.75635,297.69537,714.4951,297.69537Q714.4511,297.69537,714.4046,297.69302Q714.2259,297.6664,714.0412,297.54596Q713.8034,297.41272,713.38513,296.80072Q713.3627,296.783,713.1325,296.37708Q712.76843,295.8856,712.4329,295.3592L710.78,292.70273Q710.5529,292.36337,710.48706,292.29065Q710.4522,292.24457,710.3565,292.2429 Z"/></g><g id="change1_23"><path d="M730.95496,265.61636C730.95135,265.61636,730.9477,265.6164,730.944,265.61646C730.9347,265.6166,730.9237,265.6165,730.9158,265.61667C730.9079,265.61685,730.8976,265.61713,730.88916,265.61722C730.8808,265.6173,730.8712,265.6177,730.8202,265.6203C730.7691,265.62286,730.68805,265.6362,730.5093,265.66608C730.3305,265.69592,730.17786,265.7217,730.01434,265.78107C729.8508,265.84045,729.67084,265.91006,729.5415,265.96948C729.4121,266.02893,729.2309,266.13464,729.08276,266.22058C728.9346,266.30655,728.82355,266.3869,728.64124,266.5251C728.45886,266.66327,728.3559,266.74033,728.214,266.86838C728.072,266.99643,727.8888,267.16348,727.7954,267.25537C727.702,267.34723,727.52094,267.5428,727.38477,267.6861C727.2486,267.82938,727.16077,267.9323,726.9784,268.14868C726.79596,268.36505,726.7129,268.4667,726.5801,268.6386C726.44727,268.8105,726.2655,269.04578,726.18396,269.15515C726.1024,269.2645,725.9243,269.51758,725.796,269.6999C725.6678,269.8822,725.5908,269.99957,725.41504,270.26532C725.2392,270.5311,725.1646,270.64798,725.0411,270.8457C724.91754,271.04343,724.75195,271.32434,724.681,271.44623C724.61005,271.5681,724.45013,271.85693,724.38086,272.00958C724.26886,272.2176,724.3769,272.2127,724.33417,272.26807C724.3952,272.2268,724.63727,272.0014,724.8069,271.8382C724.97656,271.67502,725.0759,271.57758,725.3047,271.346C725.5335,271.11447,725.6303,271.01663,725.78906,270.8546C725.94775,270.69263,726.16833,270.46277,726.2604,270.3697C726.3525,270.27658,726.5696,270.05615,726.7224,269.90094C726.8753,269.74576,726.96155,269.66095,727.1727,269.45157C727.38385,269.2422,727.4685,269.16006,727.6144,269.02722C727.7603,268.89438,727.9674,268.70166,728.04504,268.6336C728.1227,268.56555,728.32623,268.39374,728.46545,268.27902C728.6046,268.1643,728.6741,268.11557,728.873,267.96738C729.0719,267.81918,729.1351,267.7731,729.26196,267.69666C729.3889,267.6202,729.58405,267.50067,729.6316,267.47736C729.67914,267.45404,729.86993,267.36676,729.9818,267.31592C730.0936,267.2651,730.11847,267.26376,730.3045,267.21228C730.49054,267.1608,730.5006,267.15805,730.5917,267.15588C730.67163,267.15402,730.82074,267.1445,730.852,267.14224L730.8593,267.14224C730.86145,267.14243,730.8641,267.14258,730.866,267.14273C730.87085,267.1431,730.8695,267.14325,730.8788,267.14392C730.888,267.14456,730.8884,267.14474,730.89136,267.14517C730.8942,267.1456,730.9041,267.1464,730.90356,267.14658C730.90295,267.14676,730.91296,267.14755,730.9155,267.1479C730.91815,267.1482,730.91766,267.14832,730.9269,267.14917C730.93604,267.15002,730.93604,267.15015,730.9408,267.1507C730.94556,267.15125,730.9546,267.15216,730.95276,267.15216L730.95245,267.15216C730.95105,267.1522,730.95966,267.15323,730.9636,267.15375C730.9678,267.15433,730.9684,267.15454,730.9774,267.1557C730.98645,267.1569,730.9854,267.15692,730.98926,267.1576C730.99304,267.1582,731.0031,267.1596,731.002,267.1596L731.00146,267.1596C731.0016,267.1598,731.0087,267.16095,731.0129,267.16165C731.0176,267.16245,731.01715,267.16257,731.0252,267.16397C731.03326,267.16537,731.0322,267.16537,731.0375,267.16638C731.0428,267.16742,731.0512,267.16898,731.0405,267.17105C731.0299,267.17313,731.21,267.23587,731.30426,267.2444C731.3985,267.2529,731.4046,267.2563,731.5879,267.34845C731.7712,267.4406,731.7938,267.4466,731.9005,267.5241C732.00714,267.60162,732.1899,267.73465,732.2354,267.77002C732.28094,267.80542,732.4624,267.97626,732.58105,268.08643C732.69965,268.19656,732.7591,268.2611,732.93933,268.4657C733.11957,268.67032,733.1849,268.73923,733.3079,268.89734C733.43097,269.05548,733.6136,269.28723,733.6825,269.38055C733.7514,269.47385,733.9343,269.73038,734.0624,269.90933C734.19037,270.0883,734.26385,270.1991,734.448,270.47583C734.63214,270.75256,734.7093,270.8648,734.8396,271.07172C734.97,271.2786,735.1585,271.5697,735.2394,271.6932C735.3202,271.8167,735.5127,272.11847,735.6509,272.3328C735.789,272.54712,735.8734,272.67743,736.07825,272.98166C736.2831,273.2859,736.3724,273.41513,736.5239,273.6328C736.67554,273.8505,736.87213,274.16306,736.9236,274.26923L736.92487,274.26923C736.8983,274.20795,736.8397,274.0637,736.7572,273.8109C736.6423,273.45874,736.59454,273.30667,736.5132,273.0572C736.4318,272.80774,736.31445,272.4605,736.2608,272.31317C736.20715,272.1658,736.0775,271.83215,735.98413,271.5923C735.8908,271.35242,735.8326,271.21155,735.6942,270.8938C735.55585,270.57605,735.4943,270.43427,735.3921,270.2163C735.2899,269.99838,735.14545,269.69928,735.0779,269.56717C735.0104,269.43506,734.8628,269.1567,734.7529,268.95236C734.64307,268.74802,734.56805,268.6281,734.4147,268.37622C734.2612,268.12436,734.18414,267.9993,734.06335,267.83258C733.9425,267.6659,733.7852,267.443,733.6963,267.33185C733.6073,267.2207,733.4436,267.03265,733.3118,266.88382C733.18005,266.735,733.0727,266.64023,732.90405,266.48984C732.7354,266.33945,732.6155,266.23993,732.4623,266.14706C732.3091,266.0542,732.1348,265.9455,731.98157,265.87634C731.8283,265.80722,731.65326,265.7269,731.5184,265.6939C731.3835,265.66095,731.28143,265.63913,731.27246,265.6381C731.2635,265.63705,731.25574,265.63602,731.24603,265.6349C731.2363,265.63376,731.22614,265.63266,731.2178,265.6317C731.2094,265.63077,731.2008,265.62997,731.19025,265.6289C731.1797,265.6278,731.1707,265.62695,731.16235,265.62634C731.154,265.6257,731.1445,265.62482,731.13477,265.62408C731.1251,265.62335,731.1166,265.62286,731.1082,265.62225C731.09985,265.6216,731.091,265.62115,731.08105,265.62054C731.07104,265.6199,731.06134,265.61935,731.0521,265.61902C731.04285,265.61868,731.0354,265.6183,731.0265,265.61798C731.0176,265.61765,731.0085,265.61743,730.99854,265.61707C730.9886,265.61667,730.97864,265.61655,730.97034,265.61646C730.9654,265.61642,730.96027,265.61636,730.95496,265.61636 Z"/></g><g id="change1_33"><path d="M754.3162,398.8371L754.30597,398.86722Q754.0497,399.91522,753.85956,400.92773Q753.7232,401.45627,753.4373,403.88516Q753.2549,405.8034,753.33624,407.57935Q753.5256,409.65543,753.77716,410.43024Q754.0059,411.38055,755.1577,412.9427Q757.35315,415.53046,760.056,415.24292Q761.2236,415.02463,762.2717,414.27017Q763.8307,412.99283,764.68054,411.77344Q762.46643,413.26263,762.0812,413.4447Q760.62604,414.15842,760.0726,414.12778Q758.5383,414.32324,756.77936,412.41727Q755.99506,411.32538,755.48615,410.1196Q755.27985,409.61334,754.9384,408.12122Q754.70496,406.77118,754.6307,405.71823Q754.55145,404.76382,754.4755,399.67633Q754.47125,399.47202,754.4084,398.97046Q754.37976,398.87976,754.3162,398.8371 Z"/></g><g id="change1_2"><path d="M759.53217,414.10986L759.5325,414.11087L759.5325,414.1099L759.5324,414.10992L759.53235,414.1099L759.53217,414.10986 Z"/></g><g id="change1_3"><path d="M777.09247,281.0056L776.55444,281.01123Q774.05615,281.02744,772.1777,281.76672Q770.52026,282.37717,769.20154,283.71503Q768.06946,284.8956,766.9159,287.44797Q765.25824,291.38132,765.21954,292.63535L765.58014,292.0821L767.8915,288.0388Q768.3143,287.3433,768.61804,286.8823Q769.5627,285.47037,770.9193,284.02036Q772.05804,282.9473,773.6079,282.32327Q774.77893,281.82608,777.934,281.01904L777.09247,281.0056 Z"/></g><g id="change1_1"><path d="M818.67444,286.7372L818.6716,286.75116Q818.3645,289.85825,818.77155,292.75168Q818.92737,293.72375,819.1159,294.3423Q819.5783,295.46014,820.05383,296.09207Q821.1272,297.44705,822.3224,297.44705Q822.3311,297.44705,822.3398,297.447Q822.40564,297.45032,822.4735,297.45032Q823.7216,297.45032,825.63196,296.32825L825.6237,296.32825Q823.809,296.69717,823.0201,296.69717Q822.7895,296.69717,822.6465,296.66565Q822.11847,296.60773,821.7976,296.3682Q821.60016,296.2802,821.2024,295.76892Q820.86884,295.26498,820.7015,294.81885Q820.5619,294.4597,820.5065,294.27927L820.0919,292.9783L819.9505,292.4824Q819.85986,292.20282,819.592,290.94904L818.89557,287.29633L818.7805,286.83978Q818.76404,286.7788,818.67444,286.7372 Z"/></g><g id="change1_14"><path d="M854.8645,244.17256L853.25525,245.90115L848.8009,250.96017Q848.1343,251.66223,847.8585,251.8651Q846.937,252.5701,846.33813,252.73027Q845.597,252.97467,844.3131,253.05058L844.29224,253.1287Q844.9464,253.31767,845.5086,253.37679Q845.72363,253.39603,845.9339,253.39603Q846.394,253.39603,846.83105,253.30385Q847.25006,253.20425,847.4831,253.11084Q847.6204,253.08446,848.33685,252.69933Q848.84784,252.41644,849.64166,251.74571Q850.1764,251.29102,850.8534,250.56914Q851.49805,249.76001,851.9938,249.0321Q853.9115,246.19728,854.8731,244.17256 Z"/></g><g id="change1_21"><path d="M814.5372,259.21497L814.53644,259.21503Q814.11273,259.23492,814.05695,259.25153L813.5037,259.36063Q813.44275,259.37302,813.38715,259.39224Q812.83105,259.6481,812.3836,259.936Q811.66034,260.38702,810.6043,261.2994Q810.08295,261.75543,809.6926,262.16373Q809.5695,262.27426,809.60175,262.37396Q809.6919,262.36548,812.0006,261.13327Q812.4183,260.9192,812.8257,260.73752Q813.26843,260.53,813.8082,260.36615Q814.0053,260.25754,814.0589,260.24512Q814.289,260.1486,814.6942,260.08044Q814.76935,260.07394,814.8477,260.07394Q815.0486,260.07394,815.27045,260.11667Q815.7279,260.22968,815.9632,260.38147Q816.6872,260.79044,817.62555,261.68875L817.1774,260.96802Q816.9918,260.687,816.9302,260.60776Q816.5732,260.127,816.2421,259.86108Q815.476,259.21716,814.5372,259.21497 Z"/></g><g id="change1_8"><path d="M712.81415,342.12003L712.809,342.13998Q712.4282,344.58218,712.52966,347.33176Q712.57715,348.29178,712.64294,348.42758Q712.8727,349.41895,713.1594,350.00482Q713.66986,351.15988,714.7671,351.57373Q715.12787,351.73257,715.6776,351.73257Q716.407,351.73257,717.46893,351.45294Q715.9015,351.3518,715.3836,351.11334Q714.60504,350.78586,714.3089,350.17795Q714.03253,349.57617,713.95465,349.09735Q713.8534,348.59503,713.80786,348.07916Q713.6736,347.47647,713.5249,346.4662Q713.0664,342.9362,713.0346,342.8376Q712.96747,342.44446,712.924,342.27664Q712.91925,342.24673,712.8866,342.19287L712.81415,342.12003 Z"/></g><g id="change1_31"><path d="M661.8928,447.0124C661.87366,447.07404,661.8316,447.36084,661.8037,447.5658C661.7759,447.77072,661.7621,447.893,661.73254,448.1776C661.70306,448.4622,661.6936,448.585,661.6772,448.7859C661.66077,448.9868,661.64233,449.26724,661.6362,449.38797C661.63007,449.5087,661.6142,449.7832,661.6057,449.9807C661.5972,450.17825,661.5942,450.29565,661.58856,450.56192C661.58295,450.8282,661.58185,450.94693,661.5835,451.1322C661.5851,451.31744,661.5848,451.57352,661.5871,451.68762C661.5894,451.80173,661.601,452.04526,661.6084,452.22412C661.6157,452.403,661.6253,452.511,661.6415,452.74075C661.6577,452.97052,661.6663,453.08194,661.70245,453.2382C661.7386,453.39444,661.79,453.60315,661.81573,453.70502C661.8415,453.80692,661.8994,453.9965,661.944,454.14133C661.9885,454.28616,662.0233,454.37875,662.0901,454.5468C662.1568,454.71487,662.1935,454.8099,662.2524,454.9258C662.3113,455.04172,662.3866,455.18616,662.42786,455.25952C662.46906,455.33292,662.5291,455.41898,662.5782,455.49036C662.62726,455.56177,662.6688,455.61365,662.73303,455.6876C662.7973,455.76154,662.8392,455.81226,662.8952,455.86697C662.95123,455.9217,663.0184,455.98538,663.0654,456.02667C663.1125,456.06793,663.18427,456.11987,663.24426,456.16403C663.30426,456.2082,663.3554,456.23935,663.4315,456.28033C663.5076,456.3213,663.55743,456.34973,663.6229,456.37747C663.68835,456.4052,663.76733,456.43695,663.818,456.45618C663.8686,456.4754,663.9503,456.4988,664.01587,456.51813C664.08136,456.53745,664.1316,456.54868,664.2158,456.56445C664.30005,456.58023,664.348,456.59015,664.4158,456.59784C664.48346,456.60556,664.5702,456.61353,664.61707,456.617C664.664,456.62045,664.7528,456.62183,664.8198,456.62268C664.8302,456.6228,664.8401,456.62286,664.84973,456.62286C664.9021,456.62286,664.94666,456.6209,665.0231,456.61627C665.1136,456.61075,665.1574,456.60867,665.22546,456.60153C665.2935,456.5944,665.3854,456.58426,665.4158,456.58057C665.44617,456.57687,665.4848,456.57083,665.51294,456.56653C665.5411,456.5622,665.55896,456.5593,665.5976,456.5526C665.6362,456.54596,665.6538,456.54306,665.682,456.5379C665.7102,456.53275,665.7491,456.5255,665.7665,456.52228C665.78394,456.51904,665.8229,456.51132,665.851,456.5058C665.87915,456.50024,665.8965,456.4967,665.93567,456.4884C665.9748,456.48013,665.99207,456.47635,666.02026,456.46973C666.0484,456.46313,666.08765,456.45392,666.10474,456.4499C666.12177,456.44583,666.1611,456.43625,666.1892,456.4294C666.21735,456.42258,666.2344,456.41833,666.27374,456.40848C666.3131,456.39862,666.3301,456.3944,666.3583,456.3872C666.3864,456.38,666.4259,456.36993,666.4428,456.3656C666.4597,456.36124,666.4992,456.35098,666.5278,456.3476C666.53516,456.3467,666.5418,456.34595,666.5483,456.34525L666.54156,456.34525C666.52954,456.34595,666.51416,456.34656,666.4989,456.34656C666.48883,456.34656,666.4789,456.34628,666.4699,456.34564C666.44086,456.3435,666.42346,456.34216,666.3829,456.33902C666.3423,456.33588,666.32495,456.33453,666.29614,456.33215C666.2673,456.3298,666.2268,456.32648,666.2097,456.325C666.19257,456.32352,666.1523,456.31998,666.12366,456.3174C666.09503,456.31485,666.0781,456.31317,666.038,456.30933C665.9979,456.30548,665.9812,456.3038,665.95294,456.30096C665.9247,456.29813,665.88477,456.29456,665.8682,456.2929C665.8517,456.2913,665.81213,456.28732,665.7842,456.2845C665.7563,456.28168,665.7402,456.2798,665.7009,456.2754C665.6616,456.27097,665.6455,456.26907,665.61816,456.26556C665.5908,456.2621,665.55176,456.25723,665.5364,456.255C665.52094,456.25278,665.48224,456.24734,665.45636,456.24347C665.4305,456.2396,665.3928,456.23312,665.3015,456.21906C665.21027,456.20502,665.1761,456.1992,665.11523,456.18637C665.0543,456.17355,664.9656,456.1554,664.9353,456.14728C664.90497,456.1392,664.819,456.1172,664.7622,456.10248C664.70544,456.08777,664.6793,456.07788,664.5963,456.05176C664.5133,456.02563,664.4895,456.01727,664.4386,455.99603C664.38776,455.97476,664.3082,455.94278,664.28906,455.93243C664.26996,455.92206,664.19446,455.8831,664.14856,455.8587C664.1027,455.83435,664.08813,455.8222,664.0169,455.77557C663.9457,455.7289,663.93317,455.719,663.89417,455.68506C663.85516,455.65112,663.78864,455.59604,663.77893,455.58453C663.7693,455.57306,663.707,455.51007,663.6714,455.4732C663.63586,455.43637,663.6275,455.42227,663.56934,455.35034C663.51117,455.27844,663.5025,455.2663,663.473,455.21625C663.4436,455.1662,663.39233,455.08264,663.38477,455.06442C663.37714,455.0462,663.332,454.9515,663.3075,454.89832C663.28296,454.8451,663.26807,454.79846,663.2124,454.6454C663.1568,454.4923,663.1433,454.452,663.11584,454.33832C663.08844,454.22464,663.04443,454.0494,663.0333,453.9898C663.0223,453.9302,662.9888,453.7347,662.96545,453.60376C662.9422,453.4728,662.9334,453.39722,662.91266,453.18298C662.8919,452.96872,662.8724,452.8929,662.84064,452.73822C662.8089,452.5835,662.76434,452.3576,662.74866,452.26703C662.733,452.17645,662.6928,451.93582,662.6664,451.7672C662.64,451.59857,662.6235,451.49686,662.5867,451.2434C662.54987,450.98993,662.535,450.88608,662.5122,450.6997C662.4894,450.51334,662.4532,450.24927,662.4385,450.1375C662.42377,450.0258,662.3907,449.7531,662.36475,449.55945C662.3388,449.3658,662.32556,449.24802,662.28906,448.96912C662.25256,448.69022,662.2361,448.5717,662.209,448.36987C662.1818,448.16806,662.1383,447.885,662.11865,447.76355C662.099,447.64206,662.049,447.35693,662.0127,447.21457C661.97534,447.01093,661.8939,447.07367,661.8928,447.0124 Z"/></g><g id="change1_9"><path d="M507.0488,436.24158C507.0297,436.30322,506.98764,436.59003,506.95978,436.79498C506.9319,436.9999,506.91812,437.12216,506.8886,437.4068C506.8591,437.6914,506.84964,437.81424,506.8332,438.01514C506.81677,438.21603,506.79834,438.4965,506.79224,438.6172C506.78613,438.7379,506.7703,439.0124,506.76178,439.20993C506.7533,439.40747,506.7502,439.52484,506.7446,439.7911C506.73898,440.05737,506.73788,440.17606,506.7395,440.36133C506.7411,440.54663,506.74078,440.80276,506.7431,440.91687C506.7454,441.03094,506.75705,441.27454,506.7644,441.4533C506.77176,441.63205,506.78134,441.74026,506.79758,441.97C506.8138,442.19974,506.8224,442.31104,506.85852,442.46735C506.89465,442.62363,506.94604,442.83237,506.9718,442.93417C506.99753,443.03598,507.0554,443.2257,507.09998,443.37048C507.14456,443.51526,507.17938,443.608,507.2461,443.77597C507.31277,443.94394,507.3495,444.03918,507.4084,444.15503C507.46732,444.27084,507.54254,444.4153,507.5838,444.4887C507.62503,444.5621,507.68515,444.64822,507.73413,444.71948C507.7831,444.79074,507.82483,444.8429,507.8891,444.9168C507.95334,444.99072,507.995,445.04123,508.05115,445.09607C508.10727,445.1509,508.17432,445.2145,508.2214,445.25586C508.2685,445.29718,508.3403,445.3491,508.4003,445.39325C508.4603,445.43738,508.51147,445.46854,508.58752,445.50946C508.66354,445.5504,508.7133,445.57886,508.7788,445.60663C508.84433,445.63437,508.92328,445.66614,508.97394,445.68536C509.02457,445.7046,509.10635,445.728,509.1718,445.7473C509.23727,445.76663,509.28763,445.7779,509.37186,445.79364C509.4561,445.80942,509.50406,445.81934,509.57172,445.82703C509.63937,445.83472,509.7261,445.8427,509.77313,445.8462C509.82013,445.84967,509.90884,445.85104,509.97583,445.85187C509.98624,445.852,509.99612,445.85205,510.00574,445.85205C510.05814,445.85205,510.10275,445.8501,510.17914,445.84546C510.26953,445.83997,510.31345,445.8379,510.38153,445.83075C510.4496,445.82358,510.5414,445.81345,510.57184,445.80975C510.60223,445.80606,510.6408,445.80002,510.66895,445.79572C510.6971,445.79138,510.71494,445.78848,510.7536,445.7818C510.79227,445.77515,510.8098,445.77225,510.83798,445.7671C510.86615,445.76193,510.90503,445.75473,510.9225,445.7515C510.93997,445.74826,510.97897,445.74054,511.00708,445.735C511.0352,445.72943,511.0524,445.7259,511.0916,445.71765C511.1308,445.70938,511.148,445.70557,511.17624,445.69894C511.20447,445.69232,511.24362,445.6831,511.26068,445.67908C511.27774,445.67502,511.31708,445.66544,511.3452,445.6586C511.37338,445.65176,511.39038,445.64752,511.42975,445.63766C511.46915,445.6278,511.48608,445.62357,511.51428,445.61636C511.54248,445.60916,511.58188,445.59912,511.59882,445.59476C511.61575,445.5904,511.65524,445.58017,511.68378,445.57678C511.692,445.5758,511.69925,445.57498,511.7064,445.5742L511.70126,445.5742C511.68875,445.575,511.67175,445.57574,511.6549,445.57574C511.64484,445.57574,511.63486,445.57547,511.62592,445.57483C511.59686,445.5727,511.5795,445.57135,511.53894,445.5682C511.49835,445.56506,511.48102,445.56375,511.45218,445.56137C511.42334,445.559,511.38287,445.55566,511.36572,445.5542C511.34857,445.5527,511.3083,445.54916,511.27963,445.5466C511.25098,445.54404,511.23404,445.54236,511.19397,445.5385C511.15387,445.5347,511.13715,445.53302,511.1089,445.53018C511.08066,445.52734,511.0408,445.52374,511.02423,445.5221C511.00763,445.52048,510.9681,445.51654,510.9402,445.51373C510.9123,445.5109,510.8963,445.509,510.85693,445.50458C510.8176,445.50015,510.80157,445.49826,510.7742,445.49475C510.74683,445.49127,510.7078,445.48642,510.69238,445.4842C510.67694,445.48196,510.63824,445.47653,510.61237,445.47266C510.58652,445.46878,510.54886,445.4623,510.45758,445.44827C510.36627,445.43423,510.33212,445.4284,510.27127,445.4156C510.21042,445.40274,510.1216,445.38458,510.0913,445.37646C510.06097,445.36838,509.97495,445.34634,509.91818,445.33167C509.86142,445.317,509.83536,445.30713,509.75238,445.28098C509.6694,445.25482,509.64554,445.24646,509.59467,445.22522C509.54376,445.20395,509.46414,445.17194,509.44507,445.1616C509.426,445.15125,509.35037,445.11227,509.30457,445.08795C509.2588,445.0636,509.2442,445.0514,509.1729,445.00473C509.10162,444.95807,509.0892,444.94818,509.05017,444.91425C509.01117,444.88028,508.94458,444.82523,508.93494,444.81372C508.9253,444.80225,508.86295,444.73923,508.82745,444.70242C508.79193,444.66562,508.78357,444.65152,508.72534,444.5796C508.66714,444.50763,508.6587,444.4957,508.62912,444.44547C508.59955,444.39523,508.54822,444.31177,508.5407,444.2936C508.53317,444.27545,508.48795,444.18063,508.46344,444.12744C508.43896,444.07428,508.42407,444.02768,508.36847,443.87457C508.31284,443.72147,508.29932,443.6811,508.2719,443.5675C508.2445,443.4539,508.20044,443.27853,508.1894,443.21893C508.17834,443.15936,508.1448,442.96387,508.12152,442.833C508.09827,442.70212,508.08948,442.62643,508.06873,442.41217C508.04794,442.19794,508.02844,442.12225,507.9967,441.9674C507.96494,441.8126,507.92032,441.58676,507.90466,441.49622C507.88904,441.40567,507.84885,441.16492,507.82245,440.9964C507.79605,440.82785,507.77954,440.72604,507.74274,440.47263C507.70593,440.2192,507.691,440.1154,507.6682,439.92896C507.64545,439.74255,507.60928,439.47852,507.59457,439.36673C507.57986,439.25494,507.54672,438.98236,507.52078,438.78867C507.49484,438.59497,507.48163,438.4772,507.44513,438.1983C507.4086,437.9194,507.39206,437.80087,507.36493,437.59906C507.3378,437.39725,507.29434,437.11423,507.2747,436.99274C507.25504,436.87122,507.205,436.58612,507.16873,436.44376C507.13138,436.2401,507.0499,436.30286,507.0488,436.24158 Z"/></g><g id="change1_17"><path d="M823.76135,373.96817L823.7585,373.98212Q823.45123,377.0893,823.85846,379.98264Q824.02045,380.9943,824.2144,381.60318Q824.7028,382.76025,825.1549,383.34256Q826.21216,384.67804,827.43225,384.67816Q827.4975,384.68146,827.5647,384.68146Q828.80536,384.68146,830.7196,383.55893L830.7113,383.55893Q828.86163,383.93066,828.097,383.93066Q827.8654,383.93066,827.73334,383.89658Q827.2055,383.83868,826.8845,383.59918Q826.6787,383.5027,826.28937,382.9999Q825.9559,382.49603,825.7884,382.0498Q825.6488,381.69055,825.5934,381.51013L825.17883,380.20926L825.0374,379.71335Q824.9663,379.51712,824.67883,378.17996L823.9825,374.52725L823.86743,374.07074Q823.85095,374.0098,823.76135,373.96817 Z"/></g><g id="change1_19"><path d="M843.6049,337.27243L843.60205,337.28638Q843.46515,338.59225,843.4696,339.92264Q843.4719,340.5878,843.5095,341.25916Q843.63446,342.9428,843.70197,343.2869Q843.9417,344.61865,844.0286,344.8264Q844.4515,345.8369,844.82556,346.4116Q845.06885,346.73715,845.3119,346.99512Q845.43365,347.16635,846.04034,347.617Q846.5256,347.9303,847.0096,347.97336Q847.87756,348.02454,848.3819,347.85318Q849.50793,347.4717,850.54755,346.87216Q848.73315,347.26385,847.59283,347.2143Q847.288,347.23145,846.71344,346.89627Q846.3959,346.67526,846.13293,346.30414Q845.7953,345.78934,845.6218,345.3359Q845.0568,343.6562,844.8126,342.82425Q844.5938,341.97894,843.82605,337.83154L843.70294,337.35223Q843.6741,337.3053,843.6049,337.27243 Z"/></g></g></g><g fill="#eef6fa" id="change2_1"><path d="M863.94867,212.06947L427.8282,212.50867L434.70844,226.54202Q440.42764,223.08023,455.44687,227.75299L458.6396,229.10284L472.67303,240.36803Q476.1665,242.59436,481.9048,244.10814Q484.38348,244.10814,490.0011,242.27637Q493.331,241.41772,508.96304,234.83481Q525.93274,231.19972,526.7694,231.54547Q530.7398,231.3851,540.7471,233.36955Q544.01715,235.37634,565.0364,239.94406Q571.15063,240.17403,576.2771,239.46664L594.65967,234.14426Q596.16534,233.7908,600.569,233.5712Q606.19006,239.15152,622.41077,242.38907Q628.2135,242.62613,635.8915,241.92773L655.47766,238.91724Q660.7442,238.1748,661.902,238.17119L675.0812,238.18532L690.37036,238.6431Q704.05023,242.15541,718.3236,248.64099Q719.1117,248.90572,726.20435,249.08667L793.4752,236.70811Q802.48914,236.98683,850.157,234.47614L861.4785,234.44687Q866.91235,225.68597,863.94867,212.06947 Z"/></g><g fill="#fefefe" id="change3_1"><path d="M459.56732,171.83633L457.41876,171.87187Q448.83636,172.15611,440.44235,174.71451L431.69293,182.71552L422.84265,201.29752Q422.7525,205.45407,423.8395,207.8435Q430.55994,215.20544,430.7567,219.19234Q444.12766,211.68904,459.95676,214.47972L462.85583,215.47826Q477.13773,230.5961,481.82965,231.38254L501.5563,230.33765Q505.58896,228.26639,509.45203,227.59457Q532.4216,223.38951,537.8808,222.92229Q555.8011,221.99721,565.4253,222.84871Q574.5354,225.04944,576.7063,227.01428Q579.37976,227.58005,580.7615,227.52406L613.46436,225.1705L647.1114,221.00624L648.30444,221.0133Q651.5035,221.08888,654.93646,221.76883Q661.13965,226.83025,668.179,229.31487Q674.9877,229.811,675.9086,229.66458L706.5814,225.07773L715.8898,224.4017Q721.7369,230.26685,736.56104,233.15582Q749.4697,235.54697,768.2936,235.28891Q777.6273,235.09123,789.9813,233.31209L811.7526,226.28423Q813.1353,225.94713,815.8379,225.66788L816.694,225.62323L838.18994,228.36444Q842.8561,228.15842,858.8246,230.01328Q861.1093,230.03807,863.8687,229.8137Q866.2227,219.9548,864.27985,210.6814Q864.0311,203.56166,852.7081,188.41277Q845.3356,191.13737,830.69543,191.46115Q818.52966,191.28549,801.72473,186.57884Q798.9358,186.30167,792.3192,186.55635Q778.973,187.74036,778.80005,187.90736Q762.1144,192.54785,742.6988,195.001Q739.0872,195.59686,723.4541,195.87961Q715.5183,195.81143,706.52515,194.77405Q690.4236,192.62549,682.3901,190.66621Q672.87335,189.67596,667.47766,189.79099Q662.0592,190.22757,649.1232,193.31604Q637.8436,196.53653,633.94037,198.54369Q632.6718,198.97989,629.2888,199.11247Q621.9806,198.81471,617.64966,197.44151L594.70703,185.41597Q586.0869,184.49496,584.8495,184.588L547.18567,187.10245Q529.98865,185.43547,506.04794,185.61429Q492.79688,183.9302,491.60953,183.30481L467.54846,172.77087Q465.14572,171.95749,459.56732,171.83633 Z"/></g></g></svg>